<svg width="16" height="17" viewBox="0 0 16 17" fill="none" xmlns="http://www.w3.org/2000/svg">
<g clip-path="url(#clip0_491_546)">
<path d="M1.088 14.2846C1.6896 14.2846 2.1776 14.7806 2.1776 15.3934C2.1776 16.0054 1.6896 16.5022 1.0888 16.5022C0.4872 16.5022 0 16.0062 0 15.3934C0 14.7814 0.488 14.2854 1.088 14.2854M13.4264 14.2854C14.028 14.2854 14.5144 14.7814 14.5144 15.3942C14.5144 16.0062 14.028 16.503 13.4264 16.503C12.8256 16.503 12.3384 16.007 12.3384 15.3942C12.3384 14.7822 12.8256 14.2854 13.4264 14.2854ZM15.9776 0.898973C16.0189 1.039 16.0034 1.18964 15.9345 1.31836C15.8657 1.44708 15.749 1.54357 15.6096 1.58697C15.0384 1.75897 14.6672 1.97577 14.4856 2.21337C14.2944 2.46377 14.1896 2.77017 14.1712 3.11817V10.767C14.1392 11.6582 13.9336 12.3606 13.5328 12.863C13.116 13.3878 12.476 13.683 11.5936 13.7686H2.84C2.0584 13.7686 1.4128 13.5646 0.9232 13.143C0.4336 12.7214 0.1312 12.111 0.0072 11.335L0 11.2462V6.49417C0.0368 5.67017 0.2952 4.99017 0.7816 4.48137C1.2768 3.96537 1.968 3.70137 2.84 3.67737H10.4544C10.7552 3.67737 10.9984 3.92537 10.9984 4.23097C10.9997 4.3766 10.9431 4.51678 10.8411 4.62073C10.7391 4.72468 10.6 4.7839 10.4544 4.78537H2.8544C2.2624 4.80137 1.8416 4.96217 1.5608 5.25577C1.2728 5.55657 1.1128 5.97657 1.0888 6.51897V11.199C1.1768 11.7062 1.3576 12.0638 1.6264 12.295C1.9024 12.5334 2.3 12.659 2.84 12.659L11.54 12.6614C12.1008 12.6054 12.4728 12.4342 12.6872 12.1638C12.9192 11.8726 13.0584 11.3958 13.0824 10.7454V3.08937C13.1128 2.49177 13.2936 1.96697 13.6264 1.53097C13.9696 1.08297 14.5312 0.754973 15.3016 0.522973C15.3706 0.502726 15.4429 0.496368 15.5143 0.504267C15.5858 0.512166 15.6549 0.534165 15.7178 0.56899C15.7807 0.603815 15.836 0.650772 15.8806 0.707141C15.9252 0.76351 15.9582 0.82817 15.9776 0.897373M10.4544 9.72937C10.7552 9.72937 10.9984 9.97737 10.9984 10.283C10.9997 10.4286 10.9431 10.5688 10.8411 10.6727C10.7391 10.7767 10.6 10.8359 10.4544 10.8374H3.8072C3.66157 10.8359 3.52249 10.7767 3.42049 10.6727C3.31849 10.5688 3.26192 10.4286 3.2632 10.283C3.2632 9.97657 3.5072 9.72857 3.8072 9.72857L10.4544 9.72937ZM10.4544 6.77257C10.7552 6.77257 10.9984 7.02057 10.9984 7.32697C10.9997 7.4726 10.9431 7.61278 10.8411 7.71673C10.7391 7.82068 10.6 7.8799 10.4544 7.88137H3.8072C3.66157 7.8799 3.52249 7.82068 3.42049 7.71673C3.31849 7.61278 3.26192 7.4726 3.2632 7.32697C3.2632 7.02137 3.5072 6.77257 3.8072 6.77257H10.4544Z" fill="white"/>
</g>
<defs>
<clipPath id="clip0_491_546">
<rect width="16" height="16" fill="white" transform="translate(0 0.5)"/>
</clipPath>
</defs>
</svg>
