<svg width="24" height="24" viewBox="0 0 24 24" fill="none" xmlns="http://www.w3.org/2000/svg">
<path d="M4.2495 4.406C4.3155 3.5125 4.846 2.756 5.7175 2.5505C6.844 2.2845 8.799 2 12 2C15.201 2 17.156 2.285 18.2825 2.55C19.154 2.756 19.6845 3.5125 19.7505 4.406C19.8605 5.8915 20 8.6335 20 13C20 16.473 19.949 18.743 19.8845 20.2255C19.816 21.799 18.598 22.3305 17.2815 21.4655L13.646 19.0805C13.157 18.7596 12.5849 18.5886 12 18.5886C11.4151 18.5886 10.843 18.7596 10.354 19.0805L6.719 21.4655C5.402 22.3305 4.184 21.799 4.1155 20.2255C4.0505 18.743 4 16.473 4 13C4 8.6335 4.139 5.8915 4.2495 4.406Z" fill="#FF5BEF" fill-opacity="0.2"/>
<path d="M4.2495 4.406C4.3155 3.5125 4.846 2.756 5.7175 2.5505C6.844 2.2845 8.799 2 12 2C15.201 2 17.156 2.285 18.2825 2.55C19.154 2.756 19.6845 3.5125 19.7505 4.406C19.8605 5.8915 20 8.6335 20 13C20 16.473 19.949 18.743 19.8845 20.2255C19.816 21.799 18.598 22.3305 17.2815 21.4655L13.646 19.0805C13.157 18.7596 12.5849 18.5886 12 18.5886C11.4151 18.5886 10.843 18.7596 10.354 19.0805L6.719 21.4655C5.402 22.3305 4.184 21.799 4.1155 20.2255C4.0505 18.743 4 16.473 4 13C4 8.6335 4.139 5.8915 4.2495 4.406Z" stroke="#5E35F2" stroke-width="2" stroke-linecap="round" stroke-linejoin="round"/>
</svg>
