<svg width="16" height="17" viewBox="0 0 16 17" fill="none" xmlns="http://www.w3.org/2000/svg">
<g clip-path="url(#clip0_947_7948)">
<path d="M5 1C5 0.725 4.775 0.5 4.5 0.5C4.225 0.5 4 0.725 4 1V2.5H3C1.89688 2.5 1 3.39687 1 4.5V5.5V6.5V14.5C1 15.6031 1.89688 16.5 3 16.5H13C14.1031 16.5 15 15.6031 15 14.5V6.5V5.5V4.5C15 3.39687 14.1031 2.5 13 2.5H12V1C12 0.725 11.775 0.5 11.5 0.5C11.225 0.5 11 0.725 11 1V2.5H5V1ZM2 6.5H14V14.5C14 15.0531 13.5531 15.5 13 15.5H3C2.44687 15.5 2 15.0531 2 14.5V6.5ZM3 3.5H13C13.5531 3.5 14 3.94688 14 4.5V5.5H2V4.5C2 3.94688 2.44687 3.5 3 3.5ZM10.5 11.5C10.775 11.5 11 11.275 11 11C11 10.725 10.775 10.5 10.5 10.5H5.5C5.225 10.5 5 10.725 5 11C5 11.275 5.225 11.5 5.5 11.5H10.5Z" fill="#BDBECC"/>
</g>
<defs>
<clipPath id="clip0_947_7948">
<rect width="16" height="16" fill="white" transform="translate(0 0.5)"/>
</clipPath>
</defs>
</svg>
