<svg width="16" height="17" viewBox="0 0 16 17" fill="none" xmlns="http://www.w3.org/2000/svg">
<path d="M8 11.167C9.10457 11.167 10 10.2716 10 9.16699C10 8.06242 9.10457 7.16699 8 7.16699C6.89543 7.16699 6 8.06242 6 9.16699C6 10.2716 6.89543 11.167 8 11.167Z" stroke="white"/>
<path d="M6.51736 14.5H9.48003C11.5607 14.5 12.6014 14.5 13.3487 14.01C13.6712 13.7987 13.9489 13.5259 14.166 13.2074C14.6654 12.474 14.6654 11.452 14.6654 9.40936C14.6654 7.36603 14.6654 6.3447 14.166 5.61136C13.9489 5.29277 13.6712 5.02003 13.3487 4.8087C12.8687 4.49336 12.2674 4.3807 11.3467 4.3407C10.9074 4.3407 10.5294 4.01403 10.4434 3.5907C10.3776 3.28061 10.2069 3.00272 9.95993 2.804C9.71298 2.60527 9.405 2.4979 9.08803 2.50003H6.90936C6.2507 2.50003 5.68336 2.9567 5.55403 3.5907C5.46803 4.01403 5.09003 4.3407 4.6507 4.3407C3.7307 4.3807 3.12936 4.49403 2.6487 4.8087C2.32644 5.02007 2.04895 5.29281 1.83203 5.61136C1.33203 6.3447 1.33203 7.36603 1.33203 9.40936C1.33203 11.452 1.33203 12.4734 1.83136 13.2074C2.04736 13.5247 2.3247 13.7974 2.6487 14.01C3.39603 14.5 4.4367 14.5 6.51736 14.5Z" stroke="white"/>
<path d="M12.6667 7.16699H12" stroke="white" stroke-linecap="round"/>
</svg>
