<svg width="16" height="16" viewBox="0 0 16 16" fill="none" xmlns="http://www.w3.org/2000/svg">
<path d="M8 10.667C9.10457 10.667 10 9.77156 10 8.66699C10 7.56242 9.10457 6.66699 8 6.66699C6.89543 6.66699 6 7.56242 6 8.66699C6 9.77156 6.89543 10.667 8 10.667Z" stroke="white"/>
<path d="M6.51736 14H9.48003C11.5607 14 12.6014 14 13.3487 13.51C13.6712 13.2987 13.9489 13.0259 14.166 12.7074C14.6654 11.974 14.6654 10.952 14.6654 8.90936C14.6654 6.86603 14.6654 5.8447 14.166 5.11136C13.9489 4.79277 13.6712 4.52003 13.3487 4.3087C12.8687 3.99336 12.2674 3.8807 11.3467 3.8407C10.9074 3.8407 10.5294 3.51403 10.4434 3.0907C10.3776 2.78061 10.2069 2.50272 9.95993 2.304C9.71298 2.10527 9.405 1.9979 9.08803 2.00003H6.90936C6.2507 2.00003 5.68336 2.4567 5.55403 3.0907C5.46803 3.51403 5.09003 3.8407 4.6507 3.8407C3.7307 3.8807 3.12936 3.99403 2.6487 4.3087C2.32644 4.52007 2.04895 4.79281 1.83203 5.11136C1.33203 5.8447 1.33203 6.86603 1.33203 8.90936C1.33203 10.952 1.33203 11.9734 1.83136 12.7074C2.04736 13.0247 2.3247 13.2974 2.6487 13.51C3.39603 14 4.4367 14 6.51736 14Z" stroke="white"/>
<path d="M12.6667 6.66699H12" stroke="white" stroke-linecap="round"/>
</svg>
