<svg width="16" height="17" viewBox="0 0 16 17" fill="none" xmlns="http://www.w3.org/2000/svg">
<g clip-path="url(#clip0_418_82212)">
<path d="M14.912 14.2846C14.3104 14.2846 13.8224 14.7806 13.8224 15.3934C13.8224 16.0054 14.3104 16.5022 14.9112 16.5022C15.5128 16.5022 16 16.0062 16 15.3934C16 14.7814 15.512 14.2854 14.912 14.2854M2.5736 14.2854C1.972 14.2854 1.4856 14.7814 1.4856 15.3942C1.4856 16.0062 1.972 16.503 2.5736 16.503C3.1744 16.503 3.6616 16.007 3.6616 15.3942C3.6616 14.7822 3.1744 14.2854 2.5736 14.2854ZM0.0223989 0.898973C-0.0188618 1.039 -0.00339699 1.18964 0.0654554 1.31836C0.134308 1.44708 0.251022 1.54357 0.390399 1.58697C0.961599 1.75897 1.3328 1.97577 1.5144 2.21337C1.7056 2.46377 1.8104 2.77017 1.8288 3.11817V10.767C1.8608 11.6582 2.0664 12.3606 2.4672 12.863C2.884 13.3878 3.524 13.683 4.4064 13.7686H13.16C13.9416 13.7686 14.5872 13.5646 15.0768 13.143C15.5664 12.7214 15.8688 12.111 15.9928 11.335L16 11.2462V6.49417C15.9632 5.67017 15.7048 4.99017 15.2184 4.48137C14.7232 3.96537 14.032 3.70137 13.16 3.67737H5.5456C5.2448 3.67737 5.0016 3.92537 5.0016 4.23097C5.00032 4.3766 5.05689 4.51678 5.15889 4.62073C5.26089 4.72468 5.39997 4.7839 5.5456 4.78537H13.1456C13.7376 4.80137 14.1584 4.96217 14.4392 5.25577C14.7272 5.55657 14.8872 5.97657 14.9112 6.51897V11.199C14.8232 11.7062 14.6424 12.0638 14.3736 12.295C14.0976 12.5334 13.7 12.659 13.16 12.659L4.46 12.6614C3.8992 12.6054 3.5272 12.4342 3.3128 12.1638C3.0808 11.8726 2.9416 11.3958 2.9176 10.7454V3.08937C2.8872 2.49177 2.7064 1.96697 2.3736 1.53097C2.0304 1.08297 1.4688 0.754973 0.698398 0.522973C0.629431 0.502726 0.557131 0.496368 0.485689 0.504267C0.414247 0.512166 0.345083 0.534165 0.282206 0.56899C0.219327 0.603815 0.163985 0.650772 0.119388 0.707141C0.074791 0.76351 0.0418243 0.82817 0.0223989 0.897373M5.5456 9.72937C5.2448 9.72937 5.0016 9.97737 5.0016 10.283C5.00032 10.4286 5.05689 10.5688 5.15889 10.6727C5.26089 10.7767 5.39997 10.8359 5.5456 10.8374H12.1928C12.3384 10.8359 12.4775 10.7767 12.5795 10.6727C12.6815 10.5688 12.7381 10.4286 12.7368 10.283C12.7368 9.97657 12.4928 9.72857 12.1928 9.72857L5.5456 9.72937ZM5.5456 6.77257C5.2448 6.77257 5.0016 7.02057 5.0016 7.32697C5.00032 7.4726 5.05689 7.61278 5.15889 7.71673C5.26089 7.82068 5.39997 7.8799 5.5456 7.88137H12.1928C12.3384 7.8799 12.4775 7.82068 12.5795 7.71673C12.6815 7.61278 12.7381 7.4726 12.7368 7.32697C12.7368 7.02137 12.4928 6.77257 12.1928 6.77257H5.5456Z" fill="#000425"/>
</g>
<defs>
<clipPath id="clip0_418_82212">
<rect width="16" height="16" fill="white" transform="matrix(-1 0 0 1 16 0.5)"/>
</clipPath>
</defs>
</svg>
