<svg width="25" height="24" viewBox="0 0 25 24" fill="none" xmlns="http://www.w3.org/2000/svg">
<g clip-path="url(#clip0_846_7808)">
<path d="M23.118 20.6764C22.2156 20.6764 21.4836 21.4204 21.4836 22.3396C21.4836 23.2576 22.2156 24.0028 23.1168 24.0028C24.0192 24.0028 24.75 23.2588 24.75 22.3396C24.75 21.4216 24.018 20.6776 23.118 20.6776M4.6104 20.6776C3.708 20.6776 2.9784 21.4216 2.9784 22.3408C2.9784 23.2588 3.708 24.004 4.6104 24.004C5.5116 24.004 6.2424 23.26 6.2424 22.3408C6.2424 21.4228 5.5116 20.6776 4.6104 20.6776ZM0.7836 0.597971C0.721708 0.808013 0.744907 1.03397 0.848185 1.22705C0.951462 1.42014 1.12654 1.56486 1.3356 1.62997C2.1924 1.88797 2.7492 2.21317 3.0216 2.56957C3.3084 2.94517 3.4656 3.40477 3.4932 3.92677V15.4C3.5412 16.7368 3.8496 17.7904 4.4508 18.544C5.076 19.3312 6.036 19.774 7.3596 19.9024H20.49C21.6624 19.9024 22.6308 19.5964 23.3652 18.964C24.0996 18.3316 24.5532 17.416 24.7392 16.252L24.75 16.1188V8.99077C24.6948 7.75477 24.3072 6.73477 23.5776 5.97157C22.8348 5.19757 21.798 4.80157 20.49 4.76557H9.0684C8.6172 4.76557 8.2524 5.13757 8.2524 5.59597C8.25048 5.81441 8.33534 6.02468 8.48833 6.18061C8.64133 6.33653 8.84996 6.42535 9.0684 6.42757H20.4684C21.3564 6.45157 21.9876 6.69277 22.4088 7.13317C22.8408 7.58437 23.0808 8.21437 23.1168 9.02797V16.048C22.9848 16.8088 22.7136 17.3452 22.3104 17.692C21.8964 18.0496 21.3 18.238 20.49 18.238L7.44 18.2416C6.5988 18.1576 6.0408 17.9008 5.7192 17.4952C5.3712 17.0584 5.1624 16.3432 5.1264 15.3676V3.88357C5.0808 2.98717 4.8096 2.19997 4.3104 1.54597C3.7956 0.873971 2.9532 0.381971 1.7976 0.0339713C1.69415 0.00360057 1.5857 -0.00593683 1.47853 0.00591181C1.37137 0.0177605 1.26763 0.0507595 1.17331 0.102997C1.07899 0.155234 0.995979 0.22567 0.929083 0.310224C0.862186 0.394777 0.812737 0.491767 0.7836 0.595571M9.0684 13.8436C8.6172 13.8436 8.2524 14.2156 8.2524 14.674C8.25048 14.8924 8.33534 15.1027 8.48833 15.2586C8.64133 15.4145 8.84996 15.5034 9.0684 15.5056H19.0392C19.2576 15.5034 19.4663 15.4145 19.6193 15.2586C19.7723 15.1027 19.8571 14.8924 19.8552 14.674C19.8552 14.2144 19.4892 13.8424 19.0392 13.8424L9.0684 13.8436ZM9.0684 9.40837C8.6172 9.40837 8.2524 9.78037 8.2524 10.24C8.25048 10.4584 8.33534 10.6687 8.48833 10.8246C8.64133 10.9805 8.84996 11.0694 9.0684 11.0716H19.0392C19.2576 11.0694 19.4663 10.9805 19.6193 10.8246C19.7723 10.6687 19.8571 10.4584 19.8552 10.24C19.8552 9.78157 19.4892 9.40837 19.0392 9.40837H9.0684Z" fill="white"/>
</g>
<defs>
<clipPath id="clip0_846_7808">
<rect width="24" height="24" fill="white" transform="matrix(-1 0 0 1 24.75 0)"/>
</clipPath>
</defs>
</svg>
