<svg width="20" height="21" viewBox="0 0 20 21" fill="none" xmlns="http://www.w3.org/2000/svg">
<g clip-path="url(#clip0_611_2623)">
<path d="M1.36 17.7305C2.112 17.7305 2.722 18.3505 2.722 19.1165C2.722 19.8815 2.112 20.5025 1.361 20.5025C0.609 20.5025 0 19.8825 0 19.1165C0 18.3515 0.61 17.7315 1.36 17.7315M16.783 17.7315C17.535 17.7315 18.143 18.3515 18.143 19.1175C18.143 19.8825 17.535 20.5035 16.783 20.5035C16.032 20.5035 15.423 19.8835 15.423 19.1175C15.423 18.3525 16.032 17.7315 16.783 17.7315ZM19.972 0.998472C20.0236 1.17351 20.0042 1.3618 19.9182 1.52271C19.8321 1.68361 19.6862 1.80421 19.512 1.85847C18.798 2.07347 18.334 2.34447 18.107 2.64147C17.868 2.95447 17.737 3.33747 17.714 3.77247V13.3335C17.674 14.4475 17.417 15.3255 16.916 15.9535C16.395 16.6095 15.595 16.9785 14.492 17.0855H3.55C2.573 17.0855 1.766 16.8305 1.154 16.3035C0.542 15.7765 0.164 15.0135 0.009 14.0435L0 13.9325V7.99247C0.046 6.96247 0.369 6.11247 0.977 5.47647C1.596 4.83147 2.46 4.50147 3.55 4.47147H13.068C13.444 4.47147 13.748 4.78147 13.748 5.16347C13.7496 5.34551 13.6789 5.52073 13.5514 5.65067C13.4239 5.7806 13.25 5.85462 13.068 5.85647H3.568C2.828 5.87647 2.302 6.07747 1.951 6.44447C1.591 6.82047 1.391 7.34547 1.361 8.02347V13.8735C1.471 14.5075 1.697 14.9545 2.033 15.2435C2.378 15.5415 2.875 15.6985 3.55 15.6985L14.425 15.7015C15.126 15.6315 15.591 15.4175 15.859 15.0795C16.149 14.7155 16.323 14.1195 16.353 13.3065V3.73647C16.391 2.98947 16.617 2.33347 17.033 1.78847C17.462 1.22847 18.164 0.818472 19.127 0.528472C19.2132 0.503163 19.3036 0.495215 19.3929 0.505089C19.4822 0.514963 19.5686 0.542462 19.6472 0.585993C19.7258 0.629524 19.795 0.688221 19.8508 0.758683C19.9065 0.829144 19.9477 0.909968 19.972 0.996472M13.068 12.0365C13.444 12.0365 13.748 12.3465 13.748 12.7285C13.7496 12.9105 13.6789 13.0857 13.5514 13.2157C13.4239 13.3456 13.25 13.4196 13.068 13.4215H4.759C4.57697 13.4196 4.40311 13.3456 4.27561 13.2157C4.14812 13.0857 4.0774 12.9105 4.079 12.7285C4.079 12.3455 4.384 12.0355 4.759 12.0355L13.068 12.0365ZM13.068 8.34047C13.444 8.34047 13.748 8.65047 13.748 9.03347C13.7496 9.21551 13.6789 9.39073 13.5514 9.52067C13.4239 9.6506 13.25 9.72462 13.068 9.72647H4.759C4.57697 9.72462 4.40311 9.6506 4.27561 9.52067C4.14812 9.39073 4.0774 9.21551 4.079 9.03347C4.079 8.65147 4.384 8.34047 4.759 8.34047H13.068Z" fill="#000425"/>
</g>
<defs>
<clipPath id="clip0_611_2623">
<rect width="20" height="20" fill="white" transform="translate(0 0.5)"/>
</clipPath>
</defs>
</svg>
