<svg width="24" height="24" viewBox="0 0 24 24" fill="none" xmlns="http://www.w3.org/2000/svg">
<path d="M7.49945 15.2494C7.30945 15.2494 7.11945 15.1794 6.96945 15.0294C6.67945 14.7394 6.67945 14.2594 6.96945 13.9694L10.1694 10.7694C10.3294 10.6094 10.5394 10.5294 10.7694 10.5494C10.9894 10.5694 11.1894 10.6894 11.3194 10.8794L12.4094 12.5194L15.9594 8.96945C16.2494 8.67945 16.7294 8.67945 17.0194 8.96945C17.3094 9.25945 17.3094 9.73945 17.0194 10.0294L12.8194 14.2294C12.6594 14.3894 12.4494 14.4694 12.2194 14.4494C11.9994 14.4294 11.7994 14.3094 11.6694 14.1194L10.5794 12.4794L8.02945 15.0294C7.87945 15.1794 7.68945 15.2494 7.49945 15.2494Z" fill="#27AE60"/>
<path d="M16.5 12.25C16.09 12.25 15.75 11.91 15.75 11.5V10.25H14.5C14.09 10.25 13.75 9.91 13.75 9.5C13.75 9.09 14.09 8.75 14.5 8.75H16.5C16.91 8.75 17.25 9.09 17.25 9.5V11.5C17.25 11.91 16.91 12.25 16.5 12.25Z" fill="#27AE60"/>
<path d="M15 22.75H9C3.57 22.75 1.25 20.43 1.25 15V9C1.25 3.57 3.57 1.25 9 1.25H15C20.43 1.25 22.75 3.57 22.75 9V15C22.75 20.43 20.43 22.75 15 22.75ZM9 2.75C4.39 2.75 2.75 4.39 2.75 9V15C2.75 19.61 4.39 21.25 9 21.25H15C19.61 21.25 21.25 19.61 21.25 15V9C21.25 4.39 19.61 2.75 15 2.75H9Z" fill="#27AE60"/>
</svg>
