<svg width="32" height="32" viewBox="0 0 32 32" fill="none" xmlns="http://www.w3.org/2000/svg">
<path d="M8.94664 23.3227C8.99721 23.2445 9.02879 23.1556 9.03885 23.0631C9.04891 22.9705 9.03718 22.8769 9.00459 22.7897C8.97201 22.7025 8.91947 22.6242 8.85118 22.5609C8.78289 22.4976 8.70074 22.4512 8.6113 22.4254C6.64464 21.8347 4.04464 21.5254 2.77064 21.4014C2.67632 21.3914 2.58096 21.4026 2.49155 21.4343C2.40214 21.4659 2.32096 21.5172 2.25396 21.5843C2.18695 21.6515 2.13583 21.7328 2.10434 21.8222C2.07285 21.9117 2.06179 22.0071 2.07197 22.1014C2.20064 23.33 2.51197 25.8107 3.10197 27.9107C3.12633 28.003 3.17217 28.0881 3.23576 28.1593C3.29934 28.2304 3.37885 28.2855 3.4678 28.32C3.55674 28.3545 3.6526 28.3675 3.74752 28.3579C3.84245 28.3483 3.93375 28.3164 4.01397 28.2647C5.82397 27.1027 7.7913 25.1314 8.94664 23.3227Z" fill="white"/>
<path d="M21.9613 17.2147C22.6176 16.1415 22.8266 14.8536 22.5433 13.628C21.936 10.8527 18.572 9.71866 16.4767 11.5787C16.3107 11.7253 16.1633 11.894 16 12.062C15.8367 11.8933 15.6893 11.7247 15.5233 11.5787C13.428 9.71866 10.064 10.8527 9.45667 13.628C9.17339 14.8536 9.38237 16.1415 10.0387 17.2147C11.1 18.9347 12.7653 20.3013 14.4367 21.5347C14.8898 21.8678 15.4376 22.0475 16 22.0475C16.5624 22.0475 17.1102 21.8678 17.5633 21.5347C19.2353 20.3013 20.9 18.9347 21.9613 17.2147Z" fill="#FF5BEF"/>
<path d="M21.9613 17.2147C22.6176 16.1415 22.8266 14.8536 22.5433 13.628C21.936 10.8527 18.572 9.71866 16.4767 11.5787C16.3107 11.7253 16.1633 11.894 16 12.062C15.8367 11.8933 15.6893 11.7247 15.5233 11.5787C13.428 9.71866 10.064 10.8527 9.45667 13.628C9.17339 14.8536 9.38237 16.1415 10.0387 17.2147C11.1 18.9347 12.7653 20.3013 14.4367 21.5347C14.8898 21.8678 15.4376 22.0475 16 22.0475C16.5624 22.0475 17.1102 21.8678 17.5633 21.5347C19.2353 20.3013 20.9 18.9347 21.9613 17.2147Z" stroke="#5E35F2" stroke-width="2" stroke-linecap="round" stroke-linejoin="round"/>
<path d="M23.0533 8.67666C23.0026 8.75484 22.971 8.8438 22.9608 8.93643C22.9507 9.02906 22.9624 9.12277 22.995 9.21007C23.0276 9.29736 23.0802 9.3758 23.1485 9.43912C23.2169 9.50243 23.2991 9.54885 23.3887 9.57466C25.3553 10.1653 27.9553 10.4747 29.2293 10.5987C29.3236 10.6086 29.4189 10.5972 29.5082 10.5655C29.5975 10.5338 29.6786 10.4825 29.7456 10.4154C29.8125 10.3483 29.8636 10.267 29.895 10.1776C29.9265 10.0882 29.9375 9.9929 29.9273 9.89866C29.7993 8.66999 29.488 6.18933 28.898 4.08933C28.8737 3.99708 28.8278 3.9119 28.7642 3.84076C28.7006 3.76962 28.6211 3.71454 28.5322 3.68001C28.4432 3.64549 28.3474 3.6325 28.2525 3.64212C28.1575 3.65173 28.0662 3.68367 27.986 3.73533C26.176 4.89733 24.208 6.86866 23.0527 8.67666H23.0533Z" fill="white"/>
<path d="M8.94664 23.3227C8.99721 23.2445 9.02879 23.1556 9.03885 23.0631C9.04891 22.9705 9.03718 22.8769 9.00459 22.7897C8.97201 22.7025 8.91947 22.6242 8.85118 22.5609C8.78288 22.4976 8.70074 22.4512 8.6113 22.4254C6.64464 21.8347 4.04464 21.5254 2.77064 21.4014C2.67632 21.3914 2.58096 21.4026 2.49155 21.4343C2.40214 21.4659 2.32096 21.5172 2.25396 21.5843C2.18695 21.6515 2.13583 21.7328 2.10434 21.8222C2.07285 21.9117 2.06179 22.0071 2.07197 22.1014C2.20064 23.33 2.51197 25.8107 3.10197 27.9107C3.12633 28.003 3.17217 28.0881 3.23576 28.1593C3.29934 28.2304 3.37885 28.2855 3.4678 28.32C3.55674 28.3545 3.6526 28.3675 3.74752 28.3579C3.84245 28.3483 3.93375 28.3164 4.01397 28.2647C5.82397 27.1027 7.7913 25.1314 8.94664 23.3227Z" stroke="#5E35F2" stroke-width="2" stroke-linecap="round" stroke-linejoin="round"/>
<path d="M23.0533 8.67666C23.0026 8.75484 22.971 8.8438 22.9608 8.93643C22.9507 9.02906 22.9624 9.12277 22.995 9.21007C23.0276 9.29736 23.0802 9.37581 23.1485 9.43912C23.2169 9.50243 23.2991 9.54885 23.3887 9.57466C25.3553 10.1653 27.9553 10.4747 29.2293 10.5987C29.3236 10.6086 29.4189 10.5972 29.5082 10.5655C29.5975 10.5338 29.6786 10.4825 29.7456 10.4154C29.8125 10.3483 29.8636 10.267 29.895 10.1776C29.9265 10.0882 29.9375 9.9929 29.9273 9.89866C29.7993 8.66999 29.488 6.18933 28.898 4.08933C28.8737 3.99708 28.8278 3.9119 28.7642 3.84076C28.7006 3.76962 28.6211 3.71454 28.5322 3.68001C28.4432 3.64549 28.3474 3.6325 28.2525 3.64212C28.1575 3.65173 28.0662 3.68367 27.986 3.73533C26.176 4.89733 24.208 6.86866 23.0527 8.67666H23.0533Z" stroke="#5E35F2" stroke-width="2" stroke-linecap="round" stroke-linejoin="round"/>
<path d="M6.60333 26.158C9.088 28.5393 12.4453 30 16.1407 30C19.9673 30 23.4327 28.4333 25.9407 25.9C28.5487 23.266 30.0081 19.7067 30 16" stroke="#5E35F2" stroke-width="2" stroke-linecap="round" stroke-linejoin="round"/>
<path d="M25.396 5.842C22.912 3.46067 19.554 2 15.86 2C12.0326 2 8.56797 3.56667 6.05997 6.1C3.45178 8.73397 1.99214 12.2932 1.99997 16" stroke="#5E35F2" stroke-width="2" stroke-linecap="round" stroke-linejoin="round"/>
</svg>
