<svg width="32" height="32" viewBox="0 0 32 32" fill="none" xmlns="http://www.w3.org/2000/svg">
<g clip-path="url(#clip0_3_406)">
<path d="M7.65863 26.4467C7.79396 27.32 7.93463 28.1147 8.05196 28.7427C8.21863 29.626 8.84663 30.3354 9.7353 30.4694C10.4326 30.5754 11.4013 30.6667 12.6666 30.6667C13.87 30.6667 14.8586 30.584 15.6113 30.4854C16.6673 30.3467 17.4073 29.468 17.522 28.4094L17.736 26.4347C17.6774 26.4472 17.6182 26.4565 17.5586 26.4627C16.63 26.56 15.064 26.6667 12.6666 26.6667C10.2693 26.6667 8.7033 26.56 7.77463 26.4627C7.73579 26.4587 7.6971 26.4534 7.65863 26.4467Z" fill="white"/>
<path d="M7.65863 26.4467C7.79396 27.32 7.93463 28.1147 8.05196 28.7427C8.21863 29.626 8.84663 30.3354 9.7353 30.4694C10.4326 30.5754 11.4013 30.6667 12.6666 30.6667C13.87 30.6667 14.8586 30.584 15.6113 30.4854C16.6673 30.3467 17.4073 29.468 17.522 28.4094L17.736 26.4347" stroke="#5E35F2" stroke-width="2" stroke-linecap="round" stroke-linejoin="round"/>
<path fill-rule="evenodd" clip-rule="evenodd" d="M17.8933 3.94129L16.9633 4.44996C14.42 5.84063 14.42 9.49263 16.9633 10.8833L19.3913 12.2113C19.559 12.303 19.6969 12.4409 19.7887 12.6086L21.116 15.0366C21.3713 15.5117 21.7297 15.9236 22.165 16.2421C22.6002 16.5606 23.1013 16.7777 23.6313 16.8773C23.0016 19.2721 21.6054 21.3951 19.656 22.922C19.461 23.701 19.2449 24.4746 19.008 25.242C18.804 25.9073 18.2513 26.3906 17.5587 26.4633C16.63 26.56 15.064 26.6666 12.6667 26.6666C10.2693 26.6666 8.70332 26.56 7.77465 26.4633C7.08199 26.3906 6.52932 25.9073 6.32465 25.2413C6.0882 24.4742 5.87257 23.7008 5.67799 22.922C4.32319 21.8629 3.22772 20.5089 2.47486 18.9629C1.72201 17.4169 1.3316 15.7195 1.33332 14C1.33332 7.74063 6.40732 2.66663 12.6667 2.66663C14.552 2.66663 16.3293 3.12663 17.8933 3.94129Z" fill="#FF5BEF"/>
<path d="M23.7487 1.73599C23.8061 1.63114 23.8907 1.54366 23.9936 1.48273C24.0964 1.4218 24.2138 1.38965 24.3333 1.38965C24.4529 1.38965 24.5703 1.4218 24.6731 1.48273C24.776 1.54366 24.8606 1.63114 24.918 1.73599L26.246 4.16399C26.6131 4.83512 27.1649 5.38692 27.836 5.75399L30.264 7.08199C30.3689 7.13943 30.4563 7.22402 30.5173 7.32688C30.5782 7.42974 30.6103 7.5471 30.6103 7.66666C30.6103 7.78621 30.5782 7.90357 30.5173 8.00643C30.4563 8.10929 30.3689 8.19388 30.264 8.25132L27.836 9.57932C27.1649 9.94638 26.6131 10.4982 26.246 11.1693L24.918 13.5973C24.8606 13.7022 24.776 13.7896 24.6731 13.8506C24.5703 13.9115 24.4529 13.9437 24.3333 13.9437C24.2138 13.9437 24.0964 13.9115 23.9936 13.8506C23.8907 13.7896 23.8061 13.7022 23.7487 13.5973L22.4207 11.1693C22.0536 10.4982 21.5018 9.94638 20.8307 9.57932L18.4027 8.25132C18.2978 8.19388 18.2104 8.10929 18.1494 8.00643C18.0885 7.90357 18.0563 7.78621 18.0563 7.66666C18.0563 7.5471 18.0885 7.42974 18.1494 7.32688C18.2104 7.22402 18.2978 7.13943 18.4027 7.08199L20.8307 5.75399C21.5018 5.38692 22.0536 4.83512 22.4207 4.16399L23.7487 1.73599Z" fill="white"/>
<path d="M23.7487 1.73599C23.8061 1.63114 23.8907 1.54366 23.9936 1.48273C24.0964 1.4218 24.2138 1.38965 24.3333 1.38965C24.4529 1.38965 24.5703 1.4218 24.6731 1.48273C24.776 1.54366 24.8606 1.63114 24.918 1.73599L26.246 4.16399C26.6131 4.83512 27.1649 5.38693 27.836 5.75399L30.264 7.08199C30.3689 7.13943 30.4563 7.22402 30.5173 7.32688C30.5782 7.42974 30.6103 7.5471 30.6103 7.66665C30.6103 7.78621 30.5782 7.90357 30.5173 8.00643C30.4563 8.10929 30.3689 8.19388 30.264 8.25132L27.836 9.57932C27.1649 9.94638 26.6131 10.4982 26.246 11.1693L24.918 13.5973C24.8606 13.7022 24.776 13.7896 24.6731 13.8506C24.5703 13.9115 24.4529 13.9437 24.3333 13.9437C24.2138 13.9437 24.0964 13.9115 23.9936 13.8506C23.8907 13.7896 23.8061 13.7022 23.7487 13.5973L22.4207 11.1693C22.0536 10.4982 21.5018 9.94638 20.8307 9.57932L18.4027 8.25132C18.2978 8.19388 18.2104 8.10929 18.1494 8.00643C18.0885 7.90357 18.0563 7.78621 18.0563 7.66665C18.0563 7.5471 18.0885 7.42974 18.1494 7.32688C18.2104 7.22402 18.2978 7.13943 18.4027 7.08199L20.8307 5.75399C21.5018 5.38693 22.0536 4.83512 22.4207 4.16399L23.7487 1.73599Z" stroke="#5E35F2" stroke-width="2"/>
<path d="M17 3.52463C15.626 2.95634 14.1535 2.66477 12.6666 2.66663C6.40731 2.66663 1.33331 7.74063 1.33331 14C1.33331 17.622 3.03265 20.8473 5.67731 22.922C5.8721 23.701 6.08796 24.4746 6.32465 25.242C6.52931 25.9073 7.08198 26.3906 7.77465 26.4633C8.70331 26.56 10.2693 26.6666 12.6666 26.6666C15.064 26.6666 16.63 26.56 17.5586 26.4633C18.2513 26.3906 18.804 25.9073 19.008 25.2413C19.1993 24.6193 19.4413 23.788 19.656 22.922C21.3387 21.6032 22.6151 19.8364 23.3386 17.8246" stroke="#5E35F2" stroke-width="2" stroke-linecap="round" stroke-linejoin="round"/>
</g>
<defs>
<clipPath id="clip0_3_406">
<rect width="32" height="32" fill="white"/>
</clipPath>
</defs>
</svg>
