<svg width="32" height="32" viewBox="0 0 32 32" fill="none" xmlns="http://www.w3.org/2000/svg">
<path d="M2 16C2 16.5304 2.21071 17.0391 2.58579 17.4142C2.96086 17.7893 3.46957 18 4 18C4.53043 18 5.03914 17.7893 5.41421 17.4142C5.78929 17.0391 6 16.5304 6 16C6 15.4696 5.78929 14.9609 5.41421 14.5858C5.03914 14.2107 4.53043 14 4 14C3.46957 14 2.96086 14.2107 2.58579 14.5858C2.21071 14.9609 2 15.4696 2 16Z" fill="#F5F7F9"/>
<path d="M5.33333 6C5.33333 6.26264 5.38506 6.52272 5.48557 6.76537C5.58608 7.00802 5.7334 7.2285 5.91911 7.41421C6.10483 7.59993 6.32531 7.74725 6.56796 7.84776C6.81061 7.94827 7.07068 8 7.33333 8C7.59597 8 7.85604 7.94827 8.0987 7.84776C8.34135 7.74725 8.56183 7.59993 8.74754 7.41421C8.93326 7.2285 9.08058 7.00802 9.18109 6.76537C9.2816 6.52272 9.33333 6.26264 9.33333 6C9.33333 5.73736 9.2816 5.47728 9.18109 5.23463C9.08058 4.99198 8.93326 4.7715 8.74754 4.58579C8.56183 4.40007 8.34135 4.25275 8.0987 4.15224C7.85604 4.05173 7.59597 4 7.33333 4C7.07068 4 6.81061 4.05173 6.56796 4.15224C6.32531 4.25275 6.10483 4.40007 5.91911 4.58579C5.7334 4.7715 5.58608 4.99198 5.48557 5.23463C5.38506 5.47728 5.33333 5.73736 5.33333 6Z" fill="#F5F7F9"/>
<path d="M4.66667 26.6666C4.66667 27.1971 4.87739 27.7058 5.25246 28.0808C5.62753 28.4559 6.13624 28.6666 6.66667 28.6666C7.1971 28.6666 7.70581 28.4559 8.08089 28.0808C8.45596 27.7058 8.66667 27.1971 8.66667 26.6666C8.66667 26.1362 8.45596 25.6275 8.08089 25.2524C7.70581 24.8773 7.1971 24.6666 6.66667 24.6666C6.13624 24.6666 5.62753 24.8773 5.25246 25.2524C4.87739 25.6275 4.66667 26.1362 4.66667 26.6666Z" fill="#F5F7F9"/>
<path d="M27.3167 13.702C26.9887 7.55196 21.898 2.66663 15.6667 2.66663V30.6666H21.3333V26.2246L24.4453 26.7493C24.7181 26.7953 24.9974 26.7842 25.2656 26.7167C25.5338 26.6492 25.7852 26.5269 26.0037 26.3573C26.2222 26.1878 26.4032 25.9748 26.5352 25.7317C26.6672 25.4887 26.7474 25.2209 26.7707 24.9453L27.1533 20.404C28.3867 20.1273 29.2733 19.6813 29.8487 19.3093C30.3647 18.976 30.4247 18.3026 30.0807 17.7933L27.3167 13.702Z" fill="#FF5BEF"/>
<path d="M21.3333 29.6666V26.2246L24.4453 26.7493C24.7181 26.7953 24.9974 26.7842 25.2656 26.7167C25.5338 26.6492 25.7852 26.5269 26.0037 26.3573C26.2222 26.1878 26.4032 25.9748 26.5352 25.7317C26.6672 25.4887 26.7474 25.2209 26.7707 24.9453L27.1533 20.404C28.3867 20.1273 29.2733 19.6813 29.8487 19.3093C30.3647 18.976 30.4247 18.3026 30.0807 17.7933L27.3167 13.702C26.9887 7.55196 21.898 2.66663 15.6667 2.66663V29.6666" stroke="#5E35F2" stroke-width="2" stroke-linecap="round" stroke-linejoin="round"/>
<path d="M2 16C2 16.5304 2.21071 17.0391 2.58579 17.4142C2.96086 17.7893 3.46957 18 4 18C4.53043 18 5.03914 17.7893 5.41421 17.4142C5.78929 17.0391 6 16.5304 6 16C6 15.4696 5.78929 14.9609 5.41421 14.5858C5.03914 14.2107 4.53043 14 4 14C3.46957 14 2.96086 14.2107 2.58579 14.5858C2.21071 14.9609 2 15.4696 2 16Z" stroke="#5E35F2" stroke-width="2"/>
<path d="M5.33333 6C5.33333 6.26264 5.38506 6.52272 5.48557 6.76537C5.58608 7.00802 5.7334 7.2285 5.91911 7.41421C6.10483 7.59993 6.32531 7.74725 6.56796 7.84776C6.81061 7.94827 7.07068 8 7.33333 8C7.59597 8 7.85604 7.94827 8.0987 7.84776C8.34135 7.74725 8.56182 7.59993 8.74754 7.41421C8.93326 7.2285 9.08058 7.00802 9.18109 6.76537C9.2816 6.52272 9.33333 6.26264 9.33333 6C9.33333 5.73736 9.2816 5.47728 9.18109 5.23463C9.08058 4.99198 8.93326 4.7715 8.74754 4.58579C8.56182 4.40007 8.34135 4.25275 8.0987 4.15224C7.85604 4.05173 7.59597 4 7.33333 4C7.07068 4 6.81061 4.05173 6.56796 4.15224C6.32531 4.25275 6.10483 4.40007 5.91911 4.58579C5.7334 4.7715 5.58608 4.99198 5.48557 5.23463C5.38506 5.47728 5.33333 5.73736 5.33333 6Z" stroke="#5E35F2" stroke-width="2"/>
<path d="M4.66667 26.6666C4.66667 27.1971 4.87739 27.7058 5.25246 28.0808C5.62753 28.4559 6.13624 28.6666 6.66667 28.6666C7.1971 28.6666 7.70581 28.4559 8.08089 28.0808C8.45596 27.7058 8.66667 27.1971 8.66667 26.6666C8.66667 26.1362 8.45596 25.6275 8.08089 25.2524C7.70581 24.8773 7.1971 24.6666 6.66667 24.6666C6.13624 24.6666 5.62753 24.8773 5.25246 25.2524C4.87739 25.6275 4.66667 26.1362 4.66667 26.6666Z" stroke="#5E35F2" stroke-width="2"/>
<path d="M6 16H15.6667" stroke="#5E35F2" stroke-width="2" stroke-linecap="round" stroke-linejoin="round"/>
<path d="M15.6667 10.6666H12L9 7.66663" stroke="#5E35F2" stroke-width="2" stroke-linecap="round" stroke-linejoin="round"/>
<path d="M15.6667 22H11.3333L8.33333 25" stroke="#5E35F2" stroke-width="2" stroke-linecap="round" stroke-linejoin="round"/>
</svg>
