<svg width="20" height="20" viewBox="0 0 20 20" fill="none" xmlns="http://www.w3.org/2000/svg">
<g clip-path="url(#clip0_453_11435)">
<path d="M18.75 10C18.75 14.8325 14.8325 18.75 10 18.75C5.1675 18.75 1.25 14.8325 1.25 10C1.25 5.1675 5.1675 1.25 10 1.25C14.8325 1.25 18.75 5.1675 18.75 10Z" fill="#05E4F2"/>
<path d="M16.25 10C16.25 13.4517 13.4517 16.25 10 16.25C6.54833 16.25 3.75 13.4517 3.75 10C3.75 6.54833 6.54833 3.75 10 3.75C13.4517 3.75 16.25 6.54833 16.25 10Z" fill="#F5F7F9"/>
<path d="M1.25 10C1.25 12.3206 2.17187 14.5462 3.81282 16.1872C5.45376 17.8281 7.67936 18.75 10 18.75C12.3206 18.75 14.5462 17.8281 16.1872 16.1872C17.8281 14.5462 18.75 12.3206 18.75 10C18.75 7.67936 17.8281 5.45376 16.1872 3.81282C14.5462 2.17187 12.3206 1.25 10 1.25C7.67936 1.25 5.45376 2.17187 3.81282 3.81282C2.17187 5.45376 1.25 7.67936 1.25 10Z" stroke="#5E35F2" stroke-linecap="round" stroke-linejoin="round"/>
<path d="M3.75 10C3.75 11.6576 4.40848 13.2473 5.58058 14.4194C6.75268 15.5915 8.3424 16.25 10 16.25C11.6576 16.25 13.2473 15.5915 14.4194 14.4194C15.5915 13.2473 16.25 11.6576 16.25 10C16.25 8.3424 15.5915 6.75268 14.4194 5.58058C13.2473 4.40848 11.6576 3.75 10 3.75C8.3424 3.75 6.75268 4.40848 5.58058 5.58058C4.40848 6.75268 3.75 8.3424 3.75 10Z" stroke="#5E35F2" stroke-linecap="round" stroke-linejoin="round"/>
<path d="M10 6.25V10L12.5 12.5" stroke="#5E35F2" stroke-linecap="round" stroke-linejoin="round"/>
</g>
<defs>
<clipPath id="clip0_453_11435">
<rect width="20" height="20" fill="white"/>
</clipPath>
</defs>
</svg>
