<svg width="16" height="17" viewBox="0 0 16 17" fill="none" xmlns="http://www.w3.org/2000/svg">
<g clip-path="url(#clip0_379_42852)">
<path d="M11.2875 10.1699L7.48488 13.9726C6.91322 14.5443 6.17855 14.9606 5.37022 14.9356C4.59322 14.9113 4.00788 14.7643 4.00788 14.7643L2.26122 15.4976C1.66555 15.7343 0.767217 14.8353 1.00288 14.2399L1.70622 12.4633C1.70622 12.4633 1.55422 11.8573 1.54355 11.0696C1.53355 10.2973 1.94088 9.60294 2.48688 9.05727L6.33288 5.21094L11.2875 10.1699Z" fill="white"/>
<path d="M13.6921 2.80931C12.2088 1.32398 9.80444 1.32398 8.32144 2.80931L7.70744 3.42431L7.52411 3.25431C7.11944 2.88198 6.56744 2.81765 6.16944 3.19665C6.0801 3.28161 5.99296 3.36886 5.90811 3.45831C5.52978 3.85731 5.59411 4.40998 5.96544 4.81498C6.45711 5.35165 7.31644 6.25865 8.74544 7.68998C10.1744 9.12165 11.0801 9.98231 11.6154 10.4746C12.0201 10.847 12.5721 10.9113 12.9701 10.5323C13.0594 10.4473 13.1466 10.3601 13.2314 10.2706C13.6098 9.87165 13.5454 9.31898 13.1741 8.91398C13.1428 8.87965 13.1101 8.84398 13.0758 8.80731L13.6924 8.18998C15.1758 6.70398 15.1758 4.29498 13.6921 2.80931Z" fill="#05E4F2" fill-opacity="0.2"/>
<path d="M11.2872 10.1699L7.48488 13.9726C6.91288 14.5443 6.17855 14.9606 5.37022 14.9356C4.59288 14.9113 4.00755 14.7643 4.00755 14.7643L2.26088 15.4976C1.66555 15.7343 0.767217 14.8353 1.00288 14.2399L1.70622 12.4633C1.70622 12.4633 1.55422 11.8573 1.54355 11.0696C1.53355 10.2973 1.94088 9.60294 2.48688 9.05727L6.33288 5.21094" stroke="#5E35F2" stroke-linecap="round" stroke-linejoin="round"/>
<path d="M6.50019 7.70996L4.74219 9.46829" stroke="#5E35F2" stroke-linecap="round" stroke-linejoin="round"/>
<path d="M13.6922 2.80931C12.2089 1.32398 9.80456 1.32398 8.32156 2.80931L7.70756 3.42431L7.52422 3.25431C7.11956 2.88198 6.56756 2.81765 6.16956 3.19665C6.08027 3.28167 5.99314 3.36892 5.90822 3.45831C5.52989 3.85731 5.59389 4.40998 5.96556 4.81498C6.45722 5.35165 7.31656 6.25865 8.74556 7.68998C10.1746 9.12165 11.0802 9.98231 11.6156 10.4746C12.0199 10.847 12.5722 10.9113 12.9702 10.5323C13.0595 10.4473 13.1466 10.36 13.2316 10.2706C13.6099 9.87165 13.5456 9.31898 13.1739 8.91398C13.1429 8.87965 13.1102 8.84398 13.0759 8.80731L13.6922 8.18998C15.1756 6.70398 15.1756 4.29498 13.6922 2.80931Z" stroke="#5E35F2" stroke-linecap="round" stroke-linejoin="round"/>
</g>
<defs>
<clipPath id="clip0_379_42852">
<rect width="16" height="16" fill="white" transform="translate(0 0.5)"/>
</clipPath>
</defs>
</svg>
