<svg width="36" height="36" viewBox="0 0 36 36" fill="none" xmlns="http://www.w3.org/2000/svg">
<path d="M27.6825 2.6145C29.592 2.78175 31.02 4.2735 31.1527 6.186C31.3215 8.60625 31.5 12.471 31.5 18C31.5 23.5282 31.3215 27.3937 31.1527 29.814C31.02 31.7265 29.592 33.2183 27.6825 33.3855C25.59 33.57 22.4137 33.75 18 33.75C13.5863 33.75 10.4093 33.57 8.3175 33.3855C6.408 33.2183 4.98 31.7265 4.84725 29.814C4.6785 27.3937 4.5 23.529 4.5 18C4.5 12.4718 4.6785 8.60625 4.84725 6.186C4.98 4.2735 6.408 2.78175 8.3175 2.6145C10.41 2.43 13.5863 2.25 18 2.25C22.4137 2.25 25.5907 2.43 27.6825 2.6145Z" fill="white"/>
<path d="M4.5 18C4.5 23.5282 4.6785 27.3937 4.84725 29.814C4.98 31.7265 6.408 33.2183 8.3175 33.3855C10.41 33.57 13.5863 33.75 18 33.75C22.4137 33.75 25.5907 33.57 27.6825 33.3855C29.592 33.2183 31.02 31.7265 31.1527 29.814C31.3215 27.3937 31.5 23.529 31.5 18H4.5Z" fill="#05E4F2"/>
<path d="M31.0881 30.3139C30.7626 31.9811 29.4231 33.2329 27.6831 33.3859C25.5906 33.5704 22.4144 33.7504 18.0006 33.7504C15.7581 33.7504 13.8359 33.7039 12.2129 33.6341C13.2491 32.5305 14.3035 31.4441 15.3756 30.3754C18.2114 27.5389 20.0759 25.8604 21.2331 24.8899C22.2261 24.0574 23.5394 23.9374 24.6051 24.6724C25.9229 25.5821 28.0304 27.2621 31.0881 30.3139Z" fill="white"/>
<path d="M13.5 24.75C13.5 25.3467 13.2629 25.919 12.841 26.341C12.419 26.7629 11.8467 27 11.25 27C10.6533 27 10.081 26.7629 9.65901 26.341C9.23705 25.919 9 25.3467 9 24.75C9 24.1533 9.23705 23.581 9.65901 23.159C10.081 22.7371 10.6533 22.5 11.25 22.5C11.8467 22.5 12.419 22.7371 12.841 23.159C13.2629 23.581 13.5 24.1533 13.5 24.75Z" fill="white"/>
<path d="M9.75 12.75H26.25" stroke="#5E35F2" stroke-width="2" stroke-linecap="round" stroke-linejoin="round"/>
<path d="M9.75 7.875H18.75" stroke="#5E35F2" stroke-width="2" stroke-linecap="round" stroke-linejoin="round"/>
<path d="M27.6825 2.6145C29.592 2.78175 31.02 4.2735 31.1527 6.186C31.3215 8.60625 31.5 12.471 31.5 18C31.5 23.5282 31.3215 27.3937 31.1527 29.814C31.02 31.7265 29.592 33.2182 27.6825 33.3855C25.59 33.57 22.4138 33.75 18 33.75C13.5862 33.75 10.4093 33.57 8.3175 33.3855C6.408 33.2182 4.98 31.7265 4.84725 29.814C4.6785 27.3937 4.5 23.529 4.5 18C4.5 12.4718 4.6785 8.60625 4.84725 6.186C4.98 4.2735 6.408 2.78175 8.3175 2.6145C10.41 2.43 13.5862 2.25 18 2.25C22.4138 2.25 25.5907 2.43 27.6825 2.6145Z" stroke="#5E35F2" stroke-width="2" stroke-linecap="round" stroke-linejoin="round"/>
<path d="M31.0881 30.3131C28.0304 27.2606 25.9229 25.5806 24.6051 24.6724C23.5401 23.9374 22.2261 24.0574 21.2339 24.8899C20.0759 25.8596 18.2114 27.5381 15.3756 30.3746C14.3035 31.4434 13.2491 32.5298 12.2129 33.6334" stroke="#5E35F2" stroke-width="2" stroke-linecap="round" stroke-linejoin="round"/>
<path d="M13.5 24.75C13.5 25.3467 13.2629 25.919 12.841 26.341C12.419 26.7629 11.8467 27 11.25 27C10.6533 27 10.081 26.7629 9.65901 26.341C9.23705 25.919 9 25.3467 9 24.75C9 24.1533 9.23705 23.581 9.65901 23.159C10.081 22.7371 10.6533 22.5 11.25 22.5C11.8467 22.5 12.419 22.7371 12.841 23.159C13.2629 23.581 13.5 24.1533 13.5 24.75Z" stroke="#5E35F2" stroke-width="2" stroke-linecap="round" stroke-linejoin="round"/>
<path d="M31.5 18H4.5" stroke="#5E35F2" stroke-width="2" stroke-linecap="round" stroke-linejoin="round"/>
</svg>
