<svg width="36" height="36" viewBox="0 0 36 36" fill="none" xmlns="http://www.w3.org/2000/svg">
<path d="M32.7097 30.2625C32.5237 32.0077 31.1385 33.2542 29.3888 33.387C27.105 33.5625 23.3865 33.75 18 33.75C12.6135 33.75 8.895 33.5617 6.61125 33.3877C4.8615 33.2542 3.47625 32.0078 3.29025 30.2633C3.135 28.8105 3 26.7555 3 24C3 21.2445 3.135 19.1895 3.29025 17.7375C3.47625 15.9922 4.8615 14.7457 6.61125 14.613C8.895 14.4375 12.6135 14.25 18 14.25C23.3865 14.25 27.105 14.4382 29.3888 14.6122C31.1385 14.7457 32.5237 15.9923 32.7097 17.7368C32.865 19.1895 33 21.2445 33 24C33 26.7555 32.865 28.8105 32.7097 30.2625Z" fill="#F5F7F9"/>
<path d="M20.9803 18.7796L20.6698 7.21313C20.6436 6.24488 19.9956 5.39813 19.0318 5.30213C18.3468 5.23392 17.6566 5.23392 16.9716 5.30213C16.0071 5.39888 15.3591 6.24488 15.3328 7.21388L15.0223 18.7796C14.2412 18.7951 13.4604 18.8218 12.6801 18.8599C11.1981 18.9341 10.5898 20.3374 11.5731 21.4481C12.0786 22.0181 12.7123 22.7021 13.5006 23.5061C14.9841 25.0174 16.1001 25.8881 16.8501 26.3824C17.1899 26.6127 17.5909 26.7358 18.0013 26.7358C18.4118 26.7358 18.8128 26.6127 19.1526 26.3824C19.9026 25.8881 21.0186 25.0174 22.5013 23.5061C23.1612 22.8368 23.8039 22.1509 24.4288 21.4489C25.4121 20.3374 24.8038 18.9341 23.3211 18.8599C22.6783 18.8276 21.9058 18.7999 20.9803 18.7796Z" fill="#05E4F2"/>
<path d="M24.75 14.3633C26.297 14.4156 27.8428 14.4989 29.3865 14.613C31.1362 14.7465 32.523 15.993 32.7097 17.7375C32.865 19.1903 33 21.2453 33 24C33 26.7563 32.865 28.8113 32.7097 30.264C32.5237 32.0085 31.1385 33.255 29.3888 33.3878C27.105 33.5618 23.3865 33.7508 18 33.7508C12.6135 33.7508 8.895 33.5618 6.61125 33.3878C4.8615 33.255 3.47625 32.0085 3.29025 30.264C3.135 28.8113 3 26.7563 3 24.0008C3 21.2453 3.135 19.1903 3.29025 17.7383C3.47625 15.993 4.86375 14.7458 6.61275 14.613C8.15668 14.4989 9.70274 14.4156 11.25 14.3633" stroke="#5E35F2" stroke-width="2" stroke-linecap="round" stroke-linejoin="round"/>
<path d="M20.9803 18.7796L20.6698 7.21313C20.6436 6.24488 19.9956 5.39813 19.0318 5.30213C18.3468 5.23392 17.6566 5.23392 16.9716 5.30213C16.0071 5.39888 15.3591 6.24488 15.3328 7.21388L15.0223 18.7796C14.2412 18.7951 13.4604 18.8218 12.6801 18.8599C11.1981 18.9341 10.5898 20.3374 11.5731 21.4481C12.0786 22.0181 12.7123 22.7021 13.5006 23.5061C14.9841 25.0174 16.1001 25.8881 16.8501 26.3824C17.1899 26.6127 17.5909 26.7358 18.0013 26.7358C18.4118 26.7358 18.8128 26.6127 19.1526 26.3824C19.9026 25.8881 21.0186 25.0174 22.5013 23.5061C23.1612 22.8368 23.8039 22.1509 24.4288 21.4489C25.4121 20.3374 24.8038 18.9341 23.3211 18.8599C22.6783 18.8276 21.9058 18.7999 20.9803 18.7796Z" stroke="#5E35F2" stroke-width="2" stroke-linecap="round" stroke-linejoin="round"/>
</svg>
