<svg width="36" height="36" viewBox="0 0 36 36" fill="none" xmlns="http://www.w3.org/2000/svg">
<path d="M2.25487 4.146C2.29012 3.0465 3.24261 2.25 4.34286 2.25H7.48537C8.28147 2.24983 9.05697 2.50303 9.6996 2.97294C10.3422 3.44284 10.8186 4.10507 11.0599 4.86375L12.3739 9H30.3589C32.1596 9 33.5561 10.578 33.2306 12.3495C32.6209 15.6705 31.7096 19.194 30.6881 22.0972C30.2524 23.3325 29.2279 24.2317 27.9281 24.3967C26.5286 24.5752 24.3109 24.75 20.9981 24.75C17.7836 24.75 15.5306 24.585 14.0516 24.4125C12.5891 24.2422 11.4491 23.1938 11.0051 21.789C9.37086 16.6275 8.28787 12.045 6.74887 6.75H4.34137C3.24337 6.75 2.29087 5.9535 2.25562 4.854C2.24813 4.61806 2.24813 4.38194 2.25562 4.146H2.25487Z" fill="#05E4F2"/>
<path d="M25.5 30.75C25.5 31.5456 25.8161 32.3087 26.3787 32.8713C26.9413 33.4339 27.7044 33.75 28.5 33.75C29.2956 33.75 30.0587 33.4339 30.6213 32.8713C31.1839 32.3087 31.5 31.5456 31.5 30.75C31.5 29.9544 31.1839 29.1913 30.6213 28.6287C30.0587 28.0661 29.2956 27.75 28.5 27.75C27.7044 27.75 26.9413 28.0661 26.3787 28.6287C25.8161 29.1913 25.5 29.9544 25.5 30.75Z" fill="#F5F7F9"/>
<path d="M10.5 30.75C10.5 31.5456 10.8161 32.3087 11.3787 32.8713C11.9413 33.4339 12.7044 33.75 13.5 33.75C14.2956 33.75 15.0587 33.4339 15.6213 32.8713C16.1839 32.3087 16.5 31.5456 16.5 30.75C16.5 29.9544 16.1839 29.1913 15.6213 28.6287C15.0587 28.0661 14.2956 27.75 13.5 27.75C12.7044 27.75 11.9413 28.0661 11.3787 28.6287C10.8161 29.1913 10.5 29.9544 10.5 30.75Z" fill="#F5F7F9"/>
<path d="M2.2556 4.146C2.29085 3.0465 3.24335 2.25 4.3436 2.25H7.4861C8.28221 2.24983 9.05771 2.50303 9.70034 2.97294C10.343 3.44284 10.8194 4.10507 11.0606 4.86375L12.3754 9H30.3604C32.1619 9 33.5576 10.578 33.2321 12.3495C32.6224 15.6705 31.7119 19.194 30.6896 22.0972C30.2539 23.3325 29.2294 24.2317 27.9296 24.3967C26.5301 24.5752 24.3124 24.75 20.9996 24.75C17.7851 24.75 15.5321 24.585 14.0531 24.4125C12.5906 24.2422 11.4506 23.1938 11.0066 21.789C9.3716 16.6275 8.28785 12.045 6.75035 6.75H4.34285C3.24335 6.75 2.29085 5.9535 2.2556 4.854C2.24813 4.61806 2.24813 4.38194 2.2556 4.146Z" stroke="#5E35F2" stroke-width="2" stroke-linecap="round" stroke-linejoin="round"/>
<path d="M25.5 30.75C25.5 31.5456 25.8161 32.3087 26.3787 32.8713C26.9413 33.4339 27.7044 33.75 28.5 33.75C29.2956 33.75 30.0587 33.4339 30.6213 32.8713C31.1839 32.3087 31.5 31.5456 31.5 30.75C31.5 29.9544 31.1839 29.1913 30.6213 28.6287C30.0587 28.0661 29.2956 27.75 28.5 27.75C27.7044 27.75 26.9413 28.0661 26.3787 28.6287C25.8161 29.1913 25.5 29.9544 25.5 30.75Z" stroke="#5E35F2" stroke-width="2" stroke-linecap="round" stroke-linejoin="round"/>
<path d="M10.5 30.75C10.5 31.5456 10.8161 32.3087 11.3787 32.8713C11.9413 33.4339 12.7044 33.75 13.5 33.75C14.2956 33.75 15.0587 33.4339 15.6213 32.8713C16.1839 32.3087 16.5 31.5456 16.5 30.75C16.5 29.9544 16.1839 29.1913 15.6213 28.6287C15.0587 28.0661 14.2956 27.75 13.5 27.75C12.7044 27.75 11.9413 28.0661 11.3787 28.6287C10.8161 29.1913 10.5 29.9544 10.5 30.75Z" stroke="#5E35F2" stroke-width="2" stroke-linecap="round" stroke-linejoin="round"/>
<path d="M24.75 16.875H17.25" stroke="#5E35F2" stroke-width="2" stroke-linecap="round" stroke-linejoin="round"/>
<path d="M21 13.125V20.625" stroke="#5E35F2" stroke-width="2" stroke-linecap="round" stroke-linejoin="round"/>
</svg>
