<svg width="21" height="21" viewBox="0 0 21 21" fill="none" xmlns="http://www.w3.org/2000/svg">
<path d="M4.45837 14.875C4.62413 14.875 4.78311 14.9408 4.90032 15.0581C5.01753 15.1753 5.08337 15.3342 5.08337 15.5V17.375C5.08337 17.49 5.17671 17.5833 5.29171 17.5833H15.7084C15.7636 17.5833 15.8166 17.5614 15.8557 17.5223C15.8948 17.4832 15.9167 17.4303 15.9167 17.375V15.5C15.9167 15.3342 15.9826 15.1753 16.0998 15.0581C16.217 14.9408 16.3759 14.875 16.5417 14.875C16.7075 14.875 16.8664 14.9408 16.9836 15.0581C17.1009 15.1753 17.1667 15.3342 17.1667 15.5V17.375C17.1667 17.7618 17.0131 18.1327 16.7396 18.4062C16.4661 18.6797 16.0951 18.8333 15.7084 18.8333H5.29171C4.90493 18.8333 4.534 18.6797 4.26051 18.4062C3.98702 18.1327 3.83337 17.7618 3.83337 17.375V15.5C3.83337 15.3342 3.89922 15.1753 4.01643 15.0581C4.13364 14.9408 4.29261 14.875 4.45837 14.875Z" fill="#000425"/>
<path d="M4.85 8.80768C4.90797 8.74963 4.97682 8.70357 5.0526 8.67215C5.12839 8.64073 5.20962 8.62455 5.29167 8.62455C5.37371 8.62455 5.45494 8.64073 5.53073 8.67215C5.60651 8.70357 5.67536 8.74963 5.73333 8.80768L9.875 12.9485V2.79102C9.875 2.62526 9.94085 2.46628 10.0581 2.34907C10.1753 2.23186 10.3342 2.16602 10.5 2.16602C10.6658 2.16602 10.8247 2.23186 10.9419 2.34907C11.0592 2.46628 11.125 2.62526 11.125 2.79102V12.9485L15.2667 8.80768C15.3838 8.69055 15.5427 8.62474 15.7083 8.62474C15.874 8.62474 16.0329 8.69055 16.15 8.80768C16.2671 8.92482 16.3329 9.08369 16.3329 9.24935C16.3329 9.41501 16.2671 9.57388 16.15 9.69102L10.9417 14.8993C10.8837 14.9574 10.8148 15.0035 10.7391 15.0349C10.6633 15.0663 10.582 15.0825 10.5 15.0825C10.418 15.0825 10.3367 15.0663 10.2609 15.0349C10.1851 15.0035 10.1163 14.9574 10.0583 14.8993L4.85 9.69102C4.79195 9.63304 4.74589 9.5642 4.71447 9.48841C4.68304 9.41263 4.66687 9.33139 4.66687 9.24935C4.66687 9.16731 4.68304 9.08607 4.71447 9.01028C4.74589 8.9345 4.79195 8.86565 4.85 8.80768Z" fill="#000425"/>
</svg>
