<svg width="21" height="21" viewBox="0 0 21 21" fill="none" xmlns="http://www.w3.org/2000/svg">
<path d="M4.45825 14.875C4.62401 14.875 4.78298 14.9408 4.90019 15.0581C5.0174 15.1753 5.08325 15.3342 5.08325 15.5V17.375C5.08325 17.49 5.17659 17.5833 5.29159 17.5833H15.7083C15.7635 17.5833 15.8165 17.5614 15.8556 17.5223C15.8946 17.4832 15.9166 17.4303 15.9166 17.375V15.5C15.9166 15.3342 15.9824 15.1753 16.0996 15.0581C16.2169 14.9408 16.3758 14.875 16.5416 14.875C16.7073 14.875 16.8663 14.9408 16.9835 15.0581C17.1007 15.1753 17.1666 15.3342 17.1666 15.5V17.375C17.1666 17.7618 17.0129 18.1327 16.7394 18.4062C16.466 18.6797 16.095 18.8333 15.7083 18.8333H5.29159C4.90481 18.8333 4.53388 18.6797 4.26039 18.4062C3.9869 18.1327 3.83325 17.7618 3.83325 17.375V15.5C3.83325 15.3342 3.8991 15.1753 4.01631 15.0581C4.13352 14.9408 4.29249 14.875 4.45825 14.875Z" fill="white"/>
<path d="M4.85012 8.80768C4.90809 8.74963 4.97694 8.70357 5.05272 8.67215C5.12851 8.64073 5.20975 8.62455 5.29179 8.62455C5.37383 8.62455 5.45507 8.64073 5.53085 8.67215C5.60664 8.70357 5.67548 8.74963 5.73345 8.80768L9.87512 12.9485V2.79102C9.87512 2.62526 9.94097 2.46628 10.0582 2.34907C10.1754 2.23186 10.3344 2.16602 10.5001 2.16602C10.6659 2.16602 10.8249 2.23186 10.9421 2.34907C11.0593 2.46628 11.1251 2.62526 11.1251 2.79102V12.9485L15.2668 8.80768C15.3839 8.69055 15.5428 8.62474 15.7085 8.62474C15.8741 8.62474 16.033 8.69055 16.1501 8.80768C16.2673 8.92482 16.3331 9.08369 16.3331 9.24935C16.3331 9.41501 16.2673 9.57388 16.1501 9.69102L10.9418 14.8993C10.8838 14.9574 10.815 15.0035 10.7392 15.0349C10.6634 15.0663 10.5822 15.0825 10.5001 15.0825C10.4181 15.0825 10.3368 15.0663 10.2611 15.0349C10.1853 15.0035 10.1164 14.9574 10.0585 14.8993L4.85012 9.69102C4.79207 9.63304 4.74601 9.5642 4.71459 9.48841C4.68317 9.41263 4.66699 9.33139 4.66699 9.24935C4.66699 9.16731 4.68317 9.08607 4.71459 9.01028C4.74601 8.9345 4.79207 8.86565 4.85012 8.80768Z" fill="white"/>
</svg>
