<svg width="16" height="17" viewBox="0 0 16 17" fill="none" xmlns="http://www.w3.org/2000/svg">
<path d="M1.17657 13.0034C1.24429 13.7311 1.81171 14.278 2.54029 14.3333C3.57914 14.4117 5.31443 14.5 7.85714 14.5C10.3999 14.5 12.1351 14.4117 13.174 14.3329C13.9026 14.278 14.47 13.7311 14.5377 13.0034C14.6234 12.0816 14.7143 10.6081 14.7143 8.5C14.7143 6.39143 14.6234 4.91843 14.5377 3.99657C14.47 3.26886 13.9026 2.722 13.174 2.66671C12.1351 2.58829 10.4003 2.5 7.85714 2.5C5.314 2.5 3.57914 2.58829 2.54071 2.66714C1.81214 2.722 1.24429 3.26886 1.17657 3.99657C1.09086 4.91843 1 6.39143 1 8.5C1 10.6086 1.09086 12.0816 1.17657 13.0034Z" fill="#676872" fill-opacity="0.2"/>
<path d="M14.7103 7.64457C14.6897 5.98643 14.6126 4.78814 14.5389 3.99657C14.4711 3.26886 13.9033 2.722 13.1747 2.66671C12.1363 2.58829 10.4014 2.5 7.85829 2.5C5.31472 2.5 3.58029 2.58829 2.54143 2.66714C1.81286 2.722 1.245 3.26886 1.17729 3.99657C1.104 4.78814 1.02643 5.98643 1.00586 7.64457C2.70172 8.47429 6.42772 10.2143 7.85829 10.2143C9.28886 10.2143 13.0149 8.47429 14.7103 7.64457Z" fill="#676872" fill-opacity="0.2"/>
<path d="M1.17657 13.0034C1.24429 13.7311 1.81171 14.278 2.54029 14.3333C3.57914 14.4117 5.31443 14.5 7.85714 14.5C10.3999 14.5 12.1351 14.4117 13.174 14.3329C13.9026 14.278 14.47 13.7311 14.5377 13.0034C14.6234 12.0816 14.7143 10.6081 14.7143 8.5C14.7143 6.39143 14.6234 4.91843 14.5377 3.99657C14.47 3.26886 13.9026 2.722 13.174 2.66671C12.1351 2.58829 10.4003 2.5 7.85714 2.5C5.314 2.5 3.57914 2.58829 2.54071 2.66714C1.81214 2.722 1.24429 3.26886 1.17657 3.99657C1.09086 4.91843 1 6.39143 1 8.5C1 10.6086 1.09086 12.0816 1.17657 13.0034Z" stroke="#676872" stroke-linejoin="round"/>
<path d="M1 7.64258C1 7.64258 5.97829 10.214 7.85714 10.214C9.73557 10.214 14.7143 7.64258 14.7143 7.64258" stroke="#676872" stroke-linecap="round" stroke-linejoin="round"/>
</svg>
