<svg width="16" height="17" viewBox="0 0 16 17" fill="none" xmlns="http://www.w3.org/2000/svg">
<path fill-rule="evenodd" clip-rule="evenodd" d="M8 6C7.33696 6 6.70107 6.26339 6.23223 6.73223C5.76339 7.20107 5.5 7.83696 5.5 8.5C5.5 9.16304 5.76339 9.79893 6.23223 10.2678C6.70107 10.7366 7.33696 11 8 11C8.66304 11 9.29893 10.7366 9.76777 10.2678C10.2366 9.79893 10.5 9.16304 10.5 8.5C10.5 7.83696 10.2366 7.20107 9.76777 6.73223C9.29893 6.26339 8.66304 6 8 6ZM6.5 8.5C6.5 8.10218 6.65804 7.72064 6.93934 7.43934C7.22064 7.15804 7.60218 7 8 7C8.39782 7 8.77936 7.15804 9.06066 7.43934C9.34196 7.72064 9.5 8.10218 9.5 8.5C9.5 8.89782 9.34196 9.27936 9.06066 9.56066C8.77936 9.84196 8.39782 10 8 10C7.60218 10 7.22064 9.84196 6.93934 9.56066C6.65804 9.27936 6.5 8.89782 6.5 8.5Z" fill="white"/>
<path fill-rule="evenodd" clip-rule="evenodd" d="M7.99967 2.66699C4.99034 2.66699 2.96301 4.46966 1.78634 5.99833L1.76567 6.02566C1.49901 6.37166 1.25434 6.68966 1.08834 7.06566C0.910341 7.46899 0.833008 7.90833 0.833008 8.50033C0.833008 9.09233 0.910341 9.53166 1.08834 9.93499C1.25501 10.311 1.49967 10.6297 1.76567 10.975L1.78701 11.0023C2.96301 12.531 4.99034 14.3337 7.99967 14.3337C11.009 14.3337 13.0363 12.531 14.213 11.0023L14.2337 10.975C14.5003 10.6297 14.745 10.311 14.911 9.93499C15.089 9.53166 15.1663 9.09233 15.1663 8.50033C15.1663 7.90833 15.089 7.46899 14.911 7.06566C14.7443 6.68966 14.4997 6.37166 14.2337 6.02566L14.2123 5.99833C13.0363 4.46966 11.009 2.66699 7.99967 2.66699ZM2.57967 6.60833C3.66501 5.19699 5.43301 3.66699 7.99967 3.66699C10.5663 3.66699 12.3337 5.19699 13.4197 6.60833C13.713 6.98833 13.8837 7.21499 13.9963 7.46966C14.1017 7.70833 14.1663 7.99966 14.1663 8.50033C14.1663 9.00099 14.1017 9.29233 13.9963 9.53099C13.8837 9.78566 13.7123 10.0123 13.4203 10.3923C12.333 11.8037 10.5663 13.3337 7.99967 13.3337C5.43301 13.3337 3.66567 11.8037 2.57967 10.3923C2.28634 10.0123 2.11567 9.78566 2.00301 9.53099C1.89767 9.29233 1.83301 9.00099 1.83301 8.50033C1.83301 7.99966 1.89767 7.70833 2.00301 7.46966C2.11567 7.21499 2.28767 6.98833 2.57967 6.60833Z" fill="white"/>
</svg>
