<svg width="20" height="21" viewBox="0 0 20 21" fill="none" xmlns="http://www.w3.org/2000/svg">
<path d="M10 3C5.22375 3 2.89167 3.20208 1.89208 3.33042C1.5125 3.37917 1.25 3.70292 1.25 4.08625V5.41958C1.25 5.81958 1.3925 6.20458 1.66917 6.49333C2.45875 7.3175 4.33375 9.14083 7.03167 10.92C7.24625 11.0617 7.3875 11.2933 7.41083 11.5492C7.67583 14.4029 7.91875 16.3521 8.0475 17.3117C8.07358 17.503 8.16837 17.6784 8.31418 17.805C8.45999 17.9317 8.64687 18.001 8.84 18C8.99167 18 9.14 17.9575 9.26917 17.8771L11.3633 16.5704C11.6825 16.3717 11.9187 16.0687 11.9967 15.7008C12.1308 15.0704 12.3458 13.8246 12.5792 11.5496C12.6054 11.2954 12.7458 11.0667 12.9587 10.9262C15.6617 9.14542 17.5404 7.31875 18.3308 6.49292C18.6075 6.20458 18.75 5.81917 18.75 5.41917V4.08583C18.75 3.70292 18.4875 3.37917 18.1079 3.33042C17.1079 3.20208 14.7762 3 10 3Z" fill="#05E4F2" fill-opacity="0.2"/>
<path d="M10 3C5.22375 3 2.89167 3.20208 1.89208 3.33042C1.5125 3.37917 1.25 3.70292 1.25 4.08625V5.41958C1.25 5.81958 1.3925 6.20458 1.66917 6.49333C2.45875 7.3175 4.33375 9.14083 7.03167 10.92C7.24625 11.0617 7.3875 11.2933 7.41083 11.5492C7.67583 14.4029 7.91875 16.3521 8.0475 17.3117C8.07358 17.503 8.16837 17.6784 8.31418 17.805C8.45999 17.9317 8.64687 18.001 8.84 18C8.99167 18 9.14 17.9575 9.26917 17.8771L11.3633 16.5704C11.6825 16.3717 11.9187 16.0687 11.9967 15.7008C12.1308 15.0704 12.3458 13.8246 12.5792 11.5496C12.6054 11.2954 12.7458 11.0667 12.9587 10.9263C15.6617 9.14542 17.5404 7.31875 18.3308 6.49292C18.6075 6.20458 18.75 5.81917 18.75 5.41917V4.08583C18.75 3.70292 18.4875 3.37917 18.1079 3.33042C17.1079 3.20208 14.7762 3 10 3Z" stroke="#5E35F2" stroke-width="2" stroke-linecap="round" stroke-linejoin="round"/>
</svg>
