<svg width="15" height="14" viewBox="0 0 15 14" fill="none" xmlns="http://www.w3.org/2000/svg">
<g clip-path="url(#clip0_846_7816)">
<path d="M7.75 12.6875C7.95234 12.6875 8.48828 12.4906 9.05156 11.3641C9.29219 10.8801 9.5 10.2922 9.65312 9.625H5.84687C6 10.2922 6.20781 10.8801 6.44844 11.3641C7.01172 12.4906 7.54766 12.6875 7.75 12.6875ZM5.63086 8.3125H9.86914C9.91289 7.89414 9.9375 7.45391 9.9375 7C9.9375 6.54609 9.91289 6.10586 9.86914 5.6875H5.63086C5.58711 6.10586 5.5625 6.54609 5.5625 7C5.5625 7.45391 5.58711 7.89414 5.63086 8.3125ZM5.84687 4.375H9.65312C9.5 3.70781 9.29219 3.11992 9.05156 2.63594C8.48828 1.50937 7.95234 1.3125 7.75 1.3125C7.54766 1.3125 7.01172 1.50937 6.44844 2.63594C6.20781 3.11992 6 3.70781 5.84687 4.375ZM11.1871 5.6875C11.2281 6.11133 11.2473 6.55156 11.2473 7C11.2473 7.44844 11.2254 7.88867 11.1871 8.3125H13.2844C13.3828 7.89141 13.4375 7.45117 13.4375 7C13.4375 6.54883 13.3855 6.10859 13.2844 5.6875H11.1898H11.1871ZM12.7949 4.375C12.2098 3.25117 11.2609 2.34883 10.1043 1.82109C10.4898 2.52109 10.7961 3.39336 10.9957 4.375H12.7977H12.7949ZM4.50156 4.375C4.70117 3.39336 5.00742 2.52383 5.39297 1.82109C4.23633 2.34883 3.2875 3.25117 2.70234 4.375H4.5043H4.50156ZM2.21562 5.6875C2.11719 6.10859 2.0625 6.54883 2.0625 7C2.0625 7.45117 2.11445 7.89141 2.21562 8.3125H4.31289C4.27188 7.88867 4.25273 7.44844 4.25273 7C4.25273 6.55156 4.27461 6.11133 4.31289 5.6875H2.21562ZM10.1043 12.1789C11.2609 11.6512 12.2098 10.7488 12.7949 9.625H10.9957C10.7961 10.6066 10.4898 11.4762 10.1043 12.1789ZM5.3957 12.1789C5.01016 11.4789 4.70391 10.6066 4.5043 9.625H2.70234C3.2875 10.7488 4.23633 11.6512 5.39297 12.1789H5.3957ZM7.75 14C5.89348 14 4.11301 13.2625 2.80025 11.9497C1.4875 10.637 0.75 8.85652 0.75 7C0.75 5.14348 1.4875 3.36301 2.80025 2.05025C4.11301 0.737498 5.89348 0 7.75 0C9.60652 0 11.387 0.737498 12.6997 2.05025C14.0125 3.36301 14.75 5.14348 14.75 7C14.75 8.85652 14.0125 10.637 12.6997 11.9497C11.387 13.2625 9.60652 14 7.75 14Z" fill="white"/>
</g>
<defs>
<clipPath id="clip0_846_7816">
<rect width="14" height="14" fill="white" transform="translate(0.75)"/>
</clipPath>
</defs>
</svg>
