<svg width="20" height="21" viewBox="0 0 20 21" fill="none" xmlns="http://www.w3.org/2000/svg">
<g clip-path="url(#clip0_663_1286)">
<path d="M6.96721 1.15827C4.9689 1.8515 3.24556 3.16728 2.05032 4.91233C0.855082 6.65739 0.250946 8.73974 0.326651 10.8535C0.402355 12.9673 1.15391 15.0011 2.47092 16.6562C3.78794 18.3113 5.60099 19.5004 7.64377 20.0489C9.2999 20.4762 11.035 20.495 12.7 20.1036C14.2083 19.7648 15.6028 19.0401 16.7469 18.0005C17.9376 16.8854 18.802 15.4668 19.2469 13.8973C19.7304 12.1905 19.8164 10.3957 19.4985 8.65045H10.1985V12.5083H15.5844C15.4768 13.1236 15.2461 13.7108 14.9062 14.2349C14.5663 14.7589 14.1242 15.2091 13.6063 15.5583C12.9487 15.9935 12.2073 16.2862 11.4297 16.4176C10.6499 16.5627 9.85011 16.5627 9.07033 16.4176C8.27995 16.2544 7.53227 15.9282 6.87502 15.4598C5.819 14.7123 5.02608 13.6503 4.6094 12.4255C4.18579 11.1776 4.18579 9.82486 4.6094 8.57702C4.906 7.70235 5.39632 6.90598 6.04377 6.24733C6.7847 5.47975 7.72273 4.93108 8.75495 4.66151C9.78718 4.39195 10.8737 4.41191 11.8953 4.7192C12.6935 4.96409 13.4233 5.39214 14.0266 5.9692C14.6339 5.36504 15.2401 4.75931 15.8453 4.15202C16.1578 3.82545 16.4985 3.51452 16.8063 3.18014C15.8852 2.32314 14.8042 1.65624 13.625 1.21764C11.4777 0.437939 9.12811 0.416985 6.96721 1.15827Z" fill="#676872"/>
<path d="M6.96758 1.15805C9.1283 0.416264 11.4779 0.436666 13.6254 1.21586C14.8048 1.65744 15.8853 2.32755 16.8051 3.18774C16.4926 3.52211 16.1629 3.83461 15.8441 4.15961C15.2379 4.76482 14.6322 5.36795 14.027 5.96899C13.4237 5.39192 12.6938 4.96387 11.8957 4.71899C10.8744 4.41061 9.78792 4.3895 8.75542 4.65796C7.72292 4.92642 6.78432 5.47408 6.04258 6.24086C5.39513 6.89951 4.90481 7.69589 4.6082 8.57055L1.36914 6.06274C2.52853 3.76361 4.53594 2.00496 6.96758 1.15805Z" fill="#E33629"/>
<path d="M0.510152 8.54688C0.68412 7.68402 0.973161 6.84843 1.36953 6.0625L4.60859 8.57656C4.18498 9.8244 4.18498 11.1772 4.60859 12.425C3.52942 13.2583 2.44974 14.0958 1.36953 14.9375C0.377575 12.963 0.0750466 10.7133 0.510152 8.54688Z" fill="#F8BD00"/>
<path d="M10.198 8.64844H19.498C19.8159 10.3937 19.7299 12.1885 19.2464 13.8953C18.8015 15.4648 17.9371 16.8834 16.7464 17.9984C15.7011 17.1828 14.6511 16.3734 13.6058 15.5578C14.124 15.2082 14.5663 14.7576 14.9063 14.233C15.2462 13.7084 15.4766 13.1205 15.5839 12.5047H10.198C10.1964 11.2203 10.198 9.93437 10.198 8.64844Z" fill="#587DBD"/>
<path d="M1.36719 14.9373C2.4474 14.104 3.52708 13.2665 4.60625 12.4248C5.02376 13.6501 5.81782 14.7121 6.875 15.4592C7.5343 15.9254 8.28359 16.2489 9.075 16.4092C9.85477 16.5542 10.6546 16.5542 11.4344 16.4092C12.2119 16.2778 12.9533 15.985 13.6109 15.5498C14.6562 16.3654 15.7063 17.1748 16.7516 17.9904C15.6076 19.0306 14.2132 19.7559 12.7047 20.0951C11.0397 20.4865 9.30457 20.4678 7.64844 20.0404C6.3386 19.6907 5.11512 19.0742 4.05469 18.2295C2.93239 17.3383 2.01568 16.2153 1.36719 14.9373Z" fill="#319F43"/>
</g>
<defs>
<clipPath id="clip0_663_1286">
<rect width="20" height="20" fill="white" transform="translate(0 0.5)"/>
</clipPath>
</defs>
</svg>
