<svg width="20" height="20" viewBox="0 0 20 20" fill="none" xmlns="http://www.w3.org/2000/svg">
<g clip-path="url(#clip0_2445_19059)">
<path d="M13.9596 7.08333C14.2359 7.08333 14.5009 6.97359 14.6962 6.77824C14.8916 6.58289 15.0013 6.31793 15.0013 6.04167C15.0013 5.7654 14.8916 5.50045 14.6962 5.3051C14.5009 5.10975 14.2359 5 13.9596 5C13.6834 5 13.4184 5.10975 13.2231 5.3051C13.0277 5.50045 12.918 5.7654 12.918 6.04167C12.918 6.31793 13.0277 6.58289 13.2231 6.77824C13.4184 6.97359 13.6834 7.08333 13.9596 7.08333Z" fill="#676872"/>
<path d="M13.125 4.89853e-07C14.118 0.00076934 15.0991 0.216649 16.0007 0.632787C16.9023 1.04893 17.7031 1.65544 18.348 2.41062C18.9928 3.16579 19.4664 4.05169 19.7361 5.00737C20.0059 5.96306 20.0654 6.96584 19.9106 7.94672C19.7558 8.92761 19.3904 9.86332 18.8394 10.6895C18.2885 11.5156 17.5651 12.2126 16.719 12.7325C15.8729 13.2524 14.9243 13.5828 13.9383 13.7011C12.9524 13.8193 11.9525 13.7226 11.0075 13.4175L9.64417 14.7808C9.50899 14.9165 9.34832 15.0241 9.17142 15.0975C8.99451 15.1708 8.80485 15.2085 8.61333 15.2083H7.70833C7.65308 15.2083 7.60009 15.2303 7.56102 15.2694C7.52195 15.3084 7.5 15.3614 7.5 15.4167V16.6233C7.50003 16.8167 7.42331 17.0023 7.28667 17.1392L7.10833 17.3167C7.04887 17.3762 6.978 17.4232 6.89996 17.4547C6.82191 17.4862 6.73831 17.5016 6.65417 17.5H4.375C4.31975 17.5 4.26676 17.5219 4.22769 17.561C4.18862 17.6001 4.16667 17.6531 4.16667 17.7083V18.5417C4.16667 18.9284 4.01302 19.2994 3.73953 19.5729C3.46604 19.8464 3.09511 20 2.70833 20H1.45833C1.07156 20 0.700626 19.8464 0.427136 19.5729C0.153645 19.2994 0 18.9284 0 18.5417L0 16.1783C0 15.7917 0.154167 15.4217 0.4275 15.1483L6.5825 8.99167C6.24845 7.95996 6.16323 6.86386 6.33381 5.79293C6.50438 4.72199 6.9259 3.7066 7.56393 2.82972C8.20196 1.95284 9.0384 1.23935 10.0049 0.747553C10.9714 0.255752 12.0406 -0.000408865 13.125 4.89853e-07ZM7.5 6.875C7.49913 7.577 7.63001 8.27294 7.88583 8.92667C7.93019 9.03986 7.94057 9.16353 7.9157 9.28254C7.89084 9.40154 7.8318 9.51071 7.74583 9.59667L1.31083 16.0308C1.2915 16.0502 1.27618 16.0732 1.26574 16.0985C1.2553 16.1238 1.24995 16.151 1.25 16.1783V18.5417C1.25 18.6567 1.34333 18.75 1.45833 18.75H2.70833C2.76359 18.75 2.81658 18.7281 2.85565 18.689C2.89472 18.6499 2.91667 18.5969 2.91667 18.5417V17.7083C2.91667 16.9033 3.57 16.25 4.375 16.25H6.25V15.4167C6.25 14.6117 6.90333 13.9583 7.70833 13.9583H8.61333C8.64071 13.9584 8.66783 13.953 8.69314 13.9426C8.71845 13.9322 8.74145 13.9168 8.76083 13.8975L10.4033 12.2542C10.4893 12.1682 10.5985 12.1092 10.7175 12.0843C10.8365 12.0594 10.9601 12.0698 11.0733 12.1142C12.1926 12.5526 13.4228 12.621 14.5837 12.3092C15.7446 11.9975 16.7752 11.3221 17.5242 10.382C18.2733 9.44191 18.7015 8.28658 18.7461 7.08537C18.7907 5.88416 18.4493 4.70025 17.772 3.7072C17.0947 2.71414 16.1171 1.96418 14.9825 1.56723C13.8479 1.17029 12.616 1.14724 11.4673 1.50148C10.3187 1.85571 9.31371 2.56859 8.59974 3.53562C7.88577 4.50265 7.50036 5.67296 7.5 6.875Z" fill="#676872"/>
</g>
<defs>
<clipPath id="clip0_2445_19059">
<rect width="20" height="20" fill="white"/>
</clipPath>
</defs>
</svg>
