<svg width="20" height="20" viewBox="0 0 20 20" fill="none" xmlns="http://www.w3.org/2000/svg">
<g clip-path="url(#clip0_2445_19070)">
<path d="M1.66797 13.334C1.66797 10.9773 1.66797 9.79815 2.40047 9.06648C3.13214 8.33398 4.3113 8.33398 6.66797 8.33398H13.3346C15.6913 8.33398 16.8705 8.33398 17.6021 9.06648C18.3346 9.79815 18.3346 10.9773 18.3346 13.334C18.3346 15.6907 18.3346 16.8698 17.6021 17.6015C16.8705 18.334 15.6913 18.334 13.3346 18.334H6.66797C4.3113 18.334 3.13214 18.334 2.40047 17.6015C1.66797 16.8698 1.66797 15.6907 1.66797 13.334Z" stroke="#676872" stroke-width="1.875"/>
<path d="M5 8.33366V6.66699C5 5.34091 5.52678 4.06914 6.46447 3.13146C7.40215 2.19378 8.67392 1.66699 10 1.66699C11.3261 1.66699 12.5979 2.19378 13.5355 3.13146C14.4732 4.06914 15 5.34091 15 6.66699V8.33366" stroke="#676872" stroke-width="1.875" stroke-linecap="round"/>
</g>
<defs>
<clipPath id="clip0_2445_19070">
<rect width="20" height="20" fill="white"/>
</clipPath>
</defs>
</svg>
