<svg width="16" height="17" viewBox="0 0 16 17" fill="none" xmlns="http://www.w3.org/2000/svg">
<g clip-path="url(#clip0_397_9860)">
<path d="M1.76768 13.9463C1.84502 14.773 2.51335 15.3607 3.34302 15.402C4.32135 15.45 5.84668 15.5 7.99935 15.5C10.152 15.5 11.6774 15.4507 12.656 15.402C13.4853 15.3607 14.1537 14.7733 14.231 13.9463C14.2867 13.3473 14.3327 12.5397 14.3327 11.5C14.3327 10.4607 14.2867 9.65267 14.231 9.054C14.1537 8.22667 13.4853 7.63933 12.6557 7.598C11.6774 7.54933 10.152 7.5 7.99935 7.5C5.84668 7.5 4.32135 7.54933 3.34268 7.598C2.51335 7.63933 1.84502 8.22667 1.76768 9.05367C1.71168 9.653 1.66602 10.4603 1.66602 11.5C1.66602 12.5393 1.71168 13.3473 1.76768 13.9463Z" fill="#676872" fill-opacity="0.2"/>
<path d="M6.09751 7.51433C4.98418 7.53133 4.11384 7.56166 3.46484 7.59233L3.69451 4.83499C3.77779 3.83509 4.23381 2.90301 4.97213 2.22359C5.71045 1.54417 6.67715 1.16704 7.68051 1.16699H8.31951C9.32293 1.16696 10.2897 1.54405 11.0281 2.22348C11.7665 2.90291 12.2226 3.83504 12.3058 4.83499C12.3133 4.9261 12.3014 5.01775 12.2711 5.10399C12.2408 5.19023 12.1927 5.26913 12.13 5.33558C12.0672 5.40203 11.9911 5.45454 11.9068 5.4897C11.8224 5.52485 11.7316 5.54188 11.6402 5.53966C11.1802 5.52899 10.6775 5.51966 10.1305 5.51299C10.0367 5.51181 9.94689 5.47515 9.87904 5.4104C9.8112 5.34565 9.7704 5.25761 9.76484 5.16399C9.73858 4.71376 9.54122 4.2906 9.21317 3.98112C8.88511 3.67165 8.45117 3.49927 8.00018 3.49927C7.54918 3.49927 7.11524 3.67165 6.78719 3.98112C6.45913 4.2906 6.26177 4.71376 6.23551 5.16399L6.09751 7.51433Z" fill="white"/>
<path d="M8.82668 11.8789C9.04383 11.7071 9.20209 11.472 9.27951 11.2061C9.35693 10.9403 9.34965 10.6569 9.2587 10.3954C9.16774 10.1338 8.99762 9.9071 8.77195 9.74666C8.54628 9.58621 8.27625 9.5 7.99935 9.5C7.72245 9.5 7.45242 9.58621 7.22675 9.74666C7.00108 9.9071 6.83095 10.1338 6.74 10.3954C6.64905 10.6569 6.64177 10.9403 6.71919 11.2061C6.7966 11.472 6.95487 11.7071 7.17202 11.8789L6.95968 12.7889C6.88635 13.1039 7.05535 13.4166 7.37535 13.4603C7.54402 13.4833 7.75202 13.4999 7.99935 13.4999C8.24668 13.4999 8.45468 13.4833 8.62335 13.4599C8.94335 13.4166 9.11268 13.1039 9.03902 12.7893L8.82668 11.8789Z" fill="white"/>
<path d="M6.09589 7.51433L6.23389 5.16433C6.26015 4.7141 6.45751 4.29093 6.78557 3.98146C7.11362 3.67198 7.54756 3.4996 7.99856 3.4996C8.44955 3.4996 8.88349 3.67198 9.21155 3.98146C9.5396 4.29093 9.73696 4.7141 9.76322 5.16433C9.76878 5.25791 9.8096 5.34592 9.87745 5.41061C9.9453 5.47531 10.0351 5.51189 10.1289 5.51299C10.6756 5.51966 11.1786 5.52899 11.6386 5.53966C11.7299 5.54188 11.8208 5.52485 11.9051 5.4897C11.9895 5.45454 12.0656 5.40203 12.1283 5.33558C12.1911 5.26913 12.2392 5.19023 12.2695 5.10399C12.2998 5.01775 12.3116 4.9261 12.3042 4.83499C12.2209 3.83504 11.7649 2.90291 11.0265 2.22348C10.2881 1.54405 9.32131 1.16696 8.31789 1.16699H7.67922C6.67581 1.16696 5.70903 1.54405 4.97063 2.22348C4.23224 2.90291 3.77617 3.83504 3.69289 4.83499L3.46289 7.59233" stroke="#676872" stroke-linecap="round" stroke-linejoin="round"/>
<path d="M1.76768 13.9463C1.84502 14.773 2.51335 15.3607 3.34302 15.402C4.32135 15.45 5.84668 15.5 7.99935 15.5C10.152 15.5 11.6773 15.4507 12.656 15.402C13.4853 15.3607 14.1537 14.7733 14.231 13.9463C14.287 13.3473 14.3327 12.5397 14.3327 11.5C14.3327 10.4607 14.287 9.65267 14.231 9.054C14.1537 8.22667 13.4853 7.63933 12.6557 7.598C11.6773 7.54933 10.152 7.5 7.99935 7.5C5.84668 7.5 4.32135 7.54933 3.34268 7.598C2.51335 7.63933 1.84502 8.22667 1.76768 9.05367C1.71168 9.653 1.66602 10.4603 1.66602 11.5C1.66602 12.5393 1.71168 13.3473 1.76768 13.9463Z" stroke="#676872" stroke-linecap="round" stroke-linejoin="round"/>
<path d="M8.82668 11.8789C9.04383 11.7071 9.20209 11.472 9.27951 11.2061C9.35693 10.9403 9.34965 10.6569 9.2587 10.3954C9.16774 10.1338 8.99762 9.9071 8.77195 9.74666C8.54628 9.58621 8.27625 9.5 7.99935 9.5C7.72245 9.5 7.45242 9.58621 7.22675 9.74666C7.00108 9.9071 6.83095 10.1338 6.74 10.3954C6.64905 10.6569 6.64177 10.9403 6.71919 11.2061C6.7966 11.472 6.95487 11.7071 7.17202 11.8789L6.95968 12.7889C6.88635 13.1039 7.05535 13.4166 7.37535 13.4603C7.54402 13.4833 7.75202 13.4999 7.99935 13.4999C8.24668 13.4999 8.45468 13.4833 8.62335 13.4599C8.94335 13.4166 9.11268 13.1039 9.03902 12.7893L8.82668 11.8789Z" stroke="#676872" stroke-linecap="round" stroke-linejoin="round"/>
</g>
<defs>
<clipPath id="clip0_397_9860">
<rect width="16" height="16" fill="white" transform="translate(0 0.5)"/>
</clipPath>
</defs>
</svg>
