<svg width="25" height="24" viewBox="0 0 25 24" fill="none" xmlns="http://www.w3.org/2000/svg">
<path d="M22.3899 12.9997C22.2455 12.8803 22.0706 12.804 21.885 12.7792C21.6993 12.7545 21.5105 12.7823 21.3399 12.8597C20.2825 13.3435 19.1328 13.5926 17.9699 13.5897C15.8187 13.5871 13.7559 12.7341 12.231 11.2168C10.7062 9.69943 9.84309 7.64077 9.82989 5.48966C9.83445 4.8155 9.91836 4.14421 10.0799 3.48966C10.1142 3.3152 10.1013 3.13476 10.0426 2.96692C9.98398 2.79908 9.88163 2.64991 9.74613 2.53479C9.61064 2.41967 9.4469 2.34276 9.27179 2.31198C9.09668 2.28119 8.91652 2.29765 8.74989 2.35966C7.18222 3.06457 5.81946 4.15642 4.78965 5.53265C3.75984 6.90887 3.09677 8.52429 2.86274 10.2271C2.62871 11.93 2.8314 13.6644 3.45176 15.2674C4.07213 16.8704 5.0898 18.2894 6.40919 19.3911C7.72858 20.4928 9.30637 21.241 10.9943 21.5655C12.6823 21.8899 14.425 21.7799 16.0588 21.2459C17.6926 20.7118 19.1639 19.7712 20.3343 18.5124C21.5047 17.2536 22.336 15.7179 22.7499 14.0497C22.8003 13.8587 22.793 13.657 22.729 13.4701C22.6649 13.2833 22.5469 13.1196 22.3899 12.9997ZM12.8899 19.6897C11.2117 19.6778 9.57809 19.1475 8.21288 18.1714C6.84767 17.1953 5.81756 15.821 5.26357 14.2368C4.70959 12.6526 4.65883 10.9358 5.11823 9.32167C5.57763 7.70749 6.52475 6.27476 7.82989 5.21966V5.48966C7.83254 8.17815 8.90171 10.7558 10.8028 12.6568C12.7038 14.5578 15.2814 15.627 17.9699 15.6297C18.6758 15.6323 19.3799 15.5585 20.0699 15.4097C19.3798 16.7152 18.3464 17.8075 17.081 18.5688C15.8157 19.3301 14.3666 19.7315 12.8899 19.7297V19.6897Z" fill="white"/>
</svg>
