<svg width="32" height="32" viewBox="0 0 32 32" fill="none" xmlns="http://www.w3.org/2000/svg">
<g clip-path="url(#clip0_386_7110)">
<path d="M1.43459 28.2373C1.50792 29.3853 2.25459 30.2753 3.39525 30.4307C4.32859 30.558 5.69992 30.6667 7.66659 30.6667C9.63325 30.6667 11.0053 30.558 11.9379 30.4307C13.0779 30.2753 13.8259 29.3853 13.8986 28.2373C13.9546 27.3647 13.9999 26.1087 13.9999 24.3333C13.9999 22.558 13.9546 21.302 13.8986 20.4293C13.8253 19.2813 13.0786 18.3913 11.9379 18.236C11.0046 18.1087 9.63325 18 7.66659 18C5.69992 18 4.32859 18.1087 3.39525 18.236C2.25525 18.3913 1.50725 19.2813 1.43459 20.4293C1.37859 21.302 1.33325 22.558 1.33325 24.3333C1.33325 26.1087 1.37859 27.3647 1.43459 28.2373Z" fill="#05E4F2"/>
<path d="M1.43459 28.2373C1.50792 29.3853 2.25459 30.2753 3.39525 30.4307C4.32859 30.558 5.69992 30.6667 7.66659 30.6667C9.63325 30.6667 11.0053 30.558 11.9379 30.4307C13.0779 30.2753 13.8259 29.3853 13.8986 28.2373C13.9546 27.3647 13.9999 26.1087 13.9999 24.3333C13.9999 22.558 13.9546 21.302 13.8986 20.4293C13.8253 19.2813 13.0786 18.3913 11.9379 18.236C11.0046 18.1087 9.63325 18 7.66659 18C5.69992 18 4.32859 18.1087 3.39525 18.236C2.25525 18.3913 1.50725 19.2813 1.43459 20.4293C1.37859 21.302 1.33325 22.558 1.33325 24.3333C1.33325 26.1087 1.37859 27.3647 1.43459 28.2373Z" stroke="#5E35F2" stroke-width="2" stroke-linecap="round" stroke-linejoin="round"/>
<path d="M1.43459 3.76332C1.50792 2.61532 2.25459 1.72532 3.39525 1.56998C4.32859 1.44265 5.69992 1.33398 7.66659 1.33398C9.63325 1.33398 11.0053 1.44265 11.9379 1.56998C13.0779 1.72532 13.8259 2.61532 13.8986 3.76332C13.9546 4.63598 13.9999 5.89198 13.9999 7.66732C13.9999 9.44265 13.9546 10.6987 13.8986 11.5713C13.8253 12.7193 13.0786 13.6093 11.9379 13.7647C11.0046 13.892 9.63325 14.0007 7.66659 14.0007C5.69992 14.0007 4.32859 13.892 3.39525 13.7647C2.25525 13.6093 1.50725 12.7193 1.43459 11.5713C1.37859 10.6987 1.33325 9.44265 1.33325 7.66732C1.33325 5.89198 1.37859 4.63598 1.43459 3.76332Z" fill="#05E4F2"/>
<path d="M1.43459 3.76332C1.50792 2.61532 2.25459 1.72532 3.39525 1.56998C4.32859 1.44265 5.69992 1.33398 7.66659 1.33398C9.63325 1.33398 11.0053 1.44265 11.9379 1.56998C13.0779 1.72532 13.8259 2.61532 13.8986 3.76332C13.9546 4.63598 13.9999 5.89198 13.9999 7.66732C13.9999 9.44265 13.9546 10.6987 13.8986 11.5713C13.8253 12.7193 13.0786 13.6093 11.9379 13.7647C11.0046 13.892 9.63325 14.0007 7.66659 14.0007C5.69992 14.0007 4.32859 13.892 3.39525 13.7647C2.25525 13.6093 1.50725 12.7193 1.43459 11.5713C1.37859 10.6987 1.33325 9.44265 1.33325 7.66732C1.33325 5.89198 1.37859 4.63598 1.43459 3.76332Z" stroke="#5E35F2" stroke-width="2" stroke-linecap="round" stroke-linejoin="round"/>
<path d="M28.2373 30.5653C29.3853 30.492 30.2753 29.7453 30.4307 28.6047C30.558 27.6713 30.6667 26.3 30.6667 24.3333C30.6667 22.3667 30.558 20.9947 30.4307 20.062C30.2753 18.922 29.3853 18.174 28.2373 18.1013C27.3647 18.0453 26.1087 18 24.3333 18C22.558 18 21.302 18.0453 20.4293 18.1013C19.2813 18.1747 18.3913 18.9213 18.236 20.062C18.1087 20.9953 18 22.3667 18 24.3333C18 26.3 18.1087 27.672 18.236 28.6047C18.3913 29.7447 19.2813 30.4927 20.4293 30.5653C21.302 30.6213 22.558 30.6667 24.3333 30.6667C26.1087 30.6667 27.3647 30.6213 28.2373 30.5653Z" fill="#05E4F2"/>
<path d="M28.2373 30.5653C29.3853 30.492 30.2753 29.7453 30.4307 28.6047C30.558 27.6713 30.6667 26.3 30.6667 24.3333C30.6667 22.3667 30.558 20.9947 30.4307 20.062C30.2753 18.922 29.3853 18.174 28.2373 18.1013C27.3647 18.0453 26.1087 18 24.3333 18C22.558 18 21.302 18.0453 20.4293 18.1013C19.2813 18.1747 18.3913 18.9213 18.236 20.062C18.1087 20.9953 18 22.3667 18 24.3333C18 26.3 18.1087 27.672 18.236 28.6047C18.3913 29.7447 19.2813 30.4927 20.4293 30.5653C21.302 30.6213 22.558 30.6667 24.3333 30.6667C26.1087 30.6667 27.3647 30.6213 28.2373 30.5653Z" stroke="#5E35F2" stroke-width="2" stroke-linecap="round" stroke-linejoin="round"/>
<path d="M23.7485 1.73696C23.8059 1.63211 23.8905 1.54464 23.9934 1.48371C24.0962 1.42278 24.2136 1.39063 24.3332 1.39062C24.4527 1.39062 24.5701 1.42278 24.6729 1.48371C24.7758 1.54464 24.8604 1.63211 24.9178 1.73696L26.2458 4.16496C26.6129 4.8361 27.1647 5.3879 27.8358 5.75496L30.2638 7.08296C30.3687 7.14041 30.4562 7.22499 30.5171 7.32786C30.578 7.43072 30.6102 7.54808 30.6102 7.66763C30.6102 7.78719 30.578 7.90454 30.5171 8.00741C30.4562 8.11027 30.3687 8.19485 30.2638 8.2523L27.8358 9.5803C27.1647 9.94736 26.6129 10.4992 26.2458 11.1703L24.9178 13.5983C24.8604 13.7031 24.7758 13.7906 24.6729 13.8516C24.5701 13.9125 24.4527 13.9446 24.3332 13.9446C24.2136 13.9446 24.0962 13.9125 23.9934 13.8516C23.8905 13.7906 23.8059 13.7031 23.7485 13.5983L22.4205 11.1703C22.0534 10.4992 21.5016 9.94736 20.8305 9.5803L18.4025 8.2523C18.2976 8.19485 18.2102 8.11027 18.1492 8.00741C18.0883 7.90454 18.0562 7.78719 18.0562 7.66763C18.0562 7.54808 18.0883 7.43072 18.1492 7.32786C18.2102 7.22499 18.2976 7.14041 18.4025 7.08296L20.8305 5.75496C21.5016 5.3879 22.0534 4.8361 22.4205 4.16496L23.7485 1.73696Z" fill="white"/>
<path d="M23.7485 1.73696C23.8059 1.63211 23.8905 1.54464 23.9934 1.48371C24.0962 1.42278 24.2136 1.39063 24.3332 1.39062C24.4527 1.39062 24.5701 1.42278 24.6729 1.48371C24.7758 1.54464 24.8604 1.63211 24.9178 1.73696L26.2458 4.16496C26.6129 4.8361 27.1647 5.3879 27.8358 5.75496L30.2638 7.08296C30.3687 7.14041 30.4562 7.22499 30.5171 7.32786C30.578 7.43072 30.6102 7.54808 30.6102 7.66763C30.6102 7.78719 30.578 7.90454 30.5171 8.00741C30.4562 8.11027 30.3687 8.19485 30.2638 8.2523L27.8358 9.5803C27.1647 9.94736 26.6129 10.4992 26.2458 11.1703L24.9178 13.5983C24.8604 13.7031 24.7758 13.7906 24.6729 13.8516C24.5701 13.9125 24.4527 13.9446 24.3332 13.9446C24.2136 13.9446 24.0962 13.9125 23.9934 13.8516C23.8905 13.7906 23.8059 13.7031 23.7485 13.5983L22.4205 11.1703C22.0534 10.4992 21.5016 9.94736 20.8305 9.5803L18.4025 8.2523C18.2976 8.19485 18.2102 8.11027 18.1492 8.00741C18.0883 7.90454 18.0562 7.78719 18.0562 7.66763C18.0562 7.54808 18.0883 7.43072 18.1492 7.32786C18.2102 7.22499 18.2976 7.14041 18.4025 7.08296L20.8305 5.75496C21.5016 5.3879 22.0534 4.8361 22.4205 4.16496L23.7485 1.73696Z" stroke="#5E35F2" stroke-width="2" stroke-linecap="round" stroke-linejoin="round"/>
</g>
<defs>
<clipPath id="clip0_386_7110">
<rect width="32" height="32" fill="white"/>
</clipPath>
</defs>
</svg>
