<svg width="32" height="32" viewBox="0 0 32 32" fill="none" xmlns="http://www.w3.org/2000/svg">
<path d="M18.6667 23.334H13.3333L12.8807 25.5953C12.8203 25.8976 12.657 26.1696 12.4186 26.365C12.1803 26.5605 11.8816 26.6673 11.5733 26.6673H10.9727C10.5103 26.6673 10.0621 26.8275 9.70452 27.1207C9.34693 27.4138 9.10197 27.8219 9.01133 28.2753L8.98533 28.406C8.94667 28.5994 8.95141 28.799 8.9992 28.9904C9.04699 29.1817 9.13664 29.3601 9.26169 29.5126C9.38674 29.6652 9.54408 29.7881 9.72236 29.8725C9.90064 29.9568 10.0954 30.0006 10.2927 30.0007H21.706C21.9033 30.0007 22.0982 29.957 22.2765 29.8727C22.4549 29.7883 22.6123 29.6654 22.7374 29.5129C22.8626 29.3604 22.9523 29.1819 23.0001 28.9905C23.0479 28.7991 23.0527 28.5995 23.014 28.406L22.9873 28.2753C22.8967 27.8221 22.652 27.4142 22.2947 27.1211C21.9373 26.8279 21.4895 26.6676 21.0273 26.6673H20.426C20.1178 26.6673 19.8191 26.5605 19.5807 26.365C19.3424 26.1696 19.1791 25.8976 19.1187 25.5953L18.6667 23.334Z" fill="#05E4F2"/>
<path d="M2.296 20.0293C2.45267 21.7147 3.78933 22.9527 5.47867 23.058C7.62867 23.1913 11.0707 23.3333 16 23.3333C20.9293 23.3333 24.3713 23.192 26.5213 23.058C28.2107 22.9527 29.5473 21.7147 29.704 20.0293C29.8573 18.3787 30 15.958 30 12.6667C30 9.37533 29.8573 6.95467 29.704 5.304C29.5473 3.61867 28.2107 2.38067 26.5213 2.27533C24.3713 2.142 20.9293 2 16 2C11.0707 2 7.62867 2.142 5.47867 2.27533C3.78933 2.38067 2.45267 3.61867 2.296 5.304C2.14267 6.95467 2 9.37533 2 12.6667C2 15.958 2.14267 18.3787 2.296 20.0293Z" fill="white"/>
<path d="M11.6667 2.03906V23.2924C9.60256 23.2579 7.53943 23.1795 5.47867 23.0571C3.78933 22.9517 2.45267 21.7137 2.296 20.0291C2.14267 18.3777 2 15.9571 2 12.6657C2 9.3744 2.14267 6.95373 2.296 5.30306C2.45267 3.61773 3.78933 2.37973 5.47867 2.2744C6.932 2.1844 8.974 2.0904 11.6667 2.03906Z" fill="#05E4F2"/>
<path d="M18.6667 23.334L19.1187 25.5953C19.1791 25.8976 19.3424 26.1696 19.5807 26.365C19.8191 26.5605 20.1178 26.6673 20.426 26.6673H21.0267C21.4891 26.6673 21.9372 26.8275 22.2948 27.1207C22.6524 27.4138 22.8974 27.8219 22.988 28.2753L23.0147 28.406C23.0533 28.5995 23.0486 28.7991 23.0008 28.9905C22.9529 29.1819 22.8632 29.3604 22.7381 29.5129C22.613 29.6654 22.4556 29.7883 22.2772 29.8727C22.0988 29.957 21.904 30.0007 21.7067 30.0007H10.2933C10.096 30.0007 9.90117 29.957 9.72281 29.8727C9.54445 29.7883 9.38703 29.6654 9.2619 29.5129C9.13678 29.3604 9.04706 29.1819 8.99924 28.9905C8.95141 28.7991 8.94666 28.5995 8.98533 28.406L9.012 28.2753C9.10261 27.822 9.34747 27.414 9.70493 27.1209C10.0624 26.8277 10.5104 26.6674 10.9727 26.6673H11.5727C11.881 26.6674 12.1799 26.5607 12.4184 26.3652C12.6569 26.1698 12.8202 25.8977 12.8807 25.5953L13.3333 23.334" stroke="#5E35F2" stroke-width="2" stroke-linejoin="round"/>
<path d="M2.296 20.0293C2.45267 21.7147 3.78933 22.9527 5.47867 23.058C7.62867 23.1913 11.0707 23.3333 16 23.3333C20.9293 23.3333 24.3713 23.192 26.5213 23.058C28.2107 22.9527 29.5473 21.7147 29.704 20.0293C29.8573 18.3787 30 15.958 30 12.6667C30 9.37533 29.8573 6.95467 29.704 5.304C29.5473 3.61867 28.2107 2.38067 26.5213 2.27533C24.3713 2.142 20.9293 2 16 2C11.0707 2 7.62867 2.142 5.47867 2.27533C3.78933 2.38067 2.45267 3.61867 2.296 5.304C2.14267 6.95467 2 9.37533 2 12.6667C2 15.958 2.14267 18.3787 2.296 20.0293Z" stroke="#5E35F2" stroke-width="2" stroke-linejoin="round"/>
<path d="M11.6665 2.33398V23.0006" stroke="#5E35F2" stroke-width="2" stroke-linecap="round" stroke-linejoin="round"/>
<path d="M6 7.33398H8" stroke="#5E35F2" stroke-width="2" stroke-linecap="round" stroke-linejoin="round"/>
<path d="M15.3335 7.33398H26.0002" stroke="#5E35F2" stroke-width="2" stroke-linecap="round" stroke-linejoin="round"/>
<path d="M6 12H8" stroke="#5E35F2" stroke-width="2" stroke-linecap="round" stroke-linejoin="round"/>
<path d="M15.3335 12H26.0002" stroke="#5E35F2" stroke-width="2" stroke-linecap="round" stroke-linejoin="round"/>
<path d="M15.3335 16.666H23.3335" stroke="#5E35F2" stroke-width="2" stroke-linecap="round" stroke-linejoin="round"/>
</svg>
