<svg width="32" height="32" viewBox="0 0 32 32" fill="none" xmlns="http://www.w3.org/2000/svg">
<path d="M4 10.6667C4 11.8048 4.31039 12.9318 4.91345 13.9833C5.5165 15.0347 6.40042 15.9902 7.51472 16.7949C8.62902 17.5997 9.95189 18.2381 11.4078 18.6736C12.8637 19.1092 14.4241 19.3333 16 19.3333C17.5759 19.3333 19.1363 19.1092 20.5922 18.6736C22.0481 18.2381 23.371 17.5997 24.4853 16.7949C25.5996 15.9902 26.4835 15.0347 27.0866 13.9833C27.6896 12.9318 28 11.8048 28 10.6667C28 9.52854 27.6896 8.40157 27.0866 7.35008C26.4835 6.29859 25.5996 5.34318 24.4853 4.53841C23.371 3.73363 22.0481 3.09525 20.5922 2.65971C19.1363 2.22417 17.5759 2 16 2C14.4241 2 12.8637 2.22417 11.4078 2.65971C9.95189 3.09525 8.62902 3.73363 7.51472 4.53841C6.40042 5.34318 5.5165 6.29859 4.91345 7.35008C4.31039 8.40157 4 9.52854 4 10.6667Z" fill="#05E4F2"/>
<path d="M10.6665 10.6667C10.6665 12.9652 11.2284 15.1696 12.2286 16.7949C13.2288 18.4202 14.5853 19.3333 15.9998 19.3333C17.4143 19.3333 18.7709 18.4202 19.7711 16.7949C20.7713 15.1696 21.3332 12.9652 21.3332 10.6667C21.3332 8.36812 20.7713 6.16372 19.7711 4.53841C18.7709 2.91309 17.4143 2 15.9998 2C14.5853 2 13.2288 2.91309 12.2286 4.53841C11.2284 6.16372 10.6665 8.36812 10.6665 10.6667Z" fill="#05E4F2"/>
<path d="M11.2621 23.422C10.5688 23.456 10.0295 23.9107 10.0061 24.604C9.99731 24.8684 9.99731 25.1329 10.0061 25.3973C10.0099 25.6234 10.0793 25.8436 10.2058 26.031C10.3323 26.2185 10.5105 26.3652 10.7188 26.4533C10.7895 27.4287 10.9221 28.1833 11.0461 28.7173C11.1901 29.3373 11.7008 29.766 12.3341 29.8347C13.0801 29.916 14.2708 30.0007 16.0001 30.0007C17.7295 30.0007 18.9201 29.916 19.6661 29.8353C20.2995 29.766 20.8101 29.338 20.9541 28.7173C21.0781 28.1833 21.2108 27.4287 21.2815 26.4533C21.4896 26.3651 21.6677 26.2183 21.7941 26.0309C21.9204 25.8435 21.9897 25.6234 21.9935 25.3973C22.0023 25.1329 22.0023 24.8684 21.9935 24.604C21.9701 23.9107 21.4315 23.456 20.7381 23.422C19.8581 23.3787 18.3721 23.334 16.0001 23.334C13.6281 23.334 12.1421 23.3787 11.2621 23.422Z" fill="white"/>
<path d="M20 23.3327L21.3333 18.666" stroke="#5E35F2" stroke-width="2" stroke-linecap="round" stroke-linejoin="round"/>
<path d="M4 10.6667C4 11.8048 4.31039 12.9318 4.91345 13.9833C5.5165 15.0347 6.40042 15.9902 7.51472 16.7949C8.62902 17.5997 9.95189 18.2381 11.4078 18.6736C12.8637 19.1092 14.4241 19.3333 16 19.3333C17.5759 19.3333 19.1363 19.1092 20.5922 18.6736C22.0481 18.2381 23.371 17.5997 24.4853 16.7949C25.5996 15.9902 26.4835 15.0347 27.0866 13.9833C27.6896 12.9318 28 11.8048 28 10.6667C28 9.52854 27.6896 8.40157 27.0866 7.35008C26.4835 6.29859 25.5996 5.34318 24.4853 4.53841C23.371 3.73363 22.0481 3.09525 20.5922 2.65971C19.1363 2.22417 17.5759 2 16 2C14.4241 2 12.8637 2.22417 11.4078 2.65971C9.95189 3.09525 8.62902 3.73363 7.51472 4.53841C6.40042 5.34318 5.5165 6.29859 4.91345 7.35008C4.31039 8.40157 4 9.52854 4 10.6667Z" stroke="#5E35F2" stroke-width="2" stroke-linecap="round" stroke-linejoin="round"/>
<path d="M10.6665 10.6667C10.6665 12.9652 11.2284 15.1696 12.2286 16.7949C13.2288 18.4202 14.5853 19.3333 15.9998 19.3333C17.4143 19.3333 18.7709 18.4202 19.7711 16.7949C20.7713 15.1696 21.3332 12.9652 21.3332 10.6667C21.3332 8.36812 20.7713 6.16372 19.7711 4.53841C18.7709 2.91309 17.4143 2 15.9998 2C14.5853 2 13.2288 2.91309 12.2286 4.53841C11.2284 6.16372 10.6665 8.36812 10.6665 10.6667Z" stroke="#5E35F2" stroke-width="2" stroke-linecap="round" stroke-linejoin="round"/>
<path d="M11.2621 23.422C10.5688 23.456 10.0295 23.9107 10.0061 24.604C9.99731 24.8684 9.99731 25.1329 10.0061 25.3973C10.0099 25.6234 10.0793 25.8436 10.2058 26.031C10.3323 26.2185 10.5105 26.3652 10.7188 26.4533C10.7895 27.4287 10.9221 28.1833 11.0461 28.7173C11.1901 29.3373 11.7008 29.766 12.3341 29.8347C13.0801 29.916 14.2708 30.0007 16.0001 30.0007C17.7295 30.0007 18.9201 29.916 19.6661 29.8353C20.2995 29.766 20.8101 29.338 20.9541 28.7173C21.0781 28.1833 21.2108 27.4287 21.2815 26.4533C21.4896 26.3651 21.6677 26.2183 21.7941 26.0309C21.9204 25.8435 21.9897 25.6234 21.9935 25.3973C22.0023 25.1329 22.0023 24.8684 21.9935 24.604C21.9701 23.9107 21.4315 23.456 20.7381 23.422C19.8581 23.3787 18.3721 23.334 16.0001 23.334C13.6281 23.334 12.1421 23.3787 11.2621 23.422Z" stroke="#5E35F2" stroke-width="2" stroke-linecap="round" stroke-linejoin="round"/>
<path d="M11.9998 23.3327L10.6665 18.666" stroke="#5E35F2" stroke-width="2" stroke-linecap="round" stroke-linejoin="round"/>
</svg>
