<svg width="25" height="24" viewBox="0 0 25 24" fill="none" xmlns="http://www.w3.org/2000/svg">
<g clip-path="url(#clip0_423_83646)">
<path d="M3.375 12.4302C3.41 12.4317 3.445 12.4332 3.48 12.4337C4.97 12.4617 7.787 12.4992 12.1765 12.4992C16.5665 12.4992 19.383 12.4617 20.8735 12.4342L20.9785 12.4297C20.7595 14.2957 20.344 17.2592 19.652 20.1607C19.5249 20.7043 19.2319 21.1949 18.8135 21.5646C18.3951 21.9342 17.8721 22.1646 17.317 22.2237C16.059 22.3587 14.2525 22.4992 12.177 22.4992C10.101 22.4992 8.2945 22.3592 7.037 22.2237C6.48177 22.1647 5.95865 21.9344 5.54018 21.5647C5.1217 21.1951 4.8286 20.7044 4.7015 20.1607C4.0095 17.2592 3.594 14.2957 3.375 12.4297V12.4302Z" fill="#05E4F2" fill-opacity="0.2"/>
<path d="M15.1774 3.121C15.1674 3.921 14.5174 4.465 13.7174 4.4835C13.3094 4.4935 12.7989 4.5 12.1779 4.5C11.5579 4.5 11.0469 4.493 10.6379 4.4835C9.83792 4.465 9.18792 3.921 9.17842 3.121C9.1775 3.04034 9.1775 2.95966 9.17842 2.879C9.18842 2.079 9.83842 1.535 10.6384 1.5165C11.0464 1.5065 11.5569 1.5 12.1779 1.5C12.7979 1.5 13.3089 1.507 13.7179 1.5165C14.5179 1.535 15.1679 2.079 15.1774 2.879C15.1783 2.95966 15.1783 3.04034 15.1774 3.121Z" fill="#05E4F2" fill-opacity="0.2"/>
<path d="M1.72773 11.195C1.85123 12.0175 2.64923 12.419 3.48123 12.435C4.97123 12.4625 7.78823 12.5 12.1777 12.5C16.5677 12.5 19.3842 12.4625 20.8742 12.435C21.7062 12.419 22.5042 12.0175 22.6282 11.195C22.6582 10.9915 22.6777 10.76 22.6777 10.5C22.6777 10.24 22.6587 10.0085 22.6277 9.805C22.5042 8.9825 21.7062 8.581 20.8742 8.565C19.3842 8.538 16.5677 8.5 12.1777 8.5C7.78773 8.5 4.97123 8.5375 3.48123 8.565C2.64923 8.581 1.85123 8.9825 1.72723 9.805C1.69773 10.0085 1.67773 10.24 1.67773 10.5C1.67773 10.76 1.69673 10.9915 1.72773 11.195Z" fill="#05E4F2" fill-opacity="0.2"/>
<path d="M1.72773 11.195C1.85123 12.0175 2.64923 12.419 3.48123 12.435C4.97123 12.4625 7.78823 12.5 12.1777 12.5C16.5677 12.5 19.3842 12.4625 20.8742 12.435C21.7062 12.419 22.5042 12.0175 22.6282 11.195C22.6582 10.9915 22.6777 10.76 22.6777 10.5C22.6777 10.24 22.6587 10.0085 22.6277 9.805C22.5042 8.9825 21.7062 8.581 20.8742 8.565C19.3842 8.538 16.5677 8.5 12.1777 8.5C7.78773 8.5 4.97123 8.5375 3.48123 8.565C2.64923 8.581 1.85123 8.9825 1.72723 9.805C1.69773 10.0085 1.67773 10.24 1.67773 10.5C1.67773 10.76 1.69673 10.9915 1.72773 11.195Z" stroke="white" stroke-width="2" stroke-linecap="round" stroke-linejoin="round"/>
<path d="M3.375 12.4297C3.594 14.2957 4.0095 17.2592 4.7015 20.1607C4.82857 20.7043 5.1216 21.195 5.53998 21.5646C5.95835 21.9342 6.48136 22.1646 7.0365 22.2237C8.2945 22.3587 10.1015 22.4992 12.1765 22.4992C14.2525 22.4992 16.059 22.3592 17.3165 22.2237C17.8717 22.1647 18.3948 21.9344 18.8133 21.5647C19.2318 21.1951 19.5249 20.7044 19.652 20.1607C20.344 17.2592 20.7595 14.2957 20.9785 12.4297" stroke="white" stroke-width="2" stroke-linecap="round" stroke-linejoin="round"/>
<path d="M15.1774 3.121C15.1674 3.921 14.5174 4.465 13.7174 4.4835C13.3094 4.4935 12.7989 4.5 12.1779 4.5C11.5579 4.5 11.0469 4.493 10.6379 4.4835C9.83792 4.465 9.18792 3.921 9.17842 3.121C9.1775 3.04034 9.1775 2.95966 9.17842 2.879C9.18842 2.079 9.83842 1.535 10.6384 1.5165C11.0464 1.5065 11.5569 1.5 12.1779 1.5C12.7979 1.5 13.3089 1.507 13.7179 1.5165C14.5179 1.535 15.1679 2.079 15.1774 2.879C15.1783 2.95966 15.1783 3.04034 15.1774 3.121Z" stroke="white" stroke-width="2" stroke-linecap="round" stroke-linejoin="round"/>
<path d="M8.17773 15.5L8.67773 19" stroke="white" stroke-width="2" stroke-linecap="round" stroke-linejoin="round"/>
<path d="M16.1777 15.5L15.6777 19" stroke="white" stroke-width="2" stroke-linecap="round" stroke-linejoin="round"/>
<path d="M12.1777 15.5V19" stroke="white" stroke-width="2" stroke-linecap="round" stroke-linejoin="round"/>
<path d="M9.17773 3H7.71923C7.06623 3 6.45523 3.3175 6.10773 3.87C5.48873 4.854 4.48023 6.5735 3.67773 8.5" stroke="white" stroke-width="2" stroke-linecap="round" stroke-linejoin="round"/>
<path d="M15.1777 3H16.6362C17.2892 3 17.9002 3.3175 18.2477 3.87C18.8667 4.854 19.8752 6.5735 20.6777 8.5" stroke="white" stroke-width="2" stroke-linecap="round" stroke-linejoin="round"/>
</g>
<defs>
<clipPath id="clip0_423_83646">
<rect width="24" height="24" fill="white" transform="translate(0.177734)"/>
</clipPath>
</defs>
</svg>
