<svg width="25" height="24" viewBox="0 0 25 24" fill="none" xmlns="http://www.w3.org/2000/svg">
<g clip-path="url(#clip0_526_11633)">
<path d="M22.6174 8.15396C22.4904 8.89196 21.8489 9.36046 21.1009 9.38896C19.6349 9.44546 16.7939 9.52346 12.3164 9.52346C7.83891 9.52346 4.99791 9.44546 3.53191 9.38946C2.78391 9.36046 2.14241 8.89196 2.01541 8.15446C1.90941 7.53996 1.81641 6.67296 1.81641 5.52296C1.81641 4.37296 1.90941 3.50596 2.01541 2.89246C2.14241 2.15446 2.78391 1.68546 3.53191 1.65746C4.99791 1.60096 7.83891 1.52246 12.3164 1.52246C16.7939 1.52246 19.6349 1.60096 21.1009 1.65746C21.8489 1.68546 22.4904 2.15446 22.6174 2.89246C22.7234 3.50596 22.8164 4.37246 22.8164 5.52246C22.8164 6.67296 22.7234 7.53996 22.6174 8.15346V8.15396Z" fill="white"/>
<path d="M18.4745 4.98148C19.226 5.04398 19.797 5.67148 19.8045 6.42598C19.835 9.33398 19.816 13.48 19.6345 18.732C19.5875 20.074 18.6395 21.184 17.302 21.3045C16.14 21.409 14.494 21.5 12.288 21.5C10.094 21.5 8.46402 21.41 7.31552 21.306C5.98552 21.186 5.04552 20.0815 4.99952 18.747C4.81652 13.4875 4.79802 9.33648 4.82802 6.42598C4.83602 5.67198 5.40702 5.04398 6.15852 4.98098C7.70152 4.85298 9.73752 4.75098 12.3165 4.75098C14.8955 4.75098 16.9315 4.85298 18.4745 4.98098V4.98148Z" fill="white"/>
<path d="M8.92695 18.5C8.35545 18.5 7.87795 18.1065 7.84445 17.536C7.82499 17.191 7.81565 16.8455 7.81645 16.5C7.81645 16.0825 7.82795 15.74 7.84445 15.464C7.87795 14.8935 8.35545 14.5 8.92645 14.5H9.20545C9.77695 14.5 10.2545 14.8935 10.2885 15.464C10.3045 15.74 10.316 16.0825 10.316 16.5C10.316 16.9175 10.3045 17.26 10.2885 17.536C10.255 18.1065 9.77745 18.5 9.20595 18.5H8.92695Z" fill="#05E4F2" fill-opacity="0.2"/>
<path d="M16.3164 21.38C15.1511 21.4534 13.984 21.4927 12.8164 21.498V4.75195C14.1284 4.75895 15.2929 4.79195 16.3164 4.84095V21.38Z" fill="#05E4F2" fill-opacity="0.2"/>
<path d="M22.4559 8.99998C22.5489 8.84298 22.6144 8.66398 22.6459 8.46398C22.7394 7.86998 22.8164 7.00098 22.8164 5.75098C22.8164 4.50098 22.7394 3.63198 22.6464 3.03798C22.5229 2.25648 21.8784 1.78948 21.0899 1.72948C19.7424 1.62798 17.1039 1.50098 12.3164 1.50098C7.52891 1.50098 4.89041 1.62798 3.54291 1.72948C2.75441 1.78948 2.10991 2.25648 1.98691 3.03798C1.89341 3.63198 1.81641 4.50098 1.81641 5.75098C1.81641 7.00098 1.89341 7.86998 1.98641 8.46398C2.01841 8.66398 2.08391 8.84298 2.17691 8.99998" stroke="#5E35F2" stroke-width="2" stroke-linecap="round" stroke-linejoin="round"/>
<path d="M18.4745 4.98148C19.226 5.04398 19.797 5.67148 19.8045 6.42598C19.835 9.33398 19.816 13.48 19.6345 18.732C19.5875 20.074 18.6395 21.184 17.302 21.3045C16.14 21.409 14.494 21.5 12.288 21.5C10.094 21.5 8.46402 21.41 7.31552 21.306C5.98552 21.186 5.04552 20.0815 4.99952 18.747C4.81652 13.4875 4.79802 9.33648 4.82802 6.42598C4.83602 5.67198 5.40702 5.04398 6.15852 4.98098C7.70152 4.85298 9.73752 4.75098 12.3165 4.75098C14.8955 4.75098 16.9315 4.85298 18.4745 4.98098V4.98148Z" stroke="#5E35F2" stroke-width="2" stroke-linecap="round" stroke-linejoin="round"/>
<path d="M12.8164 21.4989V4.75293" stroke="#5E35F2" stroke-linecap="round" stroke-linejoin="round"/>
<path d="M16.3164 21.3798V4.84082" stroke="#5E35F2" stroke-linecap="round" stroke-linejoin="round"/>
<path d="M8.92695 18.5C8.35545 18.5 7.87795 18.1065 7.84445 17.536C7.82499 17.191 7.81565 16.8455 7.81645 16.5C7.81645 16.0825 7.82795 15.74 7.84445 15.464C7.87795 14.8935 8.35545 14.5 8.92645 14.5H9.20545C9.77695 14.5 10.2545 14.8935 10.2885 15.464C10.3045 15.74 10.316 16.0825 10.316 16.5C10.316 16.9175 10.3045 17.26 10.2885 17.536C10.255 18.1065 9.77745 18.5 9.20595 18.5H8.92695Z" stroke="#5E35F2" stroke-linecap="round" stroke-linejoin="round"/>
</g>
<defs>
<clipPath id="clip0_526_11633">
<rect width="24" height="24" fill="white" transform="translate(0.316406)"/>
</clipPath>
</defs>
</svg>
