<svg width="25" height="24" viewBox="0 0 25 24" fill="none" xmlns="http://www.w3.org/2000/svg">
<g clip-path="url(#clip0_526_11623)">
<path d="M7.10053 17.254C7.17953 18.103 7.84153 18.741 8.69153 18.8055C9.90353 18.897 11.928 19 14.8945 19C17.861 19 19.8855 18.897 21.0975 18.805C21.9475 18.741 22.6095 18.103 22.6885 17.254C22.7885 16.1785 22.8945 14.4595 22.8945 12C22.8945 9.54 22.7885 7.8215 22.6885 6.746C22.6095 5.897 21.9475 5.259 21.0975 5.1945C19.8855 5.103 17.8615 5 14.8945 5C11.9275 5 9.90353 5.103 8.69203 5.195C7.84203 5.259 7.17953 5.897 7.10053 6.746C7.00053 7.8215 6.89453 9.54 6.89453 12C6.89453 14.46 7.00053 16.1785 7.10053 17.254Z" fill="#05E4F2" fill-opacity="0.2"/>
<path d="M22.8889 11.002C22.8649 9.0675 22.7749 7.6695 22.6889 6.746C22.6099 5.897 21.9474 5.259 21.0974 5.1945C19.8859 5.103 17.8619 5 14.8949 5C11.9274 5 9.90389 5.103 8.69189 5.195C7.84189 5.259 7.17939 5.897 7.10039 6.746C7.01489 7.6695 6.92439 9.0675 6.90039 11.002C8.87889 11.97 13.2259 14 14.8949 14C16.5639 14 20.9109 11.97 22.8889 11.002Z" fill="#05E4F2" fill-opacity="0.2"/>
<path d="M7.10053 17.254C7.17953 18.103 7.84153 18.741 8.69153 18.8055C9.90353 18.897 11.928 19 14.8945 19C17.861 19 19.8855 18.897 21.0975 18.805C21.9475 18.741 22.6095 18.103 22.6885 17.254C22.7885 16.1785 22.8945 14.4595 22.8945 12C22.8945 9.54 22.7885 7.8215 22.6885 6.746C22.6095 5.897 21.9475 5.259 21.0975 5.1945C19.8855 5.103 17.8615 5 14.8945 5C11.9275 5 9.90353 5.103 8.69203 5.195C7.84203 5.259 7.17953 5.897 7.10053 6.746C7.00053 7.8215 6.89453 9.54 6.89453 12C6.89453 14.46 7.00053 16.1785 7.10053 17.254Z" stroke="#5E35F2" stroke-width="2" stroke-linejoin="round"/>
<path d="M6.89453 11C6.89453 11 12.7025 14 14.8945 14C17.086 14 22.8945 11 22.8945 11" stroke="#5E35F2" stroke-width="2" stroke-linecap="round" stroke-linejoin="round"/>
<path d="M1.89453 8.5H4.39453" stroke="#5E35F2" stroke-width="2" stroke-linecap="round" stroke-linejoin="round"/>
<path d="M2.39453 12H4.39453" stroke="#5E35F2" stroke-width="2" stroke-linecap="round" stroke-linejoin="round"/>
<path d="M2.89453 15.5H4.39453" stroke="#5E35F2" stroke-width="2" stroke-linecap="round" stroke-linejoin="round"/>
</g>
<defs>
<clipPath id="clip0_526_11623">
<rect width="24" height="24" fill="white" transform="translate(0.394531)"/>
</clipPath>
</defs>
</svg>
