<svg width="25" height="24" viewBox="0 0 25 24" fill="none" xmlns="http://www.w3.org/2000/svg">
<g clip-path="url(#clip0_526_11645)">
<path d="M20.1963 4.14702C18.2243 2.21402 16.8598 1.67052 16.4363 1.53802C15.5894 1.51205 14.7421 1.49938 13.8948 1.50002C10.7628 1.50002 8.61179 1.66002 7.27079 1.81352C6.17029 1.93952 5.34579 2.76502 5.22479 3.86602C5.10929 4.91402 4.98779 6.47702 4.92979 8.69252C4.92479 8.87152 5.10579 8.99752 5.27479 8.93902C6.1175 8.64749 7.00308 8.4991 7.89479 8.50002C12.3133 8.50002 15.8948 12.0815 15.8948 16.5C15.8948 18.204 15.3618 19.784 14.4538 21.0815C14.3338 21.2535 14.4533 21.4985 14.6633 21.4965C17.3823 21.473 19.2903 21.3265 20.5183 21.1865C21.6193 21.0605 22.4433 20.235 22.5648 19.134C22.7243 17.689 22.8948 15.2635 22.8948 11.5C22.8948 10.063 22.8698 8.82152 22.8298 7.75502C22.6548 7.26502 22.0568 5.97102 20.1963 4.14702Z" fill="#05E4F2" fill-opacity="0.2"/>
<path d="M16.4393 1.53918C16.8658 1.67268 18.2293 2.21818 20.1968 4.14718C22.0473 5.96168 22.6493 7.25168 22.8278 7.74718L22.8363 7.97918C21.7928 8.13468 19.9163 8.01568 18.4923 7.88368C17.9495 7.83511 17.4409 7.59798 17.0547 7.21344C16.6685 6.82891 16.4292 6.32127 16.3783 5.77868C16.2443 4.37718 16.1248 2.54468 16.2878 1.53418L16.4393 1.53918Z" fill="white"/>
<path d="M13.8945 16.5C13.8945 19.8135 11.208 22.5 7.89453 22.5C4.58103 22.5 1.89453 19.8135 1.89453 16.5C1.89453 13.1865 4.58103 10.5 7.89453 10.5C11.208 10.5 13.8945 13.1865 13.8945 16.5Z" fill="white"/>
<path d="M14.9646 21.4935C17.5241 21.462 19.3361 21.3215 20.5186 21.1865C21.6186 21.0605 22.4436 20.235 22.5646 19.134C22.7241 17.689 22.8946 15.2635 22.8946 11.5C22.8946 10.062 22.8696 8.81951 22.8296 7.75201C22.6541 7.26101 22.0546 5.96801 20.1966 4.14701C18.2261 2.21501 16.8616 1.67101 16.4371 1.53851C15.5898 1.51236 14.7422 1.49953 13.8946 1.50001C10.7626 1.50001 8.61157 1.66001 7.27057 1.81351C6.17007 1.93951 5.34557 2.76501 5.22457 3.86601C5.11207 4.88301 4.99457 6.38601 4.93457 8.50001" stroke="#5E35F2" stroke-width="2" stroke-linecap="round" stroke-linejoin="round"/>
<path d="M22.8364 7.97968C21.7929 8.13468 19.9164 8.01568 18.4924 7.88368C17.9496 7.83511 17.441 7.59798 17.0548 7.21344C16.6686 6.82891 16.4293 6.32127 16.3784 5.77868C16.2439 4.37718 16.1249 2.54468 16.2879 1.53418" stroke="#5E35F2" stroke-width="2" stroke-linecap="round" stroke-linejoin="round"/>
<path d="M1.89453 16.5C1.89453 18.0913 2.52667 19.6174 3.65189 20.7426C4.77711 21.8679 6.30323 22.5 7.89453 22.5C9.48583 22.5 11.012 21.8679 12.1372 20.7426C13.2624 19.6174 13.8945 18.0913 13.8945 16.5C13.8945 14.9087 13.2624 13.3826 12.1372 12.2574C11.012 11.1321 9.48583 10.5 7.89453 10.5C6.30323 10.5 4.77711 11.1321 3.65189 12.2574C2.52667 13.3826 1.89453 14.9087 1.89453 16.5Z" stroke="#5E35F2" stroke-width="2" stroke-linecap="round" stroke-linejoin="round"/>
<path d="M10.3945 14.5L7.45353 18.5L5.39453 16.1665" stroke="#5E35F2" stroke-width="2" stroke-linecap="round" stroke-linejoin="round"/>
</g>
<defs>
<clipPath id="clip0_526_11645">
<rect width="24" height="24" fill="white" transform="translate(0.394531)"/>
</clipPath>
</defs>
</svg>
