<svg width="24" height="24" viewBox="0 0 24 24" fill="none" xmlns="http://www.w3.org/2000/svg">
<path d="M19.8018 4.14702C17.8298 2.21402 16.4653 1.67052 16.0418 1.53802C15.1948 1.51205 14.3476 1.49938 13.5003 1.50002C10.3683 1.50002 8.21726 1.66002 6.87626 1.81352C5.77576 1.93952 4.95126 2.76502 4.83026 3.86602C4.71476 4.91402 4.59326 6.47702 4.53526 8.69252C4.53026 8.87152 4.71126 8.99752 4.88026 8.93902C5.72297 8.64749 6.60854 8.4991 7.50026 8.50002C11.9188 8.50002 15.5003 12.0815 15.5003 16.5C15.5003 18.204 14.9673 19.784 14.0593 21.0815C13.9393 21.2535 14.0588 21.4985 14.2688 21.4965C16.9878 21.473 18.8958 21.3265 20.1238 21.1865C21.2248 21.0605 22.0488 20.235 22.1703 19.134C22.3298 17.689 22.5003 15.2635 22.5003 11.5C22.5003 10.063 22.4753 8.82152 22.4353 7.75502C22.2603 7.26502 21.6623 5.97102 19.8018 4.14702Z" fill="url(#paint0_linear_584_6866)"/>
<path d="M16.0448 1.53918C16.4713 1.67268 17.8348 2.21818 19.8023 4.14718C21.6528 5.96168 22.2548 7.25168 22.4333 7.74718L22.4418 7.97918C21.3983 8.13468 19.5218 8.01568 18.0978 7.88368C17.555 7.83511 17.0463 7.59798 16.6602 7.21344C16.274 6.82891 16.0347 6.32127 15.9838 5.77868C15.8498 4.37718 15.7303 2.54468 15.8933 1.53418L16.0448 1.53918Z" fill="url(#paint1_linear_584_6866)"/>
<path d="M13.5 16.5C13.5 19.8135 10.8135 22.5 7.5 22.5C4.1865 22.5 1.5 19.8135 1.5 16.5C1.5 13.1865 4.1865 10.5 7.5 10.5C10.8135 10.5 13.5 13.1865 13.5 16.5Z" fill="url(#paint2_linear_584_6866)"/>
<path d="M14.57 21.4935C17.1295 21.462 18.9415 21.3215 20.124 21.1865C21.224 21.0605 22.049 20.235 22.17 19.134C22.3295 17.689 22.5 15.2635 22.5 11.5C22.5 10.062 22.475 8.81951 22.435 7.75201C22.2595 7.26101 21.66 5.96801 19.802 4.14701C17.8315 2.21501 16.467 1.67101 16.0425 1.53851C15.1953 1.51236 14.3477 1.49953 13.5 1.50001C10.368 1.50001 8.21704 1.66001 6.87604 1.81351C5.77554 1.93951 4.95104 2.76501 4.83004 3.86601C4.71754 4.88301 4.60004 6.38601 4.54004 8.50001" stroke="white" stroke-width="2" stroke-linecap="round" stroke-linejoin="round"/>
<path d="M22.4419 7.97968C21.3984 8.13468 19.5219 8.01568 18.0979 7.88368C17.5551 7.83511 17.0464 7.59798 16.6603 7.21344C16.2741 6.82891 16.0348 6.32127 15.9839 5.77868C15.8494 4.37718 15.7304 2.54468 15.8934 1.53418" stroke="white" stroke-width="2" stroke-linecap="round" stroke-linejoin="round"/>
<path d="M1.5 16.5C1.5 18.0913 2.13214 19.6174 3.25736 20.7426C4.38258 21.8679 5.9087 22.5 7.5 22.5C9.0913 22.5 10.6174 21.8679 11.7426 20.7426C12.8679 19.6174 13.5 18.0913 13.5 16.5C13.5 14.9087 12.8679 13.3826 11.7426 12.2574C10.6174 11.1321 9.0913 10.5 7.5 10.5C5.9087 10.5 4.38258 11.1321 3.25736 12.2574C2.13214 13.3826 1.5 14.9087 1.5 16.5Z" stroke="white" stroke-width="2" stroke-linecap="round" stroke-linejoin="round"/>
<path d="M10 14.5L7.059 18.5L5 16.1665" stroke="white" stroke-width="2" stroke-linecap="round" stroke-linejoin="round"/>
<defs>
<linearGradient id="paint0_linear_584_6866" x1="22.5003" y1="21.4965" x2="0.577245" y2="7.86564" gradientUnits="userSpaceOnUse">
<stop stop-color="#5E35F2"/>
<stop offset="1" stop-color="#05E4F2"/>
</linearGradient>
<linearGradient id="paint1_linear_584_6866" x1="22.4418" y1="8.05287" x2="14.9411" y2="2.77539" gradientUnits="userSpaceOnUse">
<stop stop-color="#5E35F2"/>
<stop offset="1" stop-color="#05E4F2"/>
</linearGradient>
<linearGradient id="paint2_linear_584_6866" x1="13.5" y1="22.5" x2="-0.22913" y2="12.9985" gradientUnits="userSpaceOnUse">
<stop stop-color="#5E35F2"/>
<stop offset="1" stop-color="#05E4F2"/>
</linearGradient>
</defs>
</svg>
