<svg width="18" height="21" viewBox="0 0 18 21" fill="none" xmlns="http://www.w3.org/2000/svg">
<path d="M10.9418 11.8091C11.7485 11.3849 12.4265 10.7348 12.9003 9.93149C13.374 9.12816 13.6247 8.20313 13.6246 7.25958C13.6246 4.44708 11.4421 2.16699 8.75001 2.16699C6.0579 2.16699 3.87541 4.44708 3.87541 7.25958C3.87523 8.20308 4.12594 9.12807 4.59958 9.9314C5.07321 10.7347 5.75115 11.3848 6.55777 11.8091C4.33451 12.6128 2.65012 14.6045 2.21362 17.0489C2.0727 17.8388 2.51274 18.4846 3.27539 18.5878C4.20423 18.7133 5.85051 18.8337 8.75001 18.8337C11.6495 18.8337 13.2958 18.7133 14.2242 18.5883C14.9868 18.4846 15.4273 17.8388 15.2864 17.0489C14.8499 14.6045 13.1651 12.6128 10.9418 11.8091Z" fill="#676872" fill-opacity="0.2"/>
<path d="M10.9418 11.8091C11.7485 11.3849 12.4265 10.7348 12.9003 9.93149C13.374 9.12816 13.6247 8.20313 13.6246 7.25959C13.6246 4.44708 11.4421 2.16699 8.75001 2.16699C6.0579 2.16699 3.87541 4.44708 3.87541 7.25959C3.87523 8.20308 4.12594 9.12807 4.59958 9.9314C5.07321 10.7347 5.75115 11.3848 6.55777 11.8091C4.33451 12.6128 2.65012 14.6045 2.21362 17.0489C2.0727 17.8388 2.51274 18.4846 3.27539 18.5878C4.20423 18.7133 5.85051 18.8337 8.75001 18.8337C11.6495 18.8337 13.2958 18.7133 14.2242 18.5883C14.9868 18.4846 15.4273 17.8388 15.2864 17.0489C14.8499 14.6045 13.1651 12.6128 10.9418 11.8091Z" stroke="#676872" stroke-linecap="round" stroke-linejoin="round"/>
</svg>
