<svg width="20" height="21" viewBox="0 0 20 21" fill="none" xmlns="http://www.w3.org/2000/svg">
<path d="M15.4066 9.86934C15.4066 13.9025 11.239 16.7774 10.082 17.4979C9.99385 17.5537 9.89165 17.5833 9.78731 17.5833C9.68296 17.5833 9.58077 17.5537 9.4926 17.4979C8.33596 16.7774 4.16797 13.9025 4.16797 9.86934C4.16797 6.7659 6.68387 4.25 9.78731 4.25C12.8907 4.25 15.4066 6.7659 15.4066 9.86934Z" fill="#676872" fill-opacity="0.2"/>
<path d="M12.284 9.86858C12.284 10.531 12.0209 11.1662 11.5525 11.6346C11.0842 12.1029 10.4489 12.3661 9.78655 12.3661C9.12417 12.3661 8.48893 12.1029 8.02056 11.6346C7.55219 11.1662 7.28906 10.531 7.28906 9.86858C7.28906 9.2062 7.55219 8.57096 8.02056 8.10259C8.48893 7.63422 9.12417 7.37109 9.78655 7.37109C10.4489 7.37109 11.0842 7.63422 11.5525 8.10259C12.0209 8.57096 12.284 9.2062 12.284 9.86858Z" fill="white"/>
<path d="M15.4066 9.86934C15.4066 13.9025 11.239 16.7774 10.082 17.4979C9.99385 17.5537 9.89165 17.5833 9.78731 17.5833C9.68296 17.5833 9.58077 17.5537 9.4926 17.4979C8.33596 16.7774 4.16797 13.9025 4.16797 9.86934C4.16797 6.7659 6.68387 4.25 9.78731 4.25C12.8907 4.25 15.4066 6.7659 15.4066 9.86934Z" stroke="#676872" stroke-linecap="round" stroke-linejoin="round"/>
<path d="M12.284 9.86858C12.284 10.531 12.0209 11.1662 11.5525 11.6346C11.0842 12.1029 10.4489 12.3661 9.78655 12.3661C9.12417 12.3661 8.48893 12.1029 8.02056 11.6346C7.55219 11.1662 7.28906 10.531 7.28906 9.86858C7.28906 9.2062 7.55219 8.57096 8.02056 8.10259C8.48893 7.63422 9.12417 7.37109 9.78655 7.37109C10.4489 7.37109 11.0842 7.63422 11.5525 8.10259C12.0209 8.57096 12.284 9.2062 12.284 9.86858Z" stroke="#676872" stroke-linecap="round" stroke-linejoin="round"/>
</svg>
