<svg width="20" height="21" viewBox="0 0 20 21" fill="none" xmlns="http://www.w3.org/2000/svg">
<path d="M3.5037 15.2957C3.56953 16.0032 4.1212 16.5348 4.82953 16.5886C5.83953 16.6648 7.52661 16.7507 9.9987 16.7507C12.4708 16.7507 14.1579 16.6648 15.1679 16.5882C15.8762 16.5348 16.4279 16.0032 16.4937 15.2957C16.577 14.3994 16.6654 12.9669 16.6654 10.9173C16.6654 8.86732 16.577 7.43523 16.4937 6.53898C16.4279 5.83148 15.8762 5.29982 15.1679 5.24607C14.1579 5.16982 12.4712 5.08398 9.9987 5.08398C7.5262 5.08398 5.83953 5.16982 4.82995 5.24648C4.12161 5.29982 3.56953 5.83148 3.5037 6.53898C3.42036 7.43523 3.33203 8.86732 3.33203 10.9173C3.33203 12.9673 3.42036 14.3994 3.5037 15.2957Z" fill="#676872" fill-opacity="0.2"/>
<path d="M16.6597 10.0857C16.6397 8.47357 16.5647 7.30857 16.493 6.53898C16.4272 5.83148 15.8751 5.29982 15.1668 5.24607C14.1572 5.16982 12.4705 5.08398 9.99802 5.08398C7.5251 5.08398 5.83885 5.16982 4.82885 5.24648C4.12052 5.29982 3.56844 5.83148 3.5026 6.53898C3.43135 7.30857 3.35594 8.47357 3.33594 10.0857C4.98469 10.8923 8.60719 12.584 9.99802 12.584C11.3889 12.584 15.0114 10.8923 16.6597 10.0857Z" fill="#676872" fill-opacity="0.2"/>
<path d="M3.5037 15.2957C3.56953 16.0032 4.1212 16.5348 4.82953 16.5886C5.83953 16.6648 7.52661 16.7507 9.9987 16.7507C12.4708 16.7507 14.1579 16.6648 15.1679 16.5882C15.8762 16.5348 16.4279 16.0032 16.4937 15.2957C16.577 14.3994 16.6654 12.9669 16.6654 10.9173C16.6654 8.86732 16.577 7.43523 16.4937 6.53898C16.4279 5.83148 15.8762 5.29982 15.1679 5.24607C14.1579 5.16982 12.4712 5.08398 9.9987 5.08398C7.5262 5.08398 5.83953 5.16982 4.82995 5.24648C4.12161 5.29982 3.56953 5.83148 3.5037 6.53898C3.42036 7.43523 3.33203 8.86732 3.33203 10.9173C3.33203 12.9673 3.42036 14.3994 3.5037 15.2957Z" stroke="#676872" stroke-linejoin="round"/>
<path d="M3.33203 10.084C3.33203 10.084 8.17203 12.584 9.9987 12.584C11.8249 12.584 16.6654 10.084 16.6654 10.084" stroke="#676872" stroke-linecap="round" stroke-linejoin="round"/>
</svg>
