<svg width="20" height="21" viewBox="0 0 20 21" fill="none" xmlns="http://www.w3.org/2000/svg">
<path d="M1.2527 2.80333C1.27229 2.1925 1.80145 1.75 2.4127 1.75H4.15854C4.60082 1.74991 5.03165 1.89057 5.38867 2.15163C5.74569 2.41269 6.01036 2.78059 6.14437 3.20208L6.87437 5.5H16.866C17.8665 5.5 18.6423 6.37667 18.4615 7.36083C18.1227 9.20583 17.6165 11.1633 17.049 12.7762C16.8069 13.4625 16.2377 13.9621 15.5156 14.0537C14.7381 14.1529 13.506 14.25 11.6656 14.25C9.87979 14.25 8.62812 14.1583 7.80645 14.0625C6.99395 13.9679 6.36062 13.3854 6.11395 12.605C5.20604 9.7375 4.60437 7.19167 3.74937 4.25H2.41187C1.80187 4.25 1.2727 3.8075 1.25312 3.19667C1.24896 3.06559 1.24896 2.93441 1.25312 2.80333H1.2527Z" fill="#676872" fill-opacity="0.2"/>
<path d="M14.168 17.5827C14.168 18.0247 14.3436 18.4486 14.6561 18.7612C14.9687 19.0738 15.3926 19.2493 15.8346 19.2493C16.2767 19.2493 16.7006 19.0738 17.0131 18.7612C17.3257 18.4486 17.5013 18.0247 17.5013 17.5827C17.5013 17.1407 17.3257 16.7167 17.0131 16.4042C16.7006 16.0916 16.2767 15.916 15.8346 15.916C15.3926 15.916 14.9687 16.0916 14.6561 16.4042C14.3436 16.7167 14.168 17.1407 14.168 17.5827Z" fill="#F5F7F9"/>
<path d="M5.83594 17.5827C5.83594 18.0247 6.01153 18.4486 6.32409 18.7612C6.63665 19.0738 7.06058 19.2493 7.5026 19.2493C7.94463 19.2493 8.36855 19.0738 8.68112 18.7612C8.99368 18.4486 9.16927 18.0247 9.16927 17.5827C9.16927 17.1407 8.99368 16.7167 8.68112 16.4042C8.36855 16.0916 7.94463 15.916 7.5026 15.916C7.06058 15.916 6.63665 16.0916 6.32409 16.4042C6.01153 16.7167 5.83594 17.1407 5.83594 17.5827Z" fill="#F5F7F9"/>
<path d="M1.25311 2.80333C1.2727 2.1925 1.80186 1.75 2.41311 1.75H4.15895C4.60123 1.74991 5.03206 1.89057 5.38908 2.15163C5.7461 2.41269 6.01077 2.78059 6.14478 3.20208L6.8752 5.5H16.8669C17.8677 5.5 18.6431 6.37667 18.4623 7.36083C18.1235 9.20583 17.6177 11.1633 17.0498 12.7762C16.8077 13.4625 16.2385 13.9621 15.5164 14.0537C14.7389 14.1529 13.5069 14.25 11.6664 14.25C9.88061 14.25 8.62895 14.1583 7.80728 14.0625C6.99478 13.9679 6.36145 13.3854 6.11478 12.605C5.20645 9.7375 4.60436 7.19167 3.7502 4.25H2.4127C1.80186 4.25 1.2727 3.8075 1.25311 3.19667C1.24896 3.06559 1.24896 2.93441 1.25311 2.80333Z" stroke="#676872" stroke-linecap="round" stroke-linejoin="round"/>
<path d="M14.168 17.5827C14.168 18.0247 14.3436 18.4486 14.6561 18.7612C14.9687 19.0738 15.3926 19.2493 15.8346 19.2493C16.2767 19.2493 16.7006 19.0738 17.0131 18.7612C17.3257 18.4486 17.5013 18.0247 17.5013 17.5827C17.5013 17.1407 17.3257 16.7167 17.0131 16.4042C16.7006 16.0916 16.2767 15.916 15.8346 15.916C15.3926 15.916 14.9687 16.0916 14.6561 16.4042C14.3436 16.7167 14.168 17.1407 14.168 17.5827Z" stroke="#676872" stroke-linecap="round" stroke-linejoin="round"/>
<path d="M5.83594 17.5827C5.83594 18.0247 6.01153 18.4486 6.32409 18.7612C6.63665 19.0738 7.06058 19.2493 7.5026 19.2493C7.94463 19.2493 8.36855 19.0738 8.68112 18.7612C8.99368 18.4486 9.16927 18.0247 9.16927 17.5827C9.16927 17.1407 8.99368 16.7167 8.68112 16.4042C8.36855 16.0916 7.94463 15.916 7.5026 15.916C7.06058 15.916 6.63665 16.0916 6.32409 16.4042C6.01153 16.7167 5.83594 17.1407 5.83594 17.5827Z" stroke="#676872" stroke-linecap="round" stroke-linejoin="round"/>
<path d="M13.7526 9.875H9.58594" stroke="#676872" stroke-linecap="round" stroke-linejoin="round"/>
<path d="M11.668 7.79102V11.9577" stroke="#676872" stroke-linecap="round" stroke-linejoin="round"/>
</svg>
