<svg width="20" height="21" viewBox="0 0 20 21" fill="none" xmlns="http://www.w3.org/2000/svg">
<path d="M9.9987 4.25C13.6806 4.25 16.6654 7.23476 16.6654 10.9167C16.6654 14.5986 13.6806 17.5833 9.9987 17.5833C6.31679 17.5833 3.33203 14.5986 3.33203 10.9167C3.33203 7.23476 6.31679 4.25 9.9987 4.25Z" fill="white"/>
<path d="M9.99733 5.83789C12.8027 5.83789 15.0767 8.11186 15.0767 10.9173C15.0767 13.7227 12.8027 15.9966 9.99733 15.9966C7.19194 15.9966 4.91797 13.7227 4.91797 10.9173C4.91797 8.11186 7.19194 5.83789 9.99733 5.83789Z" fill="#676872" fill-opacity="0.2"/>
<path d="M9.9987 4.25C13.6806 4.25 16.6654 7.23476 16.6654 10.9167C16.6654 14.5986 13.6806 17.5833 9.9987 17.5833C6.31679 17.5833 3.33203 14.5986 3.33203 10.9167C3.33203 7.23476 6.31679 4.25 9.9987 4.25Z" stroke="#676872" stroke-linecap="round" stroke-linejoin="round"/>
<path d="M9.99733 5.83789C12.8027 5.83789 15.0767 8.11186 15.0767 10.9173C15.0767 13.7227 12.8027 15.9966 9.99733 15.9966C7.19194 15.9966 4.91797 13.7227 4.91797 10.9173C4.91797 8.11186 7.19194 5.83789 9.99733 5.83789Z" stroke="#676872" stroke-linecap="round" stroke-linejoin="round"/>
<path d="M11.4275 9.31278C11.4275 9.31278 10.856 8.875 9.99888 8.875C9.2846 8.875 8.57031 9.31246 8.57031 9.89563C8.57031 11.3531 11.4275 10.4785 11.4275 11.9363C11.4275 12.5194 10.7132 12.9566 9.99888 12.9566C9.14174 12.9566 8.57031 12.5194 8.57031 12.5194" stroke="#676872" stroke-linecap="round" stroke-linejoin="round"/>
<path d="M10 8.87478V8.05859" stroke="#676872" stroke-linecap="round" stroke-linejoin="round"/>
<path d="M10 13.7729V12.957" stroke="#676872" stroke-linecap="round" stroke-linejoin="round"/>
</svg>
