<svg width="20" height="21" viewBox="0 0 20 21" fill="none" xmlns="http://www.w3.org/2000/svg">
<path d="M16.6464 1.8975C17.7118 1.97333 18.5255 2.7875 18.6018 3.85333C18.678 4.91792 18.7493 6.48667 18.7493 8.625C18.7493 10.7638 18.678 12.3321 18.6018 13.3971C18.5259 14.4625 17.7118 15.2763 16.6459 15.3525C16.178 15.3858 15.6126 15.4188 14.9439 15.4446C14.9772 14.5925 14.9993 13.5733 14.9993 12.375C14.9993 10.2363 14.928 8.66792 14.8518 7.60333C14.7759 6.5375 13.9618 5.72333 12.8959 5.6475C11.8318 5.57083 10.2634 5.5 8.12427 5.5C6.92594 5.5 5.90677 5.5225 5.05469 5.55542C5.08052 4.88667 5.11302 4.32125 5.14635 3.85333C5.2226 2.7875 6.03677 1.97333 7.1026 1.8975C8.16719 1.82083 9.73594 1.75 11.8743 1.75C14.013 1.75 15.5814 1.82125 16.6464 1.8975Z" fill="white"/>
<path d="M14.8525 7.60292C14.7767 6.5375 13.9625 5.72375 12.8967 5.6475C11.8321 5.57083 10.2633 5.5 8.125 5.5C5.98625 5.5 4.41792 5.57125 3.35333 5.6475C2.2875 5.72333 1.47333 6.5375 1.3975 7.60333C1.32083 8.6675 1.25 10.2362 1.25 12.375C1.25 14.5138 1.32125 16.0821 1.3975 17.1471C1.47333 18.2125 2.2875 19.0262 3.35333 19.1025C4.41792 19.1788 5.98667 19.25 8.125 19.25C10.2638 19.25 11.8321 19.1788 12.8967 19.1025C13.9625 19.0267 14.7767 18.2125 14.8525 17.1467C14.9288 16.0821 15 14.5133 15 12.375C15 10.2362 14.9288 8.66792 14.8525 7.60292Z" fill="#676872" fill-opacity="0.2"/>
<path d="M10.0115 13.3027C10.5183 12.9464 10.8985 12.438 11.097 11.8511C11.2955 11.2643 11.3019 10.6295 11.1154 10.0387C10.929 9.44792 10.5592 8.93187 10.0598 8.56532C9.56035 8.19877 8.95718 8.00077 8.33767 8C7.71817 7.99923 7.11451 8.19574 6.61417 8.56105C6.11383 8.92636 5.7428 9.44149 5.55486 10.0318C5.36691 10.6221 5.3718 11.2569 5.56883 11.8443C5.76585 12.4316 6.14477 12.941 6.65068 13.2985C5.61068 13.6873 4.78193 14.4273 4.35902 15.3485C4.08985 15.9339 4.42568 16.6348 5.06902 16.6735L5.08735 16.6748C6.16569 16.7277 7.24522 16.7527 8.32485 16.7498C9.7036 16.7498 10.7723 16.716 11.5623 16.6748L11.5811 16.6735C12.224 16.6348 12.5603 15.9339 12.2911 15.3485C11.8694 14.4306 11.0457 13.6927 10.0115 13.3027Z" fill="white"/>
<path d="M5.21875 3.41667C5.44833 2.57333 6.17292 1.96417 7.0825 1.89875C8.1475 1.82208 9.72208 1.75 11.8742 1.75C14.0129 1.75 15.5812 1.82125 16.6458 1.8975C17.7117 1.97333 18.5258 2.7875 18.6017 3.85333C18.6779 4.91792 18.7492 6.48667 18.7492 8.625C18.7492 10.7771 18.6771 12.3517 18.6004 13.4167C18.535 14.3262 17.9254 15.0508 17.0825 15.2804" stroke="#676872" stroke-linecap="round" stroke-linejoin="round"/>
<path d="M14.8525 7.60292C14.7767 6.5375 13.9625 5.72375 12.8967 5.6475C11.8321 5.57083 10.2633 5.5 8.125 5.5C5.98625 5.5 4.41792 5.57125 3.35333 5.6475C2.2875 5.72333 1.47333 6.5375 1.3975 7.60333C1.32083 8.6675 1.25 10.2362 1.25 12.375C1.25 14.5137 1.32125 16.0821 1.3975 17.1471C1.47333 18.2125 2.2875 19.0262 3.35333 19.1025C4.41792 19.1787 5.98667 19.25 8.125 19.25C10.2637 19.25 11.8321 19.1787 12.8967 19.1025C13.9625 19.0267 14.7767 18.2125 14.8525 17.1467C14.9287 16.0821 15 14.5133 15 12.375C15 10.2362 14.9287 8.66792 14.8525 7.60292Z" stroke="#676872" stroke-linecap="round" stroke-linejoin="round"/>
<path d="M10.0115 13.3027C10.5183 12.9464 10.8985 12.438 11.097 11.8511C11.2955 11.2643 11.3019 10.6295 11.1154 10.0387C10.929 9.44792 10.5592 8.93187 10.0598 8.56532C9.56035 8.19877 8.95718 8.00077 8.33767 8C7.71817 7.99923 7.11451 8.19574 6.61417 8.56105C6.11383 8.92636 5.7428 9.44149 5.55486 10.0318C5.36691 10.6221 5.3718 11.2569 5.56883 11.8443C5.76585 12.4316 6.14477 12.941 6.65068 13.2985C5.61068 13.6873 4.78193 14.4273 4.35902 15.3485C4.08985 15.9339 4.42568 16.6348 5.06902 16.6735L5.08735 16.6748C6.16569 16.7277 7.24522 16.7527 8.32485 16.7498C9.7036 16.7498 10.7723 16.716 11.5623 16.6748L11.5811 16.6735C12.224 16.6348 12.5603 15.9339 12.2911 15.3485C11.8694 14.4306 11.0457 13.6927 10.0115 13.3027Z" stroke="#676872" stroke-linecap="round" stroke-linejoin="round"/>
</svg>
