<svg width="20" height="21" viewBox="0 0 20 21" fill="none" xmlns="http://www.w3.org/2000/svg">
<path d="M16.6654 7.4246C16.6654 5.67127 15.2441 4.25 13.4908 4.25H13.3101C13.1198 4.25003 12.9339 4.30709 12.7763 4.41381C12.6187 4.52053 12.4967 4.67201 12.426 4.84873L11.6431 6.80556C11.5508 7.03628 11.5282 7.28902 11.5782 7.53246C11.6281 7.7759 11.7484 7.99934 11.9241 8.17508L12.9009 9.1519C13.0574 9.30841 13.1231 9.53603 13.059 9.7481C12.7546 10.7454 12.2097 11.6527 11.4724 12.39C10.735 13.1274 9.82779 13.6722 8.83044 13.9767C8.61838 14.0411 8.39076 13.9751 8.23425 13.8186L7.25743 12.8417C7.08168 12.666 6.85825 12.5458 6.61481 12.4958C6.37137 12.4459 6.11863 12.4685 5.8879 12.5608L3.93076 13.3437C3.75405 13.4143 3.60256 13.5363 3.49584 13.6939C3.38912 13.8515 3.33206 14.0375 3.33203 14.2278V14.4087C3.33203 16.1621 4.7533 17.5833 6.50663 17.5833H6.66536C12.0971 17.5833 16.5174 13.2525 16.6619 7.85571C16.6619 7.85413 16.6625 7.85254 16.6635 7.85159C16.664 7.85107 16.6645 7.85043 16.6648 7.84972C16.6652 7.84901 16.6653 7.84824 16.6654 7.84746V7.4246Z" fill="#676872" fill-opacity="0.2"/>
<path d="M16.6654 7.4246C16.6654 5.67127 15.2441 4.25 13.4908 4.25H13.3101C13.1198 4.25003 12.9339 4.30709 12.7763 4.41381C12.6187 4.52053 12.4967 4.67201 12.426 4.84873L11.6431 6.80556C11.5508 7.03628 11.5282 7.28902 11.5782 7.53246C11.6281 7.7759 11.7484 7.99934 11.9241 8.17508L12.9009 9.1519C13.0574 9.30841 13.1231 9.53603 13.059 9.74809C12.7546 10.7454 12.2097 11.6527 11.4724 12.39C10.735 13.1274 9.82779 13.6722 8.83044 13.9767C8.61838 14.0411 8.39076 13.9751 8.23425 13.8186L7.25743 12.8417C7.08168 12.666 6.85825 12.5458 6.61481 12.4958C6.37137 12.4459 6.11863 12.4685 5.8879 12.5608L3.93076 13.3437C3.75405 13.4143 3.60256 13.5363 3.49584 13.6939C3.38912 13.8515 3.33206 14.0375 3.33203 14.2278V14.4087C3.33203 16.1621 4.7533 17.5833 6.50663 17.5833H6.66536C12.0971 17.5833 16.5174 13.2525 16.6619 7.85571C16.6619 7.85413 16.6625 7.85254 16.6635 7.85159C16.664 7.85107 16.6645 7.85043 16.6648 7.84972C16.6652 7.84901 16.6653 7.84824 16.6654 7.84746V7.4246Z" stroke="#676872" stroke-linejoin="round"/>
</svg>
