<svg width="24" height="25" viewBox="0 0 24 25" fill="none" xmlns="http://www.w3.org/2000/svg">
<path d="M7.8939 15.0496C7.8364 16.0371 6.8904 16.4461 6.1419 15.7996C5.49375 15.2348 4.86344 14.6498 4.2519 14.0456C2.9689 12.7861 2.2719 11.8626 1.9004 11.2741C1.75123 11.0435 1.67187 10.7747 1.67188 10.5001C1.67188 10.2254 1.75123 9.95666 1.9004 9.72607C2.2714 9.13757 2.9689 8.21357 4.2524 6.95457C4.86363 6.35069 5.49361 5.76607 6.1414 5.20157C6.8899 4.55407 7.8364 4.96357 7.8939 5.95157C7.9514 6.94357 7.9989 8.39907 7.9989 10.5001C7.9989 12.6016 7.9514 14.0576 7.8939 15.0496Z" fill="url(#paint0_linear_453_11369)"/>
<path d="M11.6705 16.1148C12.4195 16.6208 13.2775 16.2163 13.35 15.3153C13.4101 14.5267 13.4497 13.7368 13.469 12.9463C14.164 12.8973 14.781 12.8863 15.3025 12.8948C16.4365 12.9123 17.359 13.7078 17.6975 14.7898L19.0465 19.0948C19.21 19.6178 19.589 20.0513 20.1315 20.1268C20.3515 20.1578 20.6145 20.1793 20.9215 20.1793C21.2165 20.1793 21.471 20.1593 21.685 20.1303C22.226 20.0578 22.559 19.5763 22.5695 19.0303C22.609 16.9578 22.452 14.7968 22.2445 12.9258C21.913 9.93325 19.2125 7.89575 16.2015 7.85075C15.2866 7.83879 14.3723 7.80161 13.4595 7.73925C13.4392 7.05432 13.4027 6.36996 13.35 5.68675C13.2775 4.78525 12.4195 4.38075 11.67 4.88675C10.9985 5.34125 10.08 6.00475 8.88847 6.95525C7.41347 8.13125 6.56697 9.01475 6.08947 9.60525C5.65247 10.1463 5.65247 10.8553 6.08947 11.3958C6.56747 11.9868 7.41347 12.8703 8.88847 14.0458C10.0805 14.9968 10.9985 15.6608 11.6705 16.1148Z" fill="#05E4F2" fill-opacity="0.2"/>
<path d="M7.74903 4.87435C7.42303 4.73885 7.01703 4.78935 6.65053 5.07985C6.09053 5.52285 5.36753 6.13085 4.46403 6.95385C3.11453 8.18385 2.36703 9.09285 1.96003 9.68285C1.79038 9.92131 1.69922 10.2067 1.69922 10.4993C1.69922 10.792 1.79038 11.0774 1.96003 11.3158C2.36703 11.9058 3.11503 12.8158 4.46403 14.0448C5.36753 14.8683 6.09103 15.4768 6.65053 15.9198C7.01753 16.2098 7.42303 16.2608 7.74903 16.1258" stroke="#5E35F2" stroke-linecap="round" stroke-linejoin="round"/>
<path d="M11.6705 16.1143C12.4195 16.6203 13.2775 16.2158 13.35 15.3148C13.4101 14.5263 13.4497 13.7363 13.469 12.9458C14.164 12.8973 14.781 12.8858 15.3025 12.8943C16.4365 12.9118 17.359 13.7073 17.6975 14.7893L19.0465 19.0943C19.21 19.6173 19.589 20.0508 20.1315 20.1263C20.3515 20.1573 20.6145 20.1783 20.9215 20.1783C21.2165 20.1783 21.471 20.1583 21.685 20.1298C22.226 20.0573 22.559 19.5758 22.5695 19.0298C22.609 16.9573 22.452 14.7963 22.2445 12.9258C21.913 9.93278 19.2125 7.89528 16.2015 7.85078C15.2866 7.83865 14.3723 7.80131 13.4595 7.73878C13.4392 7.05368 13.4027 6.36915 13.35 5.68578C13.2775 4.78528 12.4195 4.38078 11.67 4.88678C10.9985 5.34078 10.08 6.00428 8.88847 6.95478C7.41347 8.13078 6.56697 9.01428 6.08947 9.60478C5.65247 10.1458 5.65247 10.8548 6.08947 11.3953C6.56747 11.9863 7.41347 12.8698 8.88847 14.0453C10.0805 14.9963 10.9985 15.6603 11.6705 16.1143Z" stroke="#5E35F2" stroke-linejoin="round"/>
<defs>
<linearGradient id="paint0_linear_453_11369" x1="1.40001" y1="10.5751" x2="10.7909" y2="13.2181" gradientUnits="userSpaceOnUse">
<stop stop-color="#FFF2F9"/>
<stop offset="1" stop-color="#F2EEFF"/>
</linearGradient>
</defs>
</svg>
