<svg width="16" height="17" viewBox="0 0 16 17" fill="none" xmlns="http://www.w3.org/2000/svg">
<g clip-path="url(#clip0_379_42795)">
<path d="M15.4665 15.9665L11.1999 11.6999M6.9332 13.8332C6.09274 13.8332 5.26051 13.6677 4.48403 13.346C3.70755 13.0244 3.00201 12.553 2.40772 11.9587C1.81342 11.3644 1.342 10.6589 1.02037 9.88238C0.698744 9.10589 0.533203 8.27366 0.533203 7.4332C0.533203 6.59274 0.698744 5.76051 1.02037 4.98403C1.342 4.20755 1.81342 3.50201 2.40772 2.90772C3.00201 2.31342 3.70755 1.842 4.48403 1.52037C5.26051 1.19874 6.09274 1.0332 6.9332 1.0332C8.63059 1.0332 10.2585 1.70749 11.4587 2.90772C12.6589 4.10795 13.3332 5.73582 13.3332 7.4332C13.3332 9.13059 12.6589 10.7585 11.4587 11.9587C10.2585 13.1589 8.63059 13.8332 6.9332 13.8332Z" stroke="#BDBECC"/>
</g>
<defs>
<clipPath id="clip0_379_42795">
<rect width="16" height="16" fill="white" transform="translate(0 0.5)"/>
</clipPath>
</defs>
</svg>
