<svg width="16" height="16" viewBox="0 0 16 16" fill="none" xmlns="http://www.w3.org/2000/svg">
<g clip-path="url(#clip0_652_813)">
<path d="M15.4665 15.4665L11.1999 11.1999M6.9332 13.3332C6.09274 13.3332 5.26051 13.1677 4.48403 12.846C3.70755 12.5244 3.00201 12.053 2.40772 11.4587C1.81342 10.8644 1.342 10.1589 1.02037 9.38238C0.698744 8.60589 0.533203 7.77366 0.533203 6.9332C0.533203 6.09274 0.698744 5.26051 1.02037 4.48403C1.342 3.70755 1.81342 3.00201 2.40772 2.40772C3.00201 1.81342 3.70755 1.342 4.48403 1.02037C5.26051 0.698744 6.09274 0.533203 6.9332 0.533203C8.63059 0.533203 10.2585 1.20749 11.4587 2.40772C12.6589 3.60795 13.3332 5.23582 13.3332 6.9332C13.3332 8.63059 12.6589 10.2585 11.4587 11.4587C10.2585 12.6589 8.63059 13.3332 6.9332 13.3332Z" stroke="#000425"/>
</g>
<defs>
<clipPath id="clip0_652_813">
<rect width="16" height="16" fill="white"/>
</clipPath>
</defs>
</svg>
