<svg width="40" height="40" viewBox="0 0 40 40" fill="none" xmlns="http://www.w3.org/2000/svg">
<path d="M2.94917 33.1192C3.1225 35.2483 4.75167 36.8775 6.88083 37.0508C9.57083 37.2692 13.8633 37.5 20 37.5C26.1367 37.5 30.4292 37.2692 33.1192 37.0508C35.2483 36.8775 36.8775 35.2483 37.0508 33.1192C37.2692 30.4292 37.5 26.1367 37.5 20C37.5 13.8633 37.2692 9.57083 37.0508 6.88083C36.8775 4.75167 35.2483 3.1225 33.1192 2.94917C30.4292 2.73083 26.1367 2.5 20 2.5C13.8633 2.5 9.57083 2.73083 6.88083 2.94917C4.75167 3.1225 3.1225 4.75167 2.94917 6.88083C2.73083 9.57083 2.5 13.8633 2.5 20C2.5 26.1367 2.73083 30.4292 2.94917 33.1192Z" fill="#F5F7F9"/>
<path d="M37.32 11.25H2.68083C2.76 9.48583 2.85583 8.03583 2.94917 6.88083C3.1225 4.75167 4.75167 3.1225 6.88167 2.94917C9.57167 2.73083 13.8642 2.5 20 2.5C26.1367 2.5 30.4292 2.73083 33.1192 2.94917C35.2492 3.1225 36.8775 4.75167 37.0517 6.88083C37.145 8.03583 37.2408 9.48583 37.32 11.25Z" fill="#FF5BEF"/>
<path d="M10 19.1667C10 19.1667 16.6667 22.5001 16.6667 24.1667C16.6667 25.8334 10 29.1667 10 29.1667" stroke="#5E35F2" stroke-width="2" stroke-linecap="round" stroke-linejoin="round"/>
<path d="M21.6667 28.3333H30" stroke="#5E35F2" stroke-width="2" stroke-linecap="round" stroke-linejoin="round"/>
<path d="M2.94917 33.1192C3.1225 35.2483 4.75167 36.8775 6.88083 37.0508C9.57083 37.2692 13.8633 37.5 20 37.5C26.1367 37.5 30.4292 37.2692 33.1192 37.0508C35.2483 36.8775 36.8775 35.2483 37.0508 33.1192C37.2692 30.4292 37.5 26.1367 37.5 20C37.5 13.8633 37.2692 9.57083 37.0508 6.88083C36.8775 4.75167 35.2483 3.1225 33.1192 2.94917C30.4292 2.73083 26.1367 2.5 20 2.5C13.8633 2.5 9.57083 2.73083 6.88083 2.94917C4.75167 3.1225 3.1225 4.75167 2.94917 6.88083C2.73083 9.57083 2.5 13.8633 2.5 20C2.5 26.1367 2.73083 30.4292 2.94917 33.1192Z" stroke="#5E35F2" stroke-width="2" stroke-linejoin="round"/>
<path d="M2.91667 11.25H37.0833" stroke="#5E35F2" stroke-width="2" stroke-linecap="round" stroke-linejoin="round"/>
<path d="M8.33333 7.08325H10" stroke="#5E35F2" stroke-width="2" stroke-linecap="round" stroke-linejoin="round"/>
<path d="M15 7.08325H16.6667" stroke="#5E35F2" stroke-width="2" stroke-linecap="round" stroke-linejoin="round"/>
</svg>
