<svg width="32" height="32" viewBox="0 0 32 32" fill="none" xmlns="http://www.w3.org/2000/svg">
<g clip-path="url(#clip0_357_4780)">
<path d="M2.39067 9.49067C2.53067 8.06867 3.504 6.92533 4.914 6.69333C6.902 6.36533 10.38 6 16 6C21.62 6 25.098 6.36533 27.0867 6.69333C28.496 6.92533 29.47 8.06867 29.6093 9.49067C29.7933 11.3553 30 14.284 30 18C30 21.716 29.7933 24.6447 29.6093 26.5093C29.4693 27.9313 28.496 29.0747 27.086 29.3067C25.098 29.6347 21.62 30 16 30C10.38 30 6.90267 29.6347 4.91333 29.3067C3.504 29.0747 2.53 27.9313 2.39067 26.5093C2.20667 24.6447 2 21.716 2 18C2 14.2847 2.20667 11.3553 2.39067 9.49067Z" fill="#05E4F2"/>
<path d="M29.9906 16.6473C26.3999 17.78 18.9799 20 15.9999 20C13.0199 20 5.59994 17.78 2.00928 16.6473C2.05128 13.5707 2.22928 11.1233 2.39061 9.49067C2.53061 8.06867 3.50394 6.92533 4.91394 6.69333C6.90194 6.36533 10.3799 6 15.9999 6C21.6199 6 25.0973 6.36533 27.0866 6.69333C28.4959 6.92533 29.4699 8.06867 29.6093 9.49067C29.7693 11.1233 29.9486 13.5707 29.9906 16.6473Z" fill="#F5F7F9"/>
<path d="M2.39067 9.49067C2.53067 8.06867 3.504 6.92533 4.914 6.69333C6.902 6.36533 10.38 6 16 6C21.62 6 25.098 6.36533 27.0867 6.69333C28.496 6.92533 29.47 8.06867 29.6093 9.49067C29.7933 11.3553 30 14.284 30 18C30 21.716 29.7933 24.6447 29.6093 26.5093C29.4693 27.9313 28.496 29.0747 27.086 29.3067C25.098 29.6347 21.62 30 16 30C10.38 30 6.90267 29.6347 4.91333 29.3067C3.504 29.0747 2.53 27.9313 2.39067 26.5093C2.20667 24.6447 2 21.716 2 18C2 14.2847 2.20667 11.3553 2.39067 9.49067Z" stroke="#5E35F2" stroke-width="3" stroke-linecap="round" stroke-linejoin="round"/>
<path d="M29.9906 16.6465C26.3999 17.7785 18.9799 19.9985 15.9999 19.9985C13.0199 19.9985 5.59994 17.7785 2.00928 16.6465" stroke="#5E35F2" stroke-width="3" stroke-linecap="round" stroke-linejoin="round"/>
<path d="M11.1587 6.13268C11.4634 5.19402 11.984 4.09802 12.3747 3.33002C12.6934 2.70468 13.268 2.25335 13.964 2.16002C14.639 2.07119 15.3192 2.02754 16 2.02935C16.83 2.02935 17.5187 2.09002 18.0354 2.16002C18.7314 2.25335 19.306 2.70468 19.6247 3.33002C20.0154 4.09802 20.536 5.19402 20.8407 6.13202" stroke="#5E35F2" stroke-width="3" stroke-linecap="round" stroke-linejoin="round"/>
</g>
<defs>
<clipPath id="clip0_357_4780">
<rect width="32" height="32" fill="white"/>
</clipPath>
</defs>
</svg>
