<svg width="32" height="32" viewBox="0 0 32 32" fill="none" xmlns="http://www.w3.org/2000/svg">
<path d="M3.77333 25.9432C3.06667 25.6052 2.56733 24.9605 2.45867 24.1845C2.26333 22.7859 2 20.1352 2 15.9992C2 11.8632 2.26333 9.21255 2.45867 7.81388L2.45933 7.81055C5.98133 9.51055 13.8667 13.1992 16 13.1992C18.1347 13.1992 26.0187 9.51121 29.54 7.81055L29.5413 7.81388C29.7367 9.21255 30 11.8632 30 15.9992C30 20.1352 29.7367 22.7859 29.5413 24.1845C29.4327 24.9605 28.9333 25.6052 28.2267 25.9432C25.684 27.1599 19.3853 29.9992 16 29.9992C12.6147 29.9992 6.316 27.1592 3.77333 25.9432Z" fill="#05E4F2"/>
<path d="M29.5408 7.81133C26.0188 9.51133 18.1348 13.2 16.0008 13.2C13.8655 13.2 5.98147 9.51133 2.45947 7.81067C2.56947 7.03733 3.06814 6.39333 3.77414 6.056C6.31614 4.83933 12.6148 2 16.0001 2C19.3848 2 25.6835 4.84 28.2261 6.056C28.9315 6.39333 29.4315 7.03667 29.5408 7.81133Z" fill="#F5F7F9"/>
<path d="M2.45867 24.1853C2.56733 24.9613 3.06667 25.606 3.77333 25.944C6.316 27.1607 12.6147 30 16 30C19.3853 30 25.684 27.16 28.2267 25.944C28.9333 25.606 29.4327 24.9613 29.5413 24.1853C29.7367 22.7867 30 20.136 30 16C30 11.864 29.7367 9.21333 29.5413 7.81467C29.4327 7.03867 28.9333 6.394 28.2267 6.056C25.684 4.83933 19.3853 2 16 2C12.6147 2 6.316 4.84 3.77333 6.056C3.06667 6.394 2.56733 7.03867 2.45867 7.81467C2.26333 9.21333 2 11.864 2 16C2 20.136 2.26333 22.7867 2.45867 24.1853Z" stroke="#5E35F2" stroke-width="2" stroke-linejoin="round"/>
<path d="M29.5205 7.83789C27.3552 8.90456 18.4758 13.2006 15.9998 13.2006C13.5232 13.2006 4.64385 8.90389 2.47852 7.83789" stroke="#5E35F2" stroke-width="2" stroke-linecap="round" stroke-linejoin="round"/>
<path d="M16 13.1992V29.8326" stroke="#5E35F2" stroke-width="2" stroke-linecap="round" stroke-linejoin="round"/>
</svg>
