<svg width="40" height="40" viewBox="0 0 40 40" fill="none" xmlns="http://www.w3.org/2000/svg">
<g clip-path="url(#clip0_1_1998)">
<path d="M9.57333 33.0582C9.7425 34.1499 9.91833 35.1432 10.065 35.9282C10.2733 37.0324 11.0583 37.919 12.1692 38.0865C13.0408 38.219 14.2517 38.3332 15.8333 38.3332C17.3375 38.3332 18.5733 38.2299 19.5142 38.1065C20.8342 37.9332 21.7592 36.8349 21.9025 35.5115L22.17 33.0432C22.0968 33.0588 22.0228 33.0705 21.9483 33.0782C20.7875 33.1999 18.83 33.3332 15.8333 33.3332C12.8367 33.3332 10.8792 33.1999 9.71833 33.0782C9.66978 33.0732 9.62142 33.0666 9.57333 33.0582Z" fill="#F5F7F9"/>
<path d="M9.57333 33.0582C9.7425 34.1499 9.91833 35.1432 10.065 35.9282C10.2733 37.0324 11.0583 37.919 12.1692 38.0865C13.0408 38.219 14.2517 38.3332 15.8333 38.3332C17.3375 38.3332 18.5733 38.2299 19.5142 38.1065C20.8342 37.9332 21.7592 36.8349 21.9025 35.5115L22.17 33.0432" stroke="#5E35F2" stroke-width="2" stroke-linecap="round" stroke-linejoin="round"/>
<path fill-rule="evenodd" clip-rule="evenodd" d="M22.3667 4.92659L21.2042 5.56242C18.025 7.30075 18.025 11.8658 21.2042 13.6041L24.2392 15.2641C24.4488 15.3788 24.6212 15.5511 24.7358 15.7608L26.395 18.7958C26.7141 19.3896 27.1622 19.9045 27.7062 20.3026C28.2503 20.7008 28.8766 20.972 29.5392 21.0966C28.752 24.0901 27.0068 26.7438 24.57 28.6524C24.3262 29.6262 24.0561 30.5932 23.76 31.5524C23.505 32.3841 22.8142 32.9883 21.9483 33.0791C20.7875 33.1999 18.83 33.3333 15.8333 33.3333C12.8367 33.3333 10.8792 33.1999 9.71833 33.0791C8.8525 32.9883 8.16167 32.3841 7.90583 31.5516C7.61027 30.5927 7.34073 29.6259 7.0975 28.6524C5.40401 27.3286 4.03467 25.6361 3.0936 23.7036C2.15253 21.7711 1.66452 19.6494 1.66667 17.4999C1.66667 9.67575 8.00917 3.33325 15.8333 3.33325C18.19 3.33325 20.4117 3.90825 22.3667 4.92659Z" fill="#FF5BEF"/>
<path d="M29.6858 2.16999C29.7576 2.03892 29.8634 1.92958 29.9919 1.85341C30.1205 1.77725 30.2672 1.73706 30.4167 1.73706C30.5661 1.73706 30.7128 1.77725 30.8414 1.85341C30.97 1.92958 31.0757 2.03892 31.1475 2.16999L32.8075 5.20499C33.2663 6.0439 33.9561 6.73366 34.795 7.19249L37.83 8.85249C37.9611 8.92429 38.0704 9.03002 38.1466 9.1586C38.2227 9.28718 38.2629 9.43387 38.2629 9.58332C38.2629 9.73276 38.2227 9.87946 38.1466 10.008C38.0704 10.1366 37.9611 10.2423 37.83 10.3142L34.795 11.9742C33.9561 12.433 33.2663 13.1227 32.8075 13.9617L31.1475 16.9967C31.0757 17.1277 30.97 17.2371 30.8414 17.3132C30.7128 17.3894 30.5661 17.4296 30.4167 17.4296C30.2672 17.4296 30.1205 17.3894 29.9919 17.3132C29.8634 17.2371 29.7576 17.1277 29.6858 16.9967L28.0258 13.9617C27.567 13.1227 26.8772 12.433 26.0383 11.9742L23.0033 10.3142C22.8723 10.2423 22.7629 10.1366 22.6868 10.008C22.6106 9.87946 22.5704 9.73276 22.5704 9.58332C22.5704 9.43387 22.6106 9.28718 22.6868 9.1586C22.7629 9.03002 22.8723 8.92429 23.0033 8.85249L26.0383 7.19249C26.8772 6.73366 27.567 6.0439 28.0258 5.20499L29.6858 2.16999Z" fill="#F5F7F9"/>
<path d="M29.6858 2.16999C29.7576 2.03892 29.8634 1.92958 29.9919 1.85341C30.1205 1.77725 30.2672 1.73706 30.4167 1.73706C30.5661 1.73706 30.7128 1.77725 30.8414 1.85341C30.97 1.92958 31.0757 2.03892 31.1475 2.16999L32.8075 5.20499C33.2663 6.0439 33.9561 6.73366 34.795 7.19249L37.83 8.85249C37.9611 8.92429 38.0704 9.03002 38.1466 9.1586C38.2227 9.28718 38.2629 9.43387 38.2629 9.58332C38.2629 9.73276 38.2227 9.87946 38.1466 10.008C38.0704 10.1366 37.9611 10.2423 37.83 10.3142L34.795 11.9742C33.9561 12.433 33.2663 13.1227 32.8075 13.9617L31.1475 16.9967C31.0757 17.1277 30.97 17.2371 30.8414 17.3132C30.7128 17.3894 30.5661 17.4296 30.4167 17.4296C30.2672 17.4296 30.1205 17.3894 29.9919 17.3132C29.8634 17.2371 29.7576 17.1277 29.6858 16.9967L28.0258 13.9617C27.567 13.1227 26.8772 12.433 26.0383 11.9742L23.0033 10.3142C22.8723 10.2423 22.7629 10.1366 22.6868 10.008C22.6106 9.87946 22.5704 9.73276 22.5704 9.58332C22.5704 9.43387 22.6106 9.28718 22.6868 9.1586C22.7629 9.03002 22.8723 8.92429 23.0033 8.85249L26.0383 7.19249C26.8772 6.73366 27.567 6.0439 28.0258 5.20499L29.6858 2.16999Z" stroke="#5E35F2" stroke-width="2"/>
<path d="M21.25 4.40576C19.5326 3.69539 17.6919 3.33093 15.8333 3.33326C8.00917 3.33326 1.66667 9.67576 1.66667 17.4999C1.66667 22.0274 3.79083 26.0591 7.09667 28.6524C7.34015 29.6262 7.60997 30.5932 7.90583 31.5524C8.16167 32.3841 8.8525 32.9883 9.71833 33.0791C10.8792 33.1999 12.8367 33.3333 15.8333 33.3333C18.83 33.3333 20.7875 33.1999 21.9483 33.0791C22.8142 32.9883 23.505 32.3841 23.76 31.5516C23.9992 30.7741 24.3017 29.7349 24.57 28.6524C26.6733 27.0039 28.2689 24.7954 29.1733 22.2808" stroke="#5E35F2" stroke-width="2" stroke-linecap="round" stroke-linejoin="round"/>
</g>
<defs>
<clipPath id="clip0_1_1998">
<rect width="40" height="40" fill="white"/>
</clipPath>
</defs>
</svg>
