<svg width="32" height="32" viewBox="0 0 32 32" fill="none" xmlns="http://www.w3.org/2000/svg">
<path d="M4 16C4 20.914 4.15867 24.35 4.30867 26.5013C4.42667 28.2013 5.696 29.5273 7.39333 29.676C9.25333 29.84 12.0767 30 16 30C19.9233 30 22.7473 29.84 24.6067 29.676C26.304 29.5273 27.5733 28.2013 27.6913 26.5013C27.8413 24.35 28 20.9147 28 16H4Z" fill="#05E4F2"/>
<path d="M27.6332 26.9446C27.3439 28.4266 26.1532 29.5392 24.6066 29.6752C22.7466 29.8392 19.9232 29.9992 15.9999 29.9992C14.0066 29.9992 12.2979 29.9579 10.8552 29.8959C11.7763 28.9149 12.7136 27.9493 13.6666 26.9992C16.1872 24.4779 17.8446 22.9859 18.8732 22.1232C19.7559 21.3832 20.9232 21.2766 21.8706 21.9299C23.0419 22.7386 24.9152 24.2319 27.6332 26.9446Z" fill="#F5F7F9"/>
<path d="M12 22C12 22.5304 11.7893 23.0391 11.4142 23.4142C11.0391 23.7893 10.5304 24 10 24C9.46957 24 8.96086 23.7893 8.58579 23.4142C8.21071 23.0391 8 22.5304 8 22C8 21.4696 8.21071 20.9609 8.58579 20.5858C8.96086 20.2107 9.46957 20 10 20C10.5304 20 11.0391 20.2107 11.4142 20.5858C11.7893 20.9609 12 21.4696 12 22Z" fill="#F5F7F9"/>
<path d="M8.66675 11.334H23.3334" stroke="#5E35F2" stroke-width="2" stroke-linecap="round" stroke-linejoin="round"/>
<path d="M8.66675 7H16.6667" stroke="#5E35F2" stroke-width="2" stroke-linecap="round" stroke-linejoin="round"/>
<path d="M24.6067 2.324C26.304 2.47267 27.5733 3.79867 27.6913 5.49867C27.8413 7.65 28 11.0853 28 16C28 20.914 27.8413 24.35 27.6913 26.5013C27.5733 28.2013 26.304 29.5273 24.6067 29.676C22.7467 29.84 19.9233 30 16 30C12.0767 30 9.25267 29.84 7.39333 29.676C5.696 29.5273 4.42667 28.2013 4.30867 26.5013C4.15867 24.35 4 20.9147 4 16C4 11.086 4.15867 7.65 4.30867 5.49867C4.42667 3.79867 5.696 2.47267 7.39333 2.324C9.25333 2.16 12.0767 2 16 2C19.9233 2 22.7473 2.16 24.6067 2.324Z" stroke="#5E35F2" stroke-width="2" stroke-linecap="round" stroke-linejoin="round"/>
<path d="M27.6332 26.9459C24.9152 24.2325 23.0419 22.7392 21.8706 21.9319C20.9239 21.2785 19.7559 21.3852 18.8739 22.1252C17.8446 22.9872 16.1872 24.4792 13.6666 27.0005C12.7136 27.9505 11.7763 28.9162 10.8552 29.8972" stroke="#5E35F2" stroke-width="2" stroke-linecap="round" stroke-linejoin="round"/>
<path d="M12 22C12 22.5304 11.7893 23.0391 11.4142 23.4142C11.0391 23.7893 10.5304 24 10 24C9.46957 24 8.96086 23.7893 8.58579 23.4142C8.21071 23.0391 8 22.5304 8 22C8 21.4696 8.21071 20.9609 8.58579 20.5858C8.96086 20.2107 9.46957 20 10 20C10.5304 20 11.0391 20.2107 11.4142 20.5858C11.7893 20.9609 12 21.4696 12 22Z" stroke="#5E35F2" stroke-width="2" stroke-linecap="round" stroke-linejoin="round"/>
<path d="M28 16H4" stroke="#5E35F2" stroke-width="2" stroke-linecap="round" stroke-linejoin="round"/>
</svg>
