<svg width="32" height="32" viewBox="0 0 32 32" fill="none" xmlns="http://www.w3.org/2000/svg">
<path d="M28.2515 7.54802C28.6942 5.39136 28.6895 3.49002 28.6522 2.59469C28.6472 2.44256 28.5846 2.29802 28.477 2.19033C28.3695 2.08264 28.225 2.01985 28.0729 2.01469C26.4117 1.95267 24.7491 2.08716 23.1195 2.41536C22.6175 2.51802 22.4515 3.13203 22.8129 3.49402L27.1729 7.85402C27.5355 8.21602 28.1489 8.04936 28.2515 7.54802Z" fill="#F5F7F9"/>
<path d="M3.51133 29.9733C2.75933 29.9487 2.18333 29.494 2.10733 28.746C2.04667 28.1593 2 27.288 2 26C2 24.712 2.048 23.84 2.10667 23.254C2.18333 22.506 2.75933 22.0513 3.51133 22.026C3.956 22.0113 4.55133 22 5.33333 22C6.11533 22 6.71067 22.0113 7.15533 22.0267C7.90733 22.0513 8.48333 22.506 8.55933 23.254C8.61933 23.8407 8.66667 24.712 8.66667 26C8.66667 27.288 8.61867 28.16 8.56 28.746C8.48333 29.494 7.90733 29.9487 7.15533 29.974C6.71 29.9887 6.11533 30 5.33333 30C4.55133 30 3.956 29.9887 3.51133 29.9733Z" fill="#05E4F2"/>
<path d="M25.0382 29.9553C24.1715 29.902 23.5695 29.2767 23.5068 28.4107C23.4215 27.2367 23.3335 25.1107 23.3335 21.3327C23.3335 17.554 23.4215 15.4287 23.5068 14.2547C23.5695 13.3887 24.1715 12.7627 25.0382 12.71C25.4582 12.684 25.9935 12.666 26.6668 12.666C27.3402 12.666 27.8755 12.684 28.2955 12.71C29.1622 12.7633 29.7642 13.3887 29.8268 14.2547C29.9122 15.4287 30.0002 17.5547 30.0002 21.3327C30.0002 25.1113 29.9122 27.2367 29.8268 28.4107C29.7642 29.2767 29.1622 29.9027 28.2955 29.9553C27.8755 29.9813 27.3408 29.9993 26.6668 29.9993C25.9935 29.9993 25.4582 29.9813 25.0382 29.9553Z" fill="#05E4F2"/>
<path d="M14.3332 29.9681C13.4905 29.9315 12.8752 29.3681 12.8045 28.5281C12.7318 27.6628 12.6665 26.2575 12.6665 24.0001C12.6665 21.7428 12.7318 20.3375 12.8045 19.4721C12.8752 18.6321 13.4905 18.0688 14.3325 18.0321C14.888 18.0093 15.4439 17.9987 15.9998 18.0001C16.6945 18.0001 17.2412 18.0135 17.6665 18.0321C18.5092 18.0688 19.1245 18.6321 19.1952 19.4721C19.2678 20.3375 19.3332 21.7428 19.3332 24.0001C19.3332 26.2575 19.2678 27.6628 19.1952 28.5281C19.1245 29.3681 18.5092 29.9315 17.6672 29.9681C17.2412 29.9868 16.6945 30.0001 15.9998 30.0001C15.4441 30.0016 14.8884 29.9909 14.3332 29.9681Z" fill="#05E4F2"/>
<path d="M3.3335 17.3327C7.24016 12.6933 10.7895 10.022 12.4088 8.92468C12.9382 8.56535 13.6362 8.68268 14.0382 9.18002C14.8017 10.1312 15.5375 11.1043 16.2448 12.098C16.7835 12.8527 17.9202 12.8767 18.5168 12.1673C21.2742 8.89268 25.0008 5.66602 25.0008 5.66602" stroke="#5E35F2" stroke-width="2" stroke-linecap="round" stroke-linejoin="round"/>
<path d="M28.2505 7.54802C28.6932 5.39135 28.6886 3.49002 28.6512 2.59469C28.6462 2.44256 28.5836 2.29801 28.476 2.19032C28.3685 2.08263 28.224 2.01985 28.0719 2.01469C26.4108 1.95268 24.7481 2.08717 23.1186 2.41535C22.6166 2.51802 22.4505 3.13202 22.8119 3.49402L27.1719 7.85402C27.5345 8.21602 28.1479 8.04935 28.2505 7.54802Z" stroke="#5E35F2" stroke-width="2" stroke-linecap="round" stroke-linejoin="round"/>
<path d="M3.51133 29.9733C2.75933 29.9487 2.18333 29.494 2.10733 28.746C2.04667 28.1593 2 27.288 2 26C2 24.712 2.048 23.84 2.10667 23.254C2.18333 22.506 2.75933 22.0513 3.51133 22.026C3.956 22.0113 4.55133 22 5.33333 22C6.11533 22 6.71067 22.0113 7.15533 22.0267C7.90733 22.0513 8.48333 22.506 8.55933 23.254C8.61933 23.8407 8.66667 24.712 8.66667 26C8.66667 27.288 8.61867 28.16 8.56 28.746C8.48333 29.494 7.90733 29.9487 7.15533 29.974C6.71 29.9887 6.11533 30 5.33333 30C4.55133 30 3.956 29.9887 3.51133 29.9733Z" stroke="#5E35F2" stroke-width="2" stroke-linecap="round" stroke-linejoin="round"/>
<path d="M25.0382 29.9553C24.1715 29.902 23.5695 29.2767 23.5068 28.4107C23.4215 27.2367 23.3335 25.1107 23.3335 21.3327C23.3335 17.554 23.4215 15.4287 23.5068 14.2547C23.5695 13.3887 24.1715 12.7627 25.0382 12.71C25.4582 12.684 25.9935 12.666 26.6668 12.666C27.3402 12.666 27.8755 12.684 28.2955 12.71C29.1622 12.7633 29.7642 13.3887 29.8268 14.2547C29.9122 15.4287 30.0002 17.5547 30.0002 21.3327C30.0002 25.1113 29.9122 27.2367 29.8268 28.4107C29.7642 29.2767 29.1622 29.9027 28.2955 29.9553C27.8755 29.9813 27.3408 29.9993 26.6668 29.9993C25.9935 29.9993 25.4582 29.9813 25.0382 29.9553Z" stroke="#5E35F2" stroke-width="2" stroke-linecap="round" stroke-linejoin="round"/>
<path d="M14.3332 29.9681C13.4905 29.9315 12.8752 29.3681 12.8045 28.5281C12.7318 27.6628 12.6665 26.2575 12.6665 24.0001C12.6665 21.7428 12.7318 20.3375 12.8045 19.4721C12.8752 18.6321 13.4905 18.0688 14.3325 18.0321C14.888 18.0093 15.4439 17.9987 15.9998 18.0001C16.6945 18.0001 17.2412 18.0135 17.6665 18.0321C18.5092 18.0688 19.1245 18.6321 19.1952 19.4721C19.2678 20.3375 19.3332 21.7428 19.3332 24.0001C19.3332 26.2575 19.2678 27.6628 19.1952 28.5281C19.1245 29.3681 18.5092 29.9315 17.6672 29.9681C17.2412 29.9868 16.6945 30.0001 15.9998 30.0001C15.4441 30.0016 14.8884 29.9909 14.3332 29.9681Z" stroke="#5E35F2" stroke-width="2" stroke-linecap="round" stroke-linejoin="round"/>
</svg>
