<svg width="40" height="40" viewBox="0 0 40 40" fill="none" xmlns="http://www.w3.org/2000/svg">
<path d="M35.2066 37.4685C36.405 37.4227 37.3183 36.6469 37.4208 35.4519C37.4771 34.7472 37.5036 34.0404 37.5 33.3335C37.5 32.4585 37.4666 31.7635 37.42 31.2152C37.3183 30.0202 36.405 29.2444 35.2066 29.1985C34.5825 29.1761 33.9579 29.1655 33.3333 29.1669C32.5716 29.1669 31.9558 29.1794 31.46 29.1985C30.2616 29.2444 29.3483 30.0202 29.2458 31.2152C29.1895 31.9199 29.1631 32.6266 29.1666 33.3335C29.1666 34.2085 29.2 34.9035 29.2466 35.4519C29.3483 36.6469 30.2616 37.4227 31.46 37.4685C32.0842 37.491 32.7087 37.5016 33.3333 37.5002C34.095 37.5002 34.7108 37.4877 35.2066 37.4685Z" fill="#FF5BEF"/>
<path d="M35.2066 24.135C36.405 24.0892 37.3183 23.3134 37.4208 22.1184C37.4771 21.4137 37.5036 20.7069 37.5 20C37.5 19.125 37.4666 18.43 37.42 17.8817C37.3183 16.6867 36.405 15.9109 35.2066 15.865C34.5825 15.8426 33.9579 15.832 33.3333 15.8334C32.5716 15.8334 31.9558 15.8459 31.46 15.865C30.2616 15.9109 29.3483 16.6867 29.2458 17.8817C29.1895 18.5864 29.1631 19.2931 29.1666 20C29.1666 20.875 29.2 21.57 29.2466 22.1184C29.3483 23.3134 30.2616 24.0892 31.46 24.135C32.0842 24.1575 32.7087 24.1681 33.3333 24.1667C34.095 24.1667 34.7108 24.1542 35.2066 24.135Z" fill="#FF5BEF"/>
<path d="M35.2066 10.8018C36.405 10.7559 37.3183 9.98011 37.4208 8.78511C37.4771 8.08043 37.5036 7.37369 37.5 6.66678C37.5 5.79178 37.4666 5.09678 37.42 4.54844C37.3183 3.35344 36.405 2.57761 35.2066 2.53178C34.5825 2.50935 33.9579 2.4988 33.3333 2.50011C32.5716 2.50011 31.9558 2.51261 31.46 2.53178C30.2616 2.57761 29.3483 3.35344 29.2458 4.54844C29.1895 5.25312 29.1631 5.95986 29.1666 6.66678C29.1666 7.54178 29.2 8.23678 29.2466 8.78511C29.3483 9.98011 30.2616 10.7559 31.46 10.8018C32.0842 10.8243 32.7087 10.8348 33.3333 10.8334C34.095 10.8334 34.7108 10.8209 35.2066 10.8018Z" fill="#FF5BEF"/>
<path d="M16.0875 28.1926C17.5233 28.0976 18.6375 27.1626 18.84 25.7384C19.015 24.5092 19.1667 22.6717 19.1667 20.0001C19.1667 17.3284 19.0142 15.4909 18.84 14.2617C18.6383 12.8376 17.5233 11.9034 16.0875 11.8076C14.9358 11.7309 13.2508 11.6667 10.8333 11.6667C8.41667 11.6667 6.73083 11.7309 5.57917 11.8076C4.14333 11.9026 3.02917 12.8376 2.82667 14.2617C2.65167 15.4917 2.5 17.3284 2.5 20.0001C2.5 22.6717 2.6525 24.5092 2.82667 25.7384C3.02917 27.1626 4.14333 28.0967 5.57917 28.1926C6.73083 28.2692 8.41583 28.3334 10.8333 28.3334C13.25 28.3334 14.9358 28.2692 16.0875 28.1926Z" fill="#F5F7F9"/>
<path d="M19.1667 20H29.1667" stroke="#5E35F2" stroke-width="2" stroke-linecap="round" stroke-linejoin="round"/>
<path d="M16.0875 28.1926C17.5233 28.0976 18.6375 27.1626 18.84 25.7384C19.015 24.5092 19.1667 22.6717 19.1667 20.0001C19.1667 17.3284 19.0142 15.4909 18.84 14.2617C18.6383 12.8376 17.5233 11.9034 16.0875 11.8076C14.9358 11.7309 13.2508 11.6667 10.8333 11.6667C8.41667 11.6667 6.73083 11.7309 5.57917 11.8076C4.14333 11.9026 3.02917 12.8376 2.82667 14.2617C2.65167 15.4917 2.5 17.3284 2.5 20.0001C2.5 22.6717 2.6525 24.5092 2.82667 25.7384C3.02917 27.1626 4.14333 28.0967 5.57917 28.1926C6.73083 28.2692 8.41583 28.3334 10.8333 28.3334C13.25 28.3334 14.9358 28.2692 16.0875 28.1926Z" stroke="#5E35F2" stroke-width="2" stroke-linecap="round" stroke-linejoin="round"/>
<path d="M35.2066 10.8018C36.405 10.7559 37.3183 9.98011 37.4208 8.78511C37.4771 8.08043 37.5036 7.37369 37.5 6.66678C37.5 5.79178 37.4666 5.09678 37.42 4.54844C37.3183 3.35344 36.405 2.57761 35.2066 2.53178C34.5825 2.50935 33.9579 2.4988 33.3333 2.50011C32.5716 2.50011 31.9558 2.51261 31.46 2.53178C30.2616 2.57761 29.3483 3.35344 29.2458 4.54844C29.1895 5.25312 29.1631 5.95986 29.1666 6.66678C29.1666 7.54178 29.2 8.23678 29.2466 8.78511C29.3483 9.98011 30.2616 10.7559 31.46 10.8018C32.0842 10.8243 32.7087 10.8348 33.3333 10.8334C34.095 10.8334 34.7108 10.8209 35.2066 10.8018Z" stroke="#5E35F2" stroke-width="2" stroke-linecap="round" stroke-linejoin="round"/>
<path d="M35.2066 24.135C36.405 24.0892 37.3183 23.3134 37.4208 22.1184C37.4771 21.4137 37.5036 20.7069 37.5 20C37.5 19.125 37.4666 18.43 37.42 17.8817C37.3183 16.6867 36.405 15.9109 35.2066 15.865C34.5825 15.8426 33.9579 15.832 33.3333 15.8334C32.5716 15.8334 31.9558 15.8459 31.46 15.865C30.2616 15.9109 29.3483 16.6867 29.2458 17.8817C29.1895 18.5864 29.1631 19.2931 29.1666 20C29.1666 20.875 29.2 21.57 29.2466 22.1184C29.3483 23.3134 30.2616 24.0892 31.46 24.135C32.0842 24.1575 32.7087 24.1681 33.3333 24.1667C34.095 24.1667 34.7108 24.1542 35.2066 24.135Z" stroke="#5E35F2" stroke-width="2" stroke-linecap="round" stroke-linejoin="round"/>
<path d="M35.2066 37.4685C36.405 37.4227 37.3183 36.6469 37.4208 35.4519C37.4771 34.7472 37.5036 34.0404 37.5 33.3335C37.5 32.4585 37.4666 31.7635 37.42 31.2152C37.3183 30.0202 36.405 29.2444 35.2066 29.1985C34.5825 29.1761 33.9579 29.1655 33.3333 29.1669C32.5716 29.1669 31.9558 29.1794 31.46 29.1985C30.2616 29.2444 29.3483 30.0202 29.2458 31.2152C29.1895 31.9199 29.1631 32.6266 29.1666 33.3335C29.1666 34.2085 29.2 34.9035 29.2466 35.4519C29.3483 36.6469 30.2616 37.4227 31.46 37.4685C32.0842 37.491 32.7087 37.5016 33.3333 37.5002C34.095 37.5002 34.7108 37.4877 35.2066 37.4685Z" stroke="#5E35F2" stroke-width="2" stroke-linecap="round" stroke-linejoin="round"/>
<path d="M29.1684 32.9551L27.1984 32.7759C26.3699 32.7006 25.5995 32.3183 25.0385 31.704C24.4776 31.0896 24.1666 30.2878 24.1667 29.4559V10.5442C24.1666 9.71234 24.4776 8.91048 25.0385 8.29618C25.5995 7.68187 26.3699 7.29952 27.1984 7.22423L29.1684 7.0459" stroke="#5E35F2" stroke-width="2" stroke-linecap="round" stroke-linejoin="round"/>
</svg>
