<svg width="40" height="40" viewBox="0 0 40 40" fill="none" xmlns="http://www.w3.org/2000/svg">
<path d="M2.98833 11.8633C3.16333 10.0858 4.38 8.65667 6.1425 8.36667C8.6275 7.95667 12.975 7.5 20 7.5C27.025 7.5 31.3725 7.95667 33.8583 8.36667C35.62 8.65667 36.8375 10.0858 37.0117 11.8633C37.2417 14.1942 37.5 17.855 37.5 22.5C37.5 27.145 37.2417 30.8058 37.0117 33.1367C36.8367 34.9142 35.62 36.3433 33.8575 36.6333C31.3725 37.0433 27.025 37.5 20 37.5C12.975 37.5 8.62833 37.0433 6.14167 36.6333C4.38 36.3433 3.1625 34.9142 2.98833 33.1367C2.75833 30.8058 2.5 27.145 2.5 22.5C2.5 17.8558 2.75833 14.1942 2.98833 11.8633Z" fill="#FF5BEF"/>
<path d="M37.4883 20.8092C33 22.225 23.725 25 20 25C16.275 25 6.99999 22.225 2.51166 20.8092C2.56416 16.9633 2.78666 13.9042 2.98832 11.8633C3.16332 10.0858 4.37999 8.65667 6.14249 8.36667C8.62749 7.95667 12.975 7.5 20 7.5C27.025 7.5 31.3717 7.95667 33.8583 8.36667C35.62 8.65667 36.8375 10.0858 37.0117 11.8633C37.2117 13.9042 37.4358 16.9633 37.4883 20.8092Z" fill="#F5F7F9"/>
<path d="M2.98833 11.8633C3.16333 10.0858 4.38 8.65667 6.1425 8.36667C8.6275 7.95667 12.975 7.5 20 7.5C27.025 7.5 31.3725 7.95667 33.8583 8.36667C35.62 8.65667 36.8375 10.0858 37.0117 11.8633C37.2417 14.1942 37.5 17.855 37.5 22.5C37.5 27.145 37.2417 30.8058 37.0117 33.1367C36.8367 34.9142 35.62 36.3433 33.8575 36.6333C31.3725 37.0433 27.025 37.5 20 37.5C12.975 37.5 8.62833 37.0433 6.14167 36.6333C4.38 36.3433 3.1625 34.9142 2.98833 33.1367C2.75833 30.8058 2.5 27.145 2.5 22.5C2.5 17.8558 2.75833 14.1942 2.98833 11.8633Z" stroke="#5E35F2" stroke-width="2" stroke-linecap="round" stroke-linejoin="round"/>
<path d="M37.4883 20.8098C33 22.2248 23.725 24.9998 20 24.9998C16.275 24.9998 6.99999 22.2248 2.51166 20.8098" stroke="#5E35F2" stroke-width="2" stroke-linecap="round" stroke-linejoin="round"/>
<path d="M13.9484 7.66659C14.3292 6.49325 14.98 5.12325 15.4684 4.16325C15.8667 3.38159 16.585 2.81742 17.455 2.70075C18.2988 2.58972 19.149 2.53515 20 2.53742C21.0375 2.53742 21.8984 2.61325 22.5442 2.70075C23.4142 2.81742 24.1325 3.38159 24.5309 4.16325C25.0192 5.12325 25.67 6.49325 26.0509 7.66575" stroke="#5E35F2" stroke-width="2" stroke-linecap="round" stroke-linejoin="round"/>
</svg>
