<svg width="24" height="24" viewBox="0 0 24 24" fill="none" xmlns="http://www.w3.org/2000/svg">
<path d="M22.5 18C22.5 19.1935 22.0259 20.3381 21.182 21.182C20.3381 22.0259 19.1935 22.5 18 22.5C16.8065 22.5 15.6619 22.0259 14.818 21.182C13.9741 20.3381 13.5 19.1935 13.5 18C13.5 16.8065 13.9741 15.6619 14.818 14.818C15.6619 13.9741 16.8065 13.5 18 13.5C19.1935 13.5 20.3381 13.9741 21.182 14.818C22.0259 15.6619 22.5 16.8065 22.5 18Z" fill="#05E4F2" fill-opacity="0.2"/>
<path d="M22.5 6C22.5 7.19347 22.0259 8.33807 21.182 9.18198C20.3381 10.0259 19.1935 10.5 18 10.5C16.8065 10.5 15.6619 10.0259 14.818 9.18198C13.9741 8.33807 13.5 7.19347 13.5 6C13.5 4.80653 13.9741 3.66193 14.818 2.81802C15.6619 1.97411 16.8065 1.5 18 1.5C19.1935 1.5 20.3381 1.97411 21.182 2.81802C22.0259 3.66193 22.5 4.80653 22.5 6Z" fill="#05E4F2" fill-opacity="0.2"/>
<path d="M10.5 12C10.5 12.5909 10.3836 13.1761 10.1575 13.7221C9.93131 14.268 9.59984 14.7641 9.18198 15.182C8.76412 15.5998 8.26804 15.9313 7.72208 16.1575C7.17611 16.3836 6.59095 16.5 6 16.5C5.40905 16.5 4.82389 16.3836 4.27792 16.1575C3.73196 15.9313 3.23588 15.5998 2.81802 15.182C2.40016 14.7641 2.06869 14.268 1.84254 13.7221C1.6164 13.1761 1.5 12.5909 1.5 12C1.5 10.8065 1.97411 9.66193 2.81802 8.81802C3.66193 7.97411 4.80653 7.5 6 7.5C7.19347 7.5 8.33807 7.97411 9.18198 8.81802C10.0259 9.66193 10.5 10.8065 10.5 12Z" fill="#05E4F2" fill-opacity="0.2"/>
<path d="M10.5 12C10.5 12.5909 10.3836 13.1761 10.1575 13.7221C9.93131 14.268 9.59984 14.7641 9.18198 15.182C8.76412 15.5998 8.26804 15.9313 7.72208 16.1575C7.17611 16.3836 6.59095 16.5 6 16.5C5.40905 16.5 4.82389 16.3836 4.27792 16.1575C3.73196 15.9313 3.23588 15.5998 2.81802 15.182C2.40016 14.7641 2.06869 14.268 1.84254 13.7221C1.6164 13.1761 1.5 12.5909 1.5 12C1.5 10.8065 1.97411 9.66193 2.81802 8.81802C3.66193 7.97411 4.80653 7.5 6 7.5C7.19347 7.5 8.33807 7.97411 9.18198 8.81802C10.0259 9.66193 10.5 10.8065 10.5 12Z" stroke="#5E35F2" stroke-linecap="round" stroke-linejoin="round"/>
<path d="M22.5 6C22.5 7.19347 22.0259 8.33807 21.182 9.18198C20.3381 10.0259 19.1935 10.5 18 10.5C16.8065 10.5 15.6619 10.0259 14.818 9.18198C13.9741 8.33807 13.5 7.19347 13.5 6C13.5 4.80653 13.9741 3.66193 14.818 2.81802C15.6619 1.97411 16.8065 1.5 18 1.5C19.1935 1.5 20.3381 1.97411 21.182 2.81802C22.0259 3.66193 22.5 4.80653 22.5 6Z" stroke="#5E35F2" stroke-linecap="round" stroke-linejoin="round"/>
<path d="M22.5 18C22.5 19.1935 22.0259 20.3381 21.182 21.182C20.3381 22.0259 19.1935 22.5 18 22.5C16.8065 22.5 15.6619 22.0259 14.818 21.182C13.9741 20.3381 13.5 19.1935 13.5 18C13.5 16.8065 13.9741 15.6619 14.818 14.818C15.6619 13.9741 16.8065 13.5 18 13.5C19.1935 13.5 20.3381 13.9741 21.182 14.818C22.0259 15.6619 22.5 16.8065 22.5 18Z" stroke="#5E35F2" stroke-linecap="round" stroke-linejoin="round"/>
<path d="M13.9744 8.0127L10.0264 9.9872M13.9744 15.9872L10.0264 14.0127" stroke="#5E35F2" stroke-linecap="round" stroke-linejoin="round"/>
</svg>
