<svg width="24" height="24" viewBox="0 0 24 24" fill="none" xmlns="http://www.w3.org/2000/svg">
<path d="M1.699 14.105C1.822 15.3525 2.828 16.249 4.0805 16.3175C5.691 16.406 8.281 16.5 12 16.5C15.719 16.5 18.309 16.406 19.92 16.3175C21.172 16.249 22.178 15.3525 22.301 14.105C22.407 13.0305 22.5 11.5135 22.5 9.5C22.5 7.4865 22.407 5.9695 22.301 4.895C22.178 3.647 21.172 2.751 19.9195 2.6825C18.309 2.594 15.719 2.5 12 2.5C8.281 2.5 5.691 2.594 4.08 2.6825C2.828 2.751 1.822 3.6475 1.699 4.895C1.593 5.97 1.5 7.4865 1.5 9.5C1.5 11.5135 1.593 13.0305 1.699 14.105Z" fill="#05E4F2" fill-opacity="0.2"/>
<path d="M17.5 21.17C17.2012 21.3053 16.8796 21.3828 16.552 21.3985C15.481 21.4525 13.981 21.5 12 21.5C10.019 21.5 8.519 21.4525 7.448 21.3985C7.12041 21.3828 6.79875 21.3053 6.5 21.17M19.75 18.44C19.3674 18.6856 18.9271 18.8267 18.473 18.849C17.079 18.925 14.9555 19 12 19C9.045 19 6.921 18.925 5.527 18.849C5.07289 18.8267 4.63258 18.6856 4.25 18.44M1.699 14.105C1.822 15.3525 2.828 16.249 4.0805 16.3175C5.691 16.406 8.281 16.5 12 16.5C15.719 16.5 18.309 16.406 19.92 16.3175C21.172 16.249 22.178 15.3525 22.301 14.105C22.407 13.0305 22.5 11.5135 22.5 9.5C22.5 7.4865 22.407 5.9695 22.301 4.895C22.178 3.647 21.172 2.751 19.9195 2.6825C18.309 2.594 15.719 2.5 12 2.5C8.281 2.5 5.691 2.594 4.08 2.6825C2.828 2.751 1.822 3.6475 1.699 4.895C1.593 5.97 1.5 7.4865 1.5 9.5C1.5 11.5135 1.593 13.0305 1.699 14.105Z" stroke="#5E35F2" stroke-linecap="round" stroke-linejoin="round"/>
<path d="M14 7.255C14 7.255 13.2 6.643 12 6.643M12 6.643C11 6.643 10 7.2555 10 8.0715C10 10.1125 14 8.888 14 10.929C14 11.745 13 12.3575 12 12.3575M12 6.643V5.5M12 12.3575C10.8 12.3575 10 11.745 10 11.745M12 12.3575V13.5M18.5 9.5H18M6 9.5H5.5" stroke="#5E35F2" stroke-linecap="round" stroke-linejoin="round"/>
</svg>
