<svg width="24" height="25" viewBox="0 0 24 25" fill="none" xmlns="http://www.w3.org/2000/svg">
<path d="M15.2365 20.5411C15.1345 21.7476 14.2235 22.6651 13.019 22.7851C11.5171 22.9311 10.009 23.0028 8.5 23.0001C6.99105 23.0028 5.48288 22.9311 3.981 22.7851C2.776 22.6651 1.8655 21.7476 1.7635 20.5411C1.635 19.0051 1.5 16.4576 1.5 12.5001C1.5 8.54258 1.6345 5.99508 1.7635 4.45908C1.8655 3.25258 2.7765 2.33508 3.981 2.21508C5.48288 2.06907 6.99105 1.99732 8.5 2.00008C10.367 2.00008 11.907 2.10408 13.019 2.21508C14.224 2.33508 15.1345 3.25258 15.2365 4.45908C15.365 5.99508 15.5 8.54258 15.5 12.5001C15.5 16.4576 15.3655 19.0051 15.2365 20.5411Z" fill="white"/>
<path d="M18.625 17.561C18.07 18.031 17.321 17.679 17.2725 16.9535C17.2295 16.31 17.184 15.511 17.152 14.6425L7.3995 14.2875C6.7745 14.265 6.226 13.8535 6.1535 13.2325C6.09626 12.7458 6.09626 12.2542 6.1535 11.7675C6.226 11.1465 6.7745 10.735 7.3995 10.7125L17.152 10.3575C17.1806 9.58628 17.2206 8.81553 17.272 8.0455C17.321 7.3205 18.0705 6.968 18.6255 7.438C19.1145 7.8515 19.757 8.43 20.569 9.2265C21.904 10.5365 22.552 11.453 22.8565 11.9765C22.9504 12.1346 23 12.3151 23 12.499C23 12.6829 22.9504 12.8634 22.8565 13.0215C22.5515 13.545 21.904 14.4615 20.569 15.772C19.7565 16.569 19.1135 17.1475 18.625 17.561Z" fill="#676872" fill-opacity="0.2"/>
<path d="M15.5007 8C15.4657 6.5685 15.4172 5.436 15.3702 4.58C15.3017 3.328 14.4052 2.322 13.1572 2.199C12.0832 2.093 10.5662 2 8.55223 2C6.53873 2 5.02223 2.093 3.94723 2.199C2.69973 2.322 1.80323 3.328 1.73473 4.5805C1.64673 6.191 1.55273 8.781 1.55273 12.5C1.55273 16.219 1.64673 18.809 1.73473 20.42C1.80323 21.672 2.69973 22.678 3.94773 22.801C5.02173 22.907 6.53873 23 8.55273 23C10.5662 23 12.0827 22.907 13.1577 22.801C14.4052 22.678 15.3017 21.672 15.3702 20.42C15.4172 19.564 15.4652 18.4315 15.5007 17" stroke="#676872" stroke-linecap="round" stroke-linejoin="round"/>
<path d="M18.6251 17.561C18.0706 18.031 17.3211 17.679 17.2726 16.9535C17.2296 16.31 17.1841 15.511 17.1521 14.6425L7.39958 14.2875C6.77458 14.265 6.22608 13.8535 6.15358 13.2325C6.09634 12.7458 6.09634 12.2542 6.15358 11.7675C6.22608 11.1465 6.77458 10.735 7.39958 10.7125L17.1521 10.3575C17.1808 9.58628 17.221 8.81553 17.2726 8.0455C17.3211 7.3205 18.0706 6.968 18.6261 7.438C19.1146 7.8515 19.7571 8.43 20.5691 9.2265C21.9041 10.5365 22.5521 11.453 22.8566 11.9765C22.9505 12.1346 23 12.3151 23 12.499C23 12.6829 22.9505 12.8634 22.8566 13.0215C22.5516 13.545 21.9041 14.4615 20.5691 15.772C19.7566 16.569 19.1136 17.1475 18.6251 17.561Z" stroke="#676872" stroke-linecap="round" stroke-linejoin="round"/>
</svg>
