<svg width="24" height="24" viewBox="0 0 24 24" fill="none" xmlns="http://www.w3.org/2000/svg">
<path d="M14.5001 7C14.5004 8.01897 14.2175 9.01797 13.6831 9.88556C13.1487 10.7532 12.3838 11.4552 11.4736 11.9135C11.6371 11.97 11.7976 12.032 11.9551 12.099C11.3036 12.789 10.9351 13.6985 10.8566 14.593C10.7863 15.3934 10.7507 16.1965 10.7501 17C10.7501 17.845 10.8746 18.681 11.1151 19.4795C10.4102 19.4937 9.7052 19.5005 9.00015 19.5C5.72865 19.5 3.87115 19.37 2.82365 19.235C1.96315 19.123 1.46615 18.4255 1.62515 17.5725C2.11765 14.9325 4.01815 12.7815 6.52665 11.9135C5.61654 11.4552 4.85162 10.7532 4.31722 9.88556C3.78282 9.01797 3.49995 8.01897 3.50015 7C3.50015 3.9625 5.96265 1.5 9.00015 1.5C12.0376 1.5 14.5001 3.9625 14.5001 7Z" fill="#05E4F2" fill-opacity="0.2"/>
<path d="M13.0975 14.79C13.1705 13.964 13.684 13.305 14.505 13.189C15.224 13.0875 16.328 13 18 13C19.672 13 20.776 13.0875 21.495 13.189C22.316 13.305 22.83 13.964 22.902 14.79C22.9669 15.5249 22.9996 16.2623 23 17C23 19.257 21.8085 21.369 19.802 22.402C19.1315 22.747 18.477 23 18 23C17.523 23 16.8685 22.747 16.198 22.402C14.191 21.369 13 19.257 13 17C13 16.146 13.0455 15.3835 13.0975 14.79Z" stroke="#5E35F2" stroke-linecap="round" stroke-linejoin="round"/>
<path d="M16.25 17.3835L17.897 19.25L20.25 15.75" stroke="#5E35F2" stroke-linecap="round" stroke-linejoin="round"/>
<path d="M11.4737 11.9135C12.3838 11.4552 13.1487 10.7532 13.6831 9.88556C14.2175 9.01797 14.5004 8.01897 14.5002 7C14.5002 3.9625 12.0377 1.5 9.00017 1.5C5.96267 1.5 3.50017 3.9625 3.50017 7C3.49997 8.01897 3.78284 9.01797 4.31724 9.88556C4.85164 10.7532 5.61656 11.4552 6.52667 11.9135C4.01817 12.7815 2.11767 14.9325 1.62517 17.573C1.46617 18.426 1.96267 19.123 2.82367 19.2345C3.87117 19.37 5.72867 19.5 9.00017 19.5C9.53767 19.5 10.0367 19.4965 10.5002 19.49" stroke="#5E35F2" stroke-linecap="round" stroke-linejoin="round"/>
</svg>
