<svg width="24" height="25" viewBox="0 0 24 25" fill="none" xmlns="http://www.w3.org/2000/svg">
<path d="M21.8065 20.675C21.6825 21.8385 20.759 22.6695 19.5925 22.758C18.07 22.875 15.591 23 12 23C8.409 23 5.93 22.8745 4.4075 22.7585C3.241 22.6695 2.3175 21.8385 2.1935 20.6755C2.09 19.707 2 18.337 2 16.5C2 14.663 2.09 13.293 2.1935 12.325C2.3175 11.1615 3.241 10.3305 4.4075 10.242C5.93 10.125 8.409 10 12 10C15.591 10 18.07 10.1255 19.5925 10.2415C20.759 10.3305 21.6825 11.1615 21.8065 12.3245C21.91 13.293 22 14.663 22 16.5C22 18.337 21.91 19.707 21.8065 20.675Z" fill="white"/>
<path d="M13.9856 13.0191L13.7786 5.3081C13.7611 4.6626 13.3291 4.0981 12.6866 4.0341C12.2299 3.98863 11.7698 3.98863 11.3131 4.0341C10.6701 4.0986 10.2381 4.6626 10.2206 5.3086L10.0136 13.0191C9.49286 13.0294 8.9723 13.0472 8.45209 13.0726C7.46409 13.1221 7.05859 14.0576 7.71409 14.7981C8.05109 15.1781 8.47359 15.6341 8.99909 16.1701C9.98809 17.1776 10.7321 17.7581 11.2321 18.0876C11.4586 18.2411 11.726 18.3232 11.9996 18.3232C12.2732 18.3232 12.5406 18.2411 12.7671 18.0876C13.2671 17.7581 14.0111 17.1776 14.9996 16.1701C15.4395 15.7239 15.868 15.2666 16.2846 14.7986C16.9401 14.0576 16.5346 13.1221 15.5461 13.0726C15.1176 13.0511 14.6026 13.0326 13.9856 13.0191Z" fill="#676872" fill-opacity="0.2"/>
<path d="M16.5 10.0742C17.5313 10.1091 18.5619 10.1646 19.591 10.2407C20.7575 10.3297 21.682 11.1607 21.8065 12.3237C21.91 13.2922 22 14.6622 22 16.4987C22 18.3362 21.91 19.7062 21.8065 20.6747C21.6825 21.8377 20.759 22.6687 19.5925 22.7572C18.07 22.8732 15.591 22.9992 12 22.9992C8.409 22.9992 5.93 22.8732 4.4075 22.7572C3.241 22.6687 2.3175 21.8377 2.1935 20.6747C2.09 19.7062 2 18.3362 2 16.4992C2 14.6622 2.09 13.2922 2.1935 12.3242C2.3175 11.1607 3.2425 10.3292 4.4085 10.2407C5.43779 10.1646 6.46849 10.1091 7.5 10.0742" stroke="#676872" stroke-linecap="round" stroke-linejoin="round"/>
<path d="M13.9856 13.0191L13.7786 5.3081C13.7611 4.6626 13.3291 4.0981 12.6866 4.0341C12.2299 3.98863 11.7698 3.98863 11.3131 4.0341C10.6701 4.0986 10.2381 4.6626 10.2206 5.3086L10.0136 13.0191C9.49286 13.0294 8.9723 13.0472 8.45209 13.0726C7.46409 13.1221 7.05859 14.0576 7.71409 14.7981C8.05109 15.1781 8.47359 15.6341 8.99909 16.1701C9.98809 17.1776 10.7321 17.7581 11.2321 18.0876C11.4586 18.2411 11.726 18.3232 11.9996 18.3232C12.2732 18.3232 12.5406 18.2411 12.7671 18.0876C13.2671 17.7581 14.0111 17.1776 14.9996 16.1701C15.4395 15.7239 15.868 15.2666 16.2846 14.7986C16.9401 14.0576 16.5346 13.1221 15.5461 13.0726C15.1176 13.0511 14.6026 13.0326 13.9856 13.0191Z" stroke="#676872" stroke-linecap="round" stroke-linejoin="round"/>
</svg>
