<svg width="24" height="24" viewBox="0 0 24 24" fill="none" xmlns="http://www.w3.org/2000/svg">
<path d="M18.625 17.061C18.07 17.531 17.321 17.179 17.2725 16.4535C17.2295 15.81 17.184 15.011 17.152 14.1425L7.3995 13.7875C6.7745 13.765 6.226 13.3535 6.1535 12.7325C6.09626 12.2458 6.09626 11.7542 6.1535 11.2675C6.226 10.6465 6.7745 10.235 7.3995 10.2125L17.152 9.8575C17.1806 9.08628 17.2206 8.31553 17.272 7.5455C17.321 6.8205 18.0705 6.468 18.6255 6.938C19.1145 7.3515 19.757 7.93 20.569 8.7265C21.904 10.0365 22.552 10.953 22.8565 11.4765C22.9504 11.6346 23 11.8151 23 11.999C23 12.1829 22.9504 12.3634 22.8565 12.5215C22.5515 13.045 21.904 13.9615 20.569 15.272C19.7565 16.069 19.1135 16.6475 18.625 17.061Z" fill="#05E4F2" fill-opacity="0.2"/>
<path d="M15.5007 7.5C15.4657 6.0685 15.4172 4.936 15.3702 4.08C15.3017 2.828 14.4052 1.822 13.1572 1.699C12.0832 1.593 10.5662 1.5 8.55223 1.5C6.53873 1.5 5.02223 1.593 3.94723 1.699C2.69973 1.822 1.80323 2.828 1.73473 4.0805C1.64673 5.691 1.55273 8.281 1.55273 12C1.55273 15.719 1.64673 18.309 1.73473 19.92C1.80323 21.172 2.69973 22.178 3.94773 22.301C5.02173 22.407 6.53873 22.5 8.55273 22.5C10.5662 22.5 12.0827 22.407 13.1577 22.301C14.4052 22.178 15.3017 21.172 15.3702 19.92C15.4172 19.064 15.4652 17.9315 15.5007 16.5" stroke="#5E35F2" stroke-linecap="round" stroke-linejoin="round"/>
<path d="M18.6251 17.061C18.0706 17.531 17.3211 17.179 17.2726 16.4535C17.2296 15.81 17.1841 15.011 17.1521 14.1425L7.39958 13.7875C6.77458 13.765 6.22608 13.3535 6.15358 12.7325C6.09634 12.2458 6.09634 11.7542 6.15358 11.2675C6.22608 10.6465 6.77458 10.235 7.39958 10.2125L17.1521 9.8575C17.1808 9.08628 17.221 8.31553 17.2726 7.5455C17.3211 6.8205 18.0706 6.468 18.6261 6.938C19.1146 7.3515 19.7571 7.93 20.5691 8.7265C21.9041 10.0365 22.5521 10.953 22.8566 11.4765C22.9505 11.6346 23 11.8151 23 11.999C23 12.1829 22.9505 12.3634 22.8566 12.5215C22.5516 13.045 21.9041 13.9615 20.5691 15.272C19.7566 16.069 19.1136 16.6475 18.6251 17.061Z" stroke="#5E35F2" stroke-linecap="round" stroke-linejoin="round"/>
</svg>
