<svg width="24" height="24" viewBox="0 0 24 24" fill="none" xmlns="http://www.w3.org/2000/svg">
<path d="M7.56352 18.0604C8.12266 17.7189 8.55467 17.2038 8.79353 16.5938C9.03239 15.9837 9.06498 15.3122 8.88632 14.6819C8.70765 14.0516 8.32756 13.4971 7.80411 13.1031C7.28065 12.7091 6.64261 12.4973 5.98746 12.5C5.33231 12.5028 4.69607 12.7199 4.17593 13.1183C3.65579 13.5166 3.28036 14.0743 3.10698 14.7061C2.9336 15.3379 2.97181 16.0091 3.21577 16.6171C3.45973 17.2252 3.89603 17.7366 4.45802 18.0734C2.98002 18.6194 1.85302 19.9134 1.51752 21.5069C1.40352 22.0469 1.86252 22.4999 2.41452 22.4999H9.64352C10.196 22.4999 10.6545 22.0474 10.5405 21.5069C10.202 19.9004 9.05951 18.5984 7.56352 18.0604Z" fill="#05E4F2" fill-opacity="0.2"/>
<path d="M16.4359 7.06012C15.8768 6.71858 15.4449 6.20341 15.2062 5.59331C14.9674 4.98321 14.9349 4.31172 15.1137 3.68143C15.2924 3.05113 15.6726 2.49668 16.1961 2.10278C16.7197 1.70888 17.3577 1.49718 18.0129 1.50003C18.668 1.50288 19.3042 1.72011 19.8243 2.11855C20.3444 2.51699 20.7197 3.07472 20.893 3.70655C21.0663 4.33838 21.028 5.00956 20.7839 5.61756C20.5399 6.22556 20.1035 6.73695 19.5414 7.07362C21.0194 7.61911 22.1464 8.91312 22.4819 10.5066C22.5959 11.0466 22.1369 11.4996 21.5849 11.4996H14.3559C13.8034 11.4996 13.3449 11.0471 13.4589 10.5066C13.7974 8.90012 14.9399 7.59812 16.4359 7.06012Z" fill="#05E4F2" fill-opacity="0.2"/>
<path d="M16.4359 7.06012C15.8768 6.71858 15.4449 6.20341 15.2062 5.59331C14.9674 4.98321 14.9349 4.31172 15.1137 3.68143C15.2924 3.05113 15.6726 2.49668 16.1961 2.10278C16.7197 1.70888 17.3577 1.49718 18.0129 1.50003C18.668 1.50288 19.3042 1.72011 19.8243 2.11855C20.3444 2.51699 20.7197 3.07472 20.893 3.70655C21.0663 4.33838 21.028 5.00956 20.7839 5.61756C20.5399 6.22556 20.1035 6.73695 19.5414 7.07362C21.0194 7.61912 22.1464 8.91312 22.4819 10.5066C22.5959 11.0466 22.1369 11.4996 21.5849 11.4996H14.3559C13.8034 11.4996 13.3449 11.0471 13.4589 10.5066C13.7974 8.90012 14.9399 7.59812 16.4359 7.06012Z" stroke="#5E35F2" stroke-linecap="round" stroke-linejoin="round"/>
<path d="M7.56352 18.0604C8.12266 17.7189 8.55467 17.2038 8.79353 16.5938C9.03239 15.9837 9.06498 15.3122 8.88632 14.6819C8.70765 14.0516 8.32756 13.4971 7.80411 13.1031C7.28065 12.7091 6.64261 12.4973 5.98746 12.5C5.33231 12.5028 4.69607 12.7199 4.17593 13.1183C3.65579 13.5166 3.28036 14.0743 3.10698 14.7061C2.9336 15.3379 2.97181 16.0091 3.21577 16.6171C3.45973 17.2252 3.89603 17.7366 4.45802 18.0734C2.98002 18.6194 1.85302 19.9134 1.51752 21.5069C1.40352 22.0469 1.86252 22.4999 2.41452 22.4999H9.64352C10.196 22.4999 10.6545 22.0474 10.5405 21.5069C10.202 19.9004 9.05952 18.5984 7.56352 18.0604Z" stroke="#5E35F2" stroke-linecap="round" stroke-linejoin="round"/>
<path d="M1.62224 6.19007C1.54928 6.20149 1.48038 6.23117 1.42197 6.27636C1.36355 6.32154 1.31751 6.38077 1.28812 6.44852C1.25873 6.51627 1.24696 6.59036 1.25388 6.66389C1.26081 6.73741 1.28622 6.808 1.32774 6.86907C2.02474 7.92307 3.10424 9.08407 3.65324 9.65057C3.84324 9.84657 4.15324 9.84557 4.34224 9.64857C4.86824 9.09857 5.89074 7.98357 6.64124 6.88357C6.68486 6.82175 6.71205 6.74986 6.72026 6.67465C6.72848 6.59944 6.71745 6.52338 6.68821 6.4536C6.65897 6.38383 6.61247 6.32262 6.55309 6.27574C6.49372 6.22885 6.4234 6.19783 6.34874 6.18557C4.91074 5.93657 3.05474 5.93757 1.62224 6.19007Z" stroke="#5E35F2" stroke-linecap="round" stroke-linejoin="round"/>
<path d="M12.4995 1.501L12.026 1.5C9.5605 1.5 7.743 1.5855 6.4995 1.6785C5.222 1.7735 4.254 2.757 4.166 4.035C4.12188 4.68946 4.08738 5.34453 4.0625 6" stroke="#5E35F2" stroke-linecap="round" stroke-linejoin="round"/>
<path d="M22.3764 17.8102C22.4494 17.7987 22.5183 17.7691 22.5767 17.7239C22.6351 17.6787 22.6812 17.6195 22.7105 17.5517C22.7399 17.4839 22.7517 17.4099 22.7448 17.3363C22.7379 17.2628 22.7124 17.1922 22.6709 17.1312C21.9739 16.0772 20.8944 14.9162 20.3454 14.3497C20.3008 14.3032 20.2473 14.2662 20.188 14.241C20.1287 14.2158 20.0649 14.2029 20.0005 14.2031C19.9361 14.2033 19.8724 14.2166 19.8132 14.2421C19.7541 14.2676 19.7007 14.3049 19.6564 14.3517C19.1309 14.9017 18.1079 16.0167 17.3574 17.1167C17.3137 17.1784 17.2864 17.2503 17.2781 17.3256C17.2698 17.4008 17.2808 17.477 17.31 17.5468C17.3393 17.6166 17.3859 17.6778 17.4453 17.7247C17.5048 17.7716 17.5752 17.8025 17.6499 17.8147C19.0879 18.0637 20.9439 18.0627 22.3764 17.8102Z" stroke="#5E35F2" stroke-linecap="round" stroke-linejoin="round"/>
<path d="M13.5 22.4885C15.2065 22.462 16.5275 22.394 17.4985 22.322C18.7765 22.227 19.7445 21.244 19.8325 19.9655C19.87 19.422 19.9065 18.7685 19.937 18" stroke="#5E35F2" stroke-linecap="round" stroke-linejoin="round"/>
</svg>
