<svg width="24" height="24" viewBox="0 0 24 24" fill="none" xmlns="http://www.w3.org/2000/svg">
<path d="M1.6585 3.2285C1.686 2.82116 1.86024 2.43761 2.14892 2.14892C2.43761 1.86024 2.82116 1.686 3.2285 1.6585C4.233 1.58 5.796 1.5 8 1.5C10.2035 1.5 11.767 1.58 12.7715 1.6585C13.1788 1.686 13.5624 1.86024 13.8511 2.14892C14.1398 2.43761 14.314 2.82116 14.3415 3.2285C14.42 4.233 14.5 5.796 14.5 8C14.5 10.2035 14.42 11.767 14.3415 12.7715C14.314 13.1788 14.1398 13.5624 13.8511 13.8511C13.5624 14.1398 13.1788 14.314 12.7715 14.3415C11.767 14.42 10.2035 14.5 8 14.5C5.796 14.5 4.233 14.42 3.2285 14.3415C2.82116 14.314 2.43761 14.1398 2.14892 13.8511C1.86024 13.5624 1.686 13.1788 1.6585 12.7715C1.58 11.767 1.5 10.2035 1.5 8C1.5 5.796 1.58 4.233 1.6585 3.2285Z" fill="#05E4F2" fill-opacity="0.2"/>
<path d="M1.6585 3.2285C1.686 2.82116 1.86024 2.43761 2.14892 2.14892C2.43761 1.86024 2.82116 1.686 3.2285 1.6585C4.233 1.58 5.796 1.5 8 1.5C10.2035 1.5 11.767 1.58 12.7715 1.6585C13.1788 1.686 13.5624 1.86024 13.8511 2.14892C14.1398 2.43761 14.314 2.82116 14.3415 3.2285C14.42 4.233 14.5 5.796 14.5 8C14.5 10.2035 14.42 11.767 14.3415 12.7715C14.314 13.1788 14.1398 13.5624 13.8511 13.8511C13.5624 14.1398 13.1788 14.314 12.7715 14.3415C11.767 14.42 10.2035 14.5 8 14.5C5.796 14.5 4.233 14.42 3.2285 14.3415C2.82116 14.314 2.43761 14.1398 2.14892 13.8511C1.86024 13.5624 1.686 13.1788 1.6585 12.7715C1.58 11.767 1.5 10.2035 1.5 8C1.5 5.796 1.58 4.233 1.6585 3.2285Z" stroke="#5E35F2" stroke-linecap="round" stroke-linejoin="round"/>
<path d="M17.5145 11.043C17.542 10.189 18.189 9.542 19.043 9.5145C19.318 9.5055 19.6365 9.5 20 9.5C20.3635 9.5 20.6815 9.5055 20.957 9.5145C21.811 9.542 22.458 10.189 22.4855 11.043C22.4945 11.318 22.5 11.6365 22.5 12C22.5 12.3635 22.4945 12.6815 22.4855 12.957C22.458 13.811 21.811 14.458 20.957 14.4855C20.682 14.4945 20.3635 14.5 20 14.5C19.6365 14.5 19.3185 14.4945 19.043 14.4855C18.189 14.458 17.542 13.811 17.5145 12.957C17.5046 12.6381 17.4997 12.3191 17.5 12C17.5 11.6365 17.5055 11.3185 17.5145 11.043Z" stroke="#5E35F2" stroke-linecap="round" stroke-linejoin="round"/>
<path d="M1.6515 18.542C1.7925 17.9335 2.364 17.6055 2.9885 17.5895C4.3775 17.5545 7.279 17.5 12 17.5C16.721 17.5 19.6225 17.554 21.0115 17.5895C21.636 17.6055 22.2075 17.9335 22.3485 18.542C22.4335 18.9085 22.5 19.3905 22.5 20C22.5 20.6095 22.433 21.0915 22.3485 21.458C22.2075 22.0665 21.636 22.3945 21.0115 22.4105C19.6225 22.4455 16.721 22.5 12 22.5C7.279 22.5 4.3775 22.446 2.9885 22.4105C2.364 22.3945 1.7925 22.0665 1.6515 21.458C1.5665 21.0915 1.5 20.6095 1.5 20C1.5 19.3905 1.567 18.9085 1.6515 18.542Z" fill="#05E4F2" fill-opacity="0.2"/>
<path d="M1.6515 18.542C1.7925 17.9335 2.364 17.6055 2.9885 17.5895C4.3775 17.5545 7.279 17.5 12 17.5C16.721 17.5 19.6225 17.554 21.0115 17.5895C21.636 17.6055 22.2075 17.9335 22.3485 18.542C22.4335 18.9085 22.5 19.3905 22.5 20C22.5 20.6095 22.433 21.0915 22.3485 21.458C22.2075 22.0665 21.636 22.3945 21.0115 22.4105C19.6225 22.4455 16.721 22.5 12 22.5C7.279 22.5 4.3775 22.446 2.9885 22.4105C2.364 22.3945 1.7925 22.0665 1.6515 21.458C1.5665 21.0915 1.5 20.6095 1.5 20C1.5 19.3905 1.567 18.9085 1.6515 18.542Z" stroke="#5E35F2" stroke-linecap="round" stroke-linejoin="round"/>
<path d="M17.5145 3.043C17.542 2.189 18.189 1.542 19.043 1.5145C19.318 1.5055 19.6365 1.5 20 1.5C20.3635 1.5 20.6815 1.5055 20.957 1.5145C21.811 1.542 22.458 2.189 22.4855 3.043C22.4945 3.318 22.5 3.6365 22.5 4C22.5 4.3635 22.4945 4.6815 22.4855 4.957C22.458 5.811 21.811 6.458 20.957 6.4855C20.682 6.4945 20.3635 6.5 20 6.5C19.6365 6.5 19.3185 6.4945 19.043 6.4855C18.189 6.458 17.542 5.811 17.5145 4.957C17.5046 4.6381 17.4997 4.31906 17.5 4C17.5 3.6365 17.5055 3.3185 17.5145 3.043Z" stroke="#5E35F2" stroke-linecap="round" stroke-linejoin="round"/>
</svg>
