<svg width="24" height="25" viewBox="0 0 24 25" fill="none" xmlns="http://www.w3.org/2000/svg">
<path d="M1.62179 6.69007C1.54887 6.70156 1.48003 6.73129 1.42168 6.77651C1.36332 6.82172 1.31735 6.88095 1.28801 6.9487C1.25868 7.01644 1.24695 7.0905 1.2539 7.16399C1.26085 7.23749 1.28627 7.30803 1.32779 7.36907C2.02429 8.42307 3.10429 9.58407 3.65279 10.1506C3.84279 10.3466 4.15279 10.3456 4.34179 10.1486C4.86779 9.59857 5.89029 8.48357 6.64129 7.38357C6.68505 7.32175 6.71235 7.24981 6.72061 7.17453C6.72887 7.09924 6.71782 7.02309 6.68851 6.95325C6.65919 6.88342 6.61258 6.8222 6.55305 6.77537C6.49353 6.72853 6.42306 6.69763 6.34829 6.68557C4.91029 6.43657 3.05429 6.43757 1.62179 6.69007Z" fill="white"/>
<path d="M22.3749 18.3102C22.4478 18.2987 22.5167 18.2689 22.575 18.2237C22.6334 18.1785 22.6794 18.1193 22.7087 18.0515C22.738 17.9838 22.7498 17.9097 22.7428 17.8362C22.7359 17.7627 22.7104 17.6922 22.6689 17.6312C21.9724 16.5772 20.8924 15.4162 20.3439 14.8497C20.2993 14.8032 20.2458 14.7662 20.1865 14.741C20.1272 14.7158 20.0634 14.7029 19.999 14.7031C19.9346 14.7033 19.8709 14.7166 19.8117 14.7421C19.7526 14.7676 19.6992 14.8049 19.6549 14.8517C19.1289 15.4017 18.1064 16.5167 17.3554 17.6167C17.3117 17.6785 17.2844 17.7504 17.2761 17.8257C17.2678 17.901 17.2789 17.9771 17.3082 18.047C17.3375 18.1168 17.3841 18.178 17.4437 18.2249C17.5032 18.2717 17.5736 18.3026 17.6484 18.3147C19.0864 18.5637 20.9419 18.5627 22.3749 18.3102Z" fill="white"/>
<path d="M7.56352 18.5604C8.12266 18.2189 8.55467 17.7038 8.79353 17.0938C9.03239 16.4837 9.06498 15.8122 8.88632 15.1819C8.70765 14.5516 8.32756 13.9971 7.80411 13.6031C7.28065 13.2091 6.64261 12.9973 5.98746 13C5.33231 13.0028 4.69607 13.2199 4.17593 13.6183C3.65579 14.0166 3.28036 14.5743 3.10698 15.2061C2.9336 15.8379 2.97181 16.5091 3.21577 17.1171C3.45973 17.7252 3.89603 18.2366 4.45802 18.5734C2.98002 19.1194 1.85302 20.4134 1.51752 22.0069C1.40352 22.5469 1.86252 22.9999 2.41452 22.9999H9.64352C10.196 22.9999 10.6545 22.5474 10.5405 22.0069C10.202 20.4004 9.05951 19.0984 7.56352 18.5604Z" fill="#676872" fill-opacity="0.2"/>
<path d="M16.4359 7.56012C15.8768 7.21858 15.4449 6.70341 15.2062 6.09331C14.9674 5.48321 14.9349 4.81172 15.1137 4.18143C15.2924 3.55113 15.6726 2.99668 16.1961 2.60278C16.7197 2.20888 17.3577 1.99718 18.0129 2.00003C18.668 2.00288 19.3042 2.22011 19.8243 2.61855C20.3444 3.01699 20.7197 3.57472 20.893 4.20655C21.0663 4.83838 21.028 5.50956 20.7839 6.11756C20.5399 6.72556 20.1035 7.23695 19.5414 7.57362C21.0194 8.11911 22.1464 9.41312 22.4819 11.0066C22.5959 11.5466 22.1369 11.9996 21.5849 11.9996H14.3559C13.8034 11.9996 13.3449 11.5471 13.4589 11.0066C13.7974 9.40012 14.9399 8.09812 16.4359 7.56012Z" fill="#676872" fill-opacity="0.2"/>
<path d="M16.4359 7.56012C15.8768 7.21858 15.4449 6.70341 15.2062 6.09331C14.9674 5.48321 14.9349 4.81172 15.1137 4.18143C15.2924 3.55113 15.6726 2.99668 16.1961 2.60278C16.7197 2.20888 17.3577 1.99718 18.0129 2.00003C18.668 2.00288 19.3042 2.22011 19.8243 2.61855C20.3444 3.01699 20.7197 3.57472 20.893 4.20655C21.0663 4.83838 21.028 5.50956 20.7839 6.11756C20.5399 6.72556 20.1035 7.23695 19.5414 7.57362C21.0194 8.11912 22.1464 9.41312 22.4819 11.0066C22.5959 11.5466 22.1369 11.9996 21.5849 11.9996H14.3559C13.8034 11.9996 13.3449 11.5471 13.4589 11.0066C13.7974 9.40012 14.9399 8.09812 16.4359 7.56012Z" stroke="#676872" stroke-linecap="round" stroke-linejoin="round"/>
<path d="M7.56352 18.5604C8.12266 18.2189 8.55467 17.7038 8.79353 17.0938C9.03239 16.4837 9.06498 15.8122 8.88632 15.1819C8.70765 14.5516 8.32756 13.9971 7.80411 13.6031C7.28065 13.2091 6.64261 12.9973 5.98746 13C5.33231 13.0028 4.69607 13.2199 4.17593 13.6183C3.65579 14.0166 3.28036 14.5743 3.10698 15.2061C2.9336 15.8379 2.97181 16.5091 3.21577 17.1171C3.45973 17.7252 3.89603 18.2366 4.45802 18.5734C2.98002 19.1194 1.85302 20.4134 1.51752 22.0069C1.40352 22.5469 1.86252 22.9999 2.41452 22.9999H9.64352C10.196 22.9999 10.6545 22.5474 10.5405 22.0069C10.202 20.4004 9.05952 19.0984 7.56352 18.5604Z" stroke="#676872" stroke-linecap="round" stroke-linejoin="round"/>
<path d="M1.62224 6.69007C1.54928 6.70149 1.48038 6.73117 1.42197 6.77636C1.36355 6.82154 1.31751 6.88077 1.28812 6.94852C1.25873 7.01627 1.24696 7.09036 1.25388 7.16389C1.26081 7.23741 1.28622 7.308 1.32774 7.36907C2.02474 8.42307 3.10424 9.58407 3.65324 10.1506C3.84324 10.3466 4.15324 10.3456 4.34224 10.1486C4.86824 9.59857 5.89074 8.48357 6.64124 7.38357C6.68486 7.32175 6.71205 7.24986 6.72026 7.17465C6.72848 7.09944 6.71745 7.02338 6.68821 6.9536C6.65897 6.88383 6.61247 6.82262 6.55309 6.77574C6.49372 6.72885 6.4234 6.69783 6.34874 6.68557C4.91074 6.43657 3.05474 6.43757 1.62224 6.69007Z" stroke="#676872" stroke-linecap="round" stroke-linejoin="round"/>
<path d="M12.4995 2.001L12.026 2C9.5605 2 7.743 2.0855 6.4995 2.1785C5.222 2.2735 4.254 3.257 4.166 4.535C4.12188 5.18946 4.08738 5.84453 4.0625 6.5" stroke="#676872" stroke-linecap="round" stroke-linejoin="round"/>
<path d="M22.3764 18.3102C22.4494 18.2987 22.5183 18.2691 22.5767 18.2239C22.6351 18.1787 22.6812 18.1195 22.7105 18.0517C22.7399 17.9839 22.7517 17.9099 22.7448 17.8363C22.7379 17.7628 22.7124 17.6922 22.6709 17.6312C21.9739 16.5772 20.8944 15.4162 20.3454 14.8497C20.3008 14.8032 20.2473 14.7662 20.188 14.741C20.1287 14.7158 20.0649 14.7029 20.0005 14.7031C19.9361 14.7033 19.8724 14.7166 19.8132 14.7421C19.7541 14.7676 19.7007 14.8049 19.6564 14.8517C19.1309 15.4017 18.1079 16.5167 17.3574 17.6167C17.3137 17.6784 17.2864 17.7503 17.2781 17.8256C17.2698 17.9008 17.2808 17.977 17.31 18.0468C17.3393 18.1166 17.3859 18.1778 17.4453 18.2247C17.5048 18.2716 17.5752 18.3025 17.6499 18.3147C19.0879 18.5637 20.9439 18.5627 22.3764 18.3102Z" stroke="#676872" stroke-linecap="round" stroke-linejoin="round"/>
<path d="M13.5 22.9885C15.2065 22.962 16.5275 22.894 17.4985 22.822C18.7765 22.727 19.7445 21.744 19.8325 20.4655C19.87 19.922 19.9065 19.2685 19.937 18.5" stroke="#676872" stroke-linecap="round" stroke-linejoin="round"/>
</svg>
