<svg width="24" height="24" viewBox="0 0 24 24" fill="none" xmlns="http://www.w3.org/2000/svg">
<path d="M9.57936 2.181C9.63686 2.061 9.71986 1.9555 9.83786 1.8935C10.1179 1.7465 10.7719 1.5 12.0009 1.5C13.2299 1.5 13.8834 1.7465 14.1634 1.8935C14.2814 1.9555 14.3644 2.061 14.4224 2.181C14.5899 2.531 14.9634 3.338 15.2439 4.141C15.9369 4.42741 16.5889 4.80436 17.1829 5.262C18.0189 5.1035 18.9064 5.0235 19.2939 4.9935C19.4264 4.9835 19.5594 5.0025 19.6719 5.0735C19.9394 5.243 20.4799 5.6855 21.0939 6.75C21.7089 7.8145 21.8219 8.5035 21.8349 8.82C21.8399 8.953 21.7904 9.0775 21.7149 9.1875C21.4954 9.508 20.9829 10.236 20.4279 10.8805C20.5257 11.6236 20.5257 12.3764 20.4279 13.1195C20.9829 13.7645 21.4954 14.492 21.7149 14.8125C21.7899 14.9225 21.8399 15.0475 21.8349 15.18C21.8219 15.4965 21.7084 16.1855 21.0939 17.25C20.4794 18.3145 19.9389 18.757 19.6719 18.9265C19.5594 18.9975 19.4269 19.0165 19.2934 19.0065C18.9059 18.9765 18.0189 18.8965 17.1834 18.738C16.5894 19.1958 15.9374 19.573 15.2444 19.8595C14.9634 20.662 14.5899 21.4685 14.4224 21.8195C14.3644 21.9395 14.2814 22.0445 14.1634 22.1065C13.8834 22.2535 13.2299 22.5 12.0009 22.5C10.7719 22.5 10.1184 22.2535 9.83786 22.1065C9.71986 22.0445 9.63686 21.9395 9.57936 21.819C9.41186 21.469 9.03786 20.662 8.75736 19.859C8.06437 19.5726 7.41237 19.1956 6.81836 18.738C5.98236 18.8965 5.09536 18.9765 4.70836 19.0065C4.57536 19.0165 4.44236 18.9975 4.32986 18.9265C4.06236 18.757 3.52186 18.3145 2.90736 17.25C2.29286 16.1855 2.17986 15.4965 2.16736 15.18C2.16136 15.047 2.21136 14.9225 2.28686 14.8125C2.50636 14.492 3.01886 13.764 3.57386 13.1195C3.47606 12.3764 3.47606 11.6236 3.57386 10.8805C3.01886 10.2355 2.50636 9.508 2.28636 9.1875C2.21136 9.0775 2.16136 8.9525 2.16636 8.82C2.17986 8.5035 2.29286 7.8145 2.90736 6.75C3.52236 5.6855 4.06236 5.243 4.32936 5.0735C4.44236 5.0025 4.57486 4.9835 4.70786 4.9935C5.09536 5.0235 5.98286 5.1035 6.81836 5.262C7.41232 4.80417 8.06433 4.42705 8.75736 4.1405C9.03786 3.338 9.41186 2.5315 9.57936 2.181Z" fill="#05E4F2" fill-opacity="0.2"/>
<path d="M9.57936 2.181C9.63686 2.061 9.71986 1.9555 9.83786 1.8935C10.1179 1.7465 10.7719 1.5 12.0009 1.5C13.2299 1.5 13.8834 1.7465 14.1634 1.8935C14.2814 1.9555 14.3644 2.061 14.4224 2.181C14.5899 2.531 14.9634 3.338 15.2439 4.141C15.9369 4.42741 16.5889 4.80436 17.1829 5.262C18.0189 5.1035 18.9064 5.0235 19.2939 4.9935C19.4264 4.9835 19.5594 5.0025 19.6719 5.0735C19.9394 5.243 20.4799 5.6855 21.0939 6.75C21.7089 7.8145 21.8219 8.5035 21.8349 8.82C21.8399 8.953 21.7904 9.0775 21.7149 9.1875C21.4954 9.508 20.9829 10.236 20.4279 10.8805C20.5257 11.6236 20.5257 12.3764 20.4279 13.1195C20.9829 13.7645 21.4954 14.492 21.7149 14.8125C21.7899 14.9225 21.8399 15.0475 21.8349 15.18C21.8219 15.4965 21.7084 16.1855 21.0939 17.25C20.4794 18.3145 19.9389 18.757 19.6719 18.9265C19.5594 18.9975 19.4269 19.0165 19.2934 19.0065C18.9059 18.9765 18.0189 18.8965 17.1834 18.738C16.5894 19.1958 15.9374 19.573 15.2444 19.8595C14.9634 20.662 14.5899 21.4685 14.4224 21.8195C14.3644 21.9395 14.2814 22.0445 14.1634 22.1065C13.8834 22.2535 13.2299 22.5 12.0009 22.5C10.7719 22.5 10.1184 22.2535 9.83786 22.1065C9.71986 22.0445 9.63686 21.9395 9.57936 21.819C9.41186 21.469 9.03786 20.662 8.75736 19.859C8.06437 19.5726 7.41237 19.1956 6.81836 18.738C5.98236 18.8965 5.09536 18.9765 4.70836 19.0065C4.57536 19.0165 4.44236 18.9975 4.32986 18.9265C4.06236 18.757 3.52186 18.3145 2.90736 17.25C2.29286 16.1855 2.17986 15.4965 2.16736 15.18C2.16136 15.047 2.21136 14.9225 2.28686 14.8125C2.50636 14.492 3.01886 13.764 3.57386 13.1195C3.47606 12.3764 3.47606 11.6236 3.57386 10.8805C3.01886 10.2355 2.50636 9.508 2.28636 9.1875C2.21136 9.0775 2.16136 8.9525 2.16636 8.82C2.17986 8.5035 2.29286 7.8145 2.90736 6.75C3.52236 5.6855 4.06236 5.243 4.32936 5.0735C4.44236 5.0025 4.57486 4.9835 4.70786 4.9935C5.09536 5.0235 5.98286 5.1035 6.81836 5.262C7.41232 4.80417 8.06433 4.42705 8.75736 4.1405C9.03786 3.338 9.41186 2.5315 9.57936 2.181Z" stroke="#5E35F2" stroke-linecap="round" stroke-linejoin="round"/>
<path d="M7 12C7 13.3261 7.52678 14.5979 8.46447 15.5355C9.40215 16.4732 10.6739 17 12 17C13.3261 17 14.5979 16.4732 15.5355 15.5355C16.4732 14.5979 17 13.3261 17 12C17 10.6739 16.4732 9.40215 15.5355 8.46447C14.5979 7.52678 13.3261 7 12 7C10.6739 7 9.40215 7.52678 8.46447 8.46447C7.52678 9.40215 7 10.6739 7 12Z" stroke="#5E35F2" stroke-linecap="round" stroke-linejoin="round"/>
</svg>
