<svg width="24" height="25" viewBox="0 0 24 25" fill="none" xmlns="http://www.w3.org/2000/svg">
<path d="M1.699 14.605C1.822 15.8525 2.828 16.749 4.0805 16.8175C5.691 16.906 8.281 17 12 17C15.719 17 18.309 16.906 19.92 16.8175C21.172 16.749 22.178 15.8525 22.301 14.605C22.407 13.5305 22.5 12.0135 22.5 10C22.5 7.9865 22.407 6.4695 22.301 5.395C22.178 4.147 21.172 3.251 19.9195 3.1825C18.309 3.094 15.719 3 12 3C8.281 3 5.691 3.094 4.08 3.1825C2.828 3.251 1.822 4.1475 1.699 5.395C1.593 6.47 1.5 7.9865 1.5 10C1.5 12.0135 1.593 13.5305 1.699 14.605Z" fill="#676872" fill-opacity="0.2"/>
<path d="M17.5 21.67C17.2012 21.8053 16.8796 21.8828 16.552 21.8985C15.481 21.9525 13.981 22 12 22C10.019 22 8.519 21.9525 7.448 21.8985C7.12041 21.8828 6.79875 21.8053 6.5 21.67M19.75 18.94C19.3674 19.1856 18.9271 19.3267 18.473 19.349C17.079 19.425 14.9555 19.5 12 19.5C9.045 19.5 6.921 19.425 5.527 19.349C5.07289 19.3267 4.63258 19.1856 4.25 18.94M1.699 14.605C1.822 15.8525 2.828 16.749 4.0805 16.8175C5.691 16.906 8.281 17 12 17C15.719 17 18.309 16.906 19.92 16.8175C21.172 16.749 22.178 15.8525 22.301 14.605C22.407 13.5305 22.5 12.0135 22.5 10C22.5 7.9865 22.407 6.4695 22.301 5.395C22.178 4.147 21.172 3.251 19.9195 3.1825C18.309 3.094 15.719 3 12 3C8.281 3 5.691 3.094 4.08 3.1825C2.828 3.251 1.822 4.1475 1.699 5.395C1.593 6.47 1.5 7.9865 1.5 10C1.5 12.0135 1.593 13.5305 1.699 14.605Z" stroke="#676872" stroke-linecap="round" stroke-linejoin="round"/>
<path d="M14 7.755C14 7.755 13.2 7.143 12 7.143M12 7.143C11 7.143 10 7.7555 10 8.5715C10 10.6125 14 9.388 14 11.429C14 12.245 13 12.8575 12 12.8575M12 7.143V6M12 12.8575C10.8 12.8575 10 12.245 10 12.245M12 12.8575V14M18.5 10H18M6 10H5.5" stroke="#676872" stroke-linecap="round" stroke-linejoin="round"/>
</svg>
