<svg width="24" height="25" viewBox="0 0 24 25" fill="none" xmlns="http://www.w3.org/2000/svg">
<path d="M14.5001 7.5C14.5004 8.51897 14.2175 9.51797 13.6831 10.3856C13.1487 11.2532 12.3838 11.9552 11.4736 12.4135C11.6371 12.47 11.7976 12.532 11.9551 12.599C11.3036 13.289 10.9351 14.1985 10.8566 15.093C10.7863 15.8934 10.7507 16.6965 10.7501 17.5C10.7501 18.345 10.8746 19.181 11.1151 19.9795C10.4102 19.9937 9.7052 20.0005 9.00015 20C5.72865 20 3.87115 19.87 2.82365 19.735C1.96315 19.623 1.46615 18.9255 1.62515 18.0725C2.11765 15.4325 4.01815 13.2815 6.52665 12.4135C5.61654 11.9552 4.85162 11.2532 4.31722 10.3856C3.78282 9.51797 3.49995 8.51897 3.50015 7.5C3.50015 4.4625 5.96265 2 9.00015 2C12.0376 2 14.5001 4.4625 14.5001 7.5Z" fill="#676872" fill-opacity="0.2"/>
<path d="M13.0975 15.29C13.1705 14.464 13.684 13.805 14.505 13.689C15.224 13.5875 16.328 13.5 18 13.5C19.672 13.5 20.776 13.5875 21.495 13.689C22.316 13.805 22.83 14.464 22.902 15.29C22.9669 16.0249 22.9996 16.7623 23 17.5C23 19.757 21.8085 21.869 19.802 22.902C19.1315 23.247 18.477 23.5 18 23.5C17.523 23.5 16.8685 23.247 16.198 22.902C14.191 21.869 13 19.757 13 17.5C13 16.646 13.0455 15.8835 13.0975 15.29Z" fill="white"/>
<path d="M13.0975 15.29C13.1705 14.464 13.684 13.805 14.505 13.689C15.224 13.5875 16.328 13.5 18 13.5C19.672 13.5 20.776 13.5875 21.495 13.689C22.316 13.805 22.83 14.464 22.902 15.29C22.9669 16.0249 22.9996 16.7623 23 17.5C23 19.757 21.8085 21.869 19.802 22.902C19.1315 23.247 18.477 23.5 18 23.5C17.523 23.5 16.8685 23.247 16.198 22.902C14.191 21.869 13 19.757 13 17.5C13 16.646 13.0455 15.8835 13.0975 15.29Z" stroke="#676872" stroke-linecap="round" stroke-linejoin="round"/>
<path d="M16.25 17.8835L17.897 19.75L20.25 16.25" stroke="#676872" stroke-linecap="round" stroke-linejoin="round"/>
<path d="M11.4737 12.4135C12.3838 11.9552 13.1487 11.2532 13.6831 10.3856C14.2175 9.51797 14.5004 8.51897 14.5002 7.5C14.5002 4.4625 12.0377 2 9.00017 2C5.96267 2 3.50017 4.4625 3.50017 7.5C3.49997 8.51897 3.78284 9.51797 4.31724 10.3856C4.85164 11.2532 5.61656 11.9552 6.52667 12.4135C4.01817 13.2815 2.11767 15.4325 1.62517 18.073C1.46617 18.926 1.96267 19.623 2.82367 19.7345C3.87117 19.87 5.72867 20 9.00017 20C9.53767 20 10.0367 19.9965 10.5002 19.99" stroke="#676872" stroke-linecap="round" stroke-linejoin="round"/>
</svg>
