<svg width="24" height="25" viewBox="0 0 24 25" fill="none" xmlns="http://www.w3.org/2000/svg">
<path d="M4.1135 20.2875C2.8445 20.206 1.8435 19.27 1.7275 18.003C1.61 16.725 1.5 14.835 1.5 12.25C1.5 9.665 1.61 7.775 1.7275 6.497C1.8435 5.23 2.8445 4.294 4.1135 4.2125C5.727 4.11 8.3065 4 12 4C15.6935 4 18.273 4.1095 19.8865 4.2125C21.1555 4.294 22.1565 5.23 22.2725 6.497C22.39 7.775 22.5 9.665 22.5 12.25C22.5 14.835 22.39 16.725 22.2725 18.003C22.1565 19.27 21.1555 20.206 19.8865 20.2875C18.3265 20.3875 15.864 20.4925 12.3655 20.4995L9.15 23.255C8.5025 23.811 7.5 23.35 7.5 22.496V20.439C6.37037 20.4082 5.24137 20.3577 4.1135 20.2875Z" fill="#676872" fill-opacity="0.2"/>
<path d="M13.9028 1.99794C13.8693 1.72094 13.6038 1.59194 13.3578 1.72394C13.0158 1.90794 12.4718 2.22594 11.6948 2.74994C11.0578 3.17994 10.6553 3.51744 10.4038 3.76244C10.1128 4.04594 10.1128 4.45444 10.4038 4.73744C10.6553 4.98244 11.0578 5.32044 11.6948 5.74994C12.4718 6.27394 13.0158 6.59194 13.3578 6.77644C13.6038 6.90844 13.8693 6.77894 13.9028 6.50194C13.9508 6.10044 14.0008 5.40644 14.0008 4.24994C14.0008 3.09394 13.9508 2.39994 13.9028 1.99794Z" fill="white"/>
<path d="M13.5 12.5C13.5 12.8978 13.342 13.2794 13.0607 13.5607C12.7794 13.842 12.3978 14 12 14C11.6022 14 11.2206 13.842 10.9393 13.5607C10.658 13.2794 10.5 12.8978 10.5 12.5C10.5 12.1022 10.658 11.7206 10.9393 11.4393C11.2206 11.158 11.6022 11 12 11C12.3978 11 12.7794 11.158 13.0607 11.4393C13.342 11.7206 13.5 12.1022 13.5 12.5Z" fill="white"/>
<path d="M19 12.5C19 12.8978 18.842 13.2794 18.5607 13.5607C18.2794 13.842 17.8978 14 17.5 14C17.1022 14 16.7206 13.842 16.4393 13.5607C16.158 13.2794 16 12.8978 16 12.5C16 12.1022 16.158 11.7206 16.4393 11.4393C16.7206 11.158 17.1022 11 17.5 11C17.8978 11 18.2794 11.158 18.5607 11.4393C18.842 11.7206 19 12.1022 19 12.5Z" fill="white"/>
<path d="M8 12.5C8 12.8978 7.84196 13.2794 7.56066 13.5607C7.27936 13.842 6.89782 14 6.5 14C6.10218 14 5.72064 13.842 5.43934 13.5607C5.15804 13.2794 5 12.8978 5 12.5C5 12.1022 5.15804 11.7206 5.43934 11.4393C5.72064 11.158 6.10218 11 6.5 11C6.89782 11 7.27936 11.158 7.56066 11.4393C7.84196 11.7206 8 12.1022 8 12.5Z" fill="white"/>
<path d="M14 4.01172C16.6455 4.04222 18.582 4.12972 19.8865 4.21322C21.1555 4.29472 22.1565 5.23072 22.2725 6.49772C22.39 7.77572 22.5 9.66572 22.5 12.2507C22.5 14.8357 22.39 16.7257 22.2725 18.0037C22.1565 19.2707 21.1555 20.2067 19.8865 20.2882C18.3265 20.3882 15.864 20.4932 12.3655 20.5002L9.15 23.2557C8.5025 23.8117 7.5 23.3507 7.5 22.4967V20.4397C6.37037 20.4089 5.24137 20.3583 4.1135 20.2882C2.8445 20.2067 1.8435 19.2707 1.7275 18.0037C1.61 16.7257 1.5 14.8357 1.5 12.2507C1.5 9.66622 1.61 7.77572 1.7275 6.49772C1.8435 5.23072 2.8445 4.29472 4.1135 4.21322C4.9655 4.15872 6.087 4.10272 7.5 4.06172" stroke="#676872" stroke-linecap="round" stroke-linejoin="round"/>
<path d="M13.9028 1.99794C13.8693 1.72094 13.6038 1.59194 13.3578 1.72394C13.0158 1.90794 12.4718 2.22594 11.6948 2.74994C11.0578 3.17994 10.6553 3.51744 10.4038 3.76244C10.1128 4.04594 10.1128 4.45444 10.4038 4.73744C10.6553 4.98244 11.0578 5.32044 11.6948 5.74994C12.4718 6.27394 13.0158 6.59194 13.3578 6.77644C13.6038 6.90844 13.8693 6.77894 13.9028 6.50194C13.9508 6.10044 14.0008 5.40644 14.0008 4.24994C14.0008 3.09394 13.9508 2.39994 13.9028 1.99794Z" stroke="#676872" stroke-linecap="round" stroke-linejoin="round"/>
<path d="M8 12.5C8 12.8978 7.84196 13.2794 7.56066 13.5607C7.27936 13.842 6.89782 14 6.5 14C6.10218 14 5.72064 13.842 5.43934 13.5607C5.15804 13.2794 5 12.8978 5 12.5C5 12.1022 5.15804 11.7206 5.43934 11.4393C5.72064 11.158 6.10218 11 6.5 11C6.89782 11 7.27936 11.158 7.56066 11.4393C7.84196 11.7206 8 12.1022 8 12.5Z" stroke="#676872" stroke-linecap="round" stroke-linejoin="round"/>
<path d="M13.5 12.5C13.5 12.8978 13.342 13.2794 13.0607 13.5607C12.7794 13.842 12.3978 14 12 14C11.6022 14 11.2206 13.842 10.9393 13.5607C10.658 13.2794 10.5 12.8978 10.5 12.5C10.5 12.1022 10.658 11.7206 10.9393 11.4393C11.2206 11.158 11.6022 11 12 11C12.3978 11 12.7794 11.158 13.0607 11.4393C13.342 11.7206 13.5 12.1022 13.5 12.5Z" stroke="#676872" stroke-linecap="round" stroke-linejoin="round"/>
<path d="M19 12.5C19 12.8978 18.842 13.2794 18.5607 13.5607C18.2794 13.842 17.8978 14 17.5 14C17.1022 14 16.7206 13.842 16.4393 13.5607C16.158 13.2794 16 12.8978 16 12.5C16 12.1022 16.158 11.7206 16.4393 11.4393C16.7206 11.158 17.1022 11 17.5 11C17.8978 11 18.2794 11.158 18.5607 11.4393C18.842 11.7206 19 12.1022 19 12.5Z" stroke="#676872" stroke-linecap="round" stroke-linejoin="round"/>
</svg>
