<svg width="24" height="25" viewBox="0 0 24 25" fill="none" xmlns="http://www.w3.org/2000/svg">
<path d="M2.93475 18.463C2.32099 17.2485 2 15.4995 2 14C2 8.47714 6.47714 4 12 4C17.5229 4 22 8.47714 22 14C22 15.4996 21.679 17.249 21.0653 18.4629C20.8991 18.7911 20.5148 19 20.039 19H3.962C3.48554 19 3.10067 18.7911 2.93475 18.463Z" fill="#676872" fill-opacity="0.2" stroke="#676872"/>
<path d="M10.7011 19.2503C10.5022 18.9057 10.4483 18.4963 10.5513 18.112C10.6542 17.7278 10.9056 17.4001 11.2502 17.2012C11.5947 17.0023 12.0041 16.9484 12.3884 17.0514C12.7726 17.1543 13.1003 17.4057 13.2992 17.7503C13.4981 18.0948 13.552 18.5042 13.449 18.8885C13.3461 19.2728 13.0947 19.6004 12.7502 19.7993C12.4056 19.9982 11.9962 20.0521 11.6119 19.9492C11.2277 19.8462 10.9 19.5948 10.7011 19.2503Z" fill="white" stroke="#676872"/>
<path d="M4.927 16.5C4.64355 15.697 4.49915 14.8516 4.5 14C4.5 9.858 7.858 6.5 12 6.5C16.142 6.5 19.5 9.858 19.5 14C19.5 14.8765 19.35 15.718 19.0735 16.5" stroke="#676872" stroke-linecap="round" stroke-linejoin="round"/>
<path d="M17 19.5H20.039C20.6465 19.5 21.2375 19.2305 21.5115 18.6885C22.1705 17.3845 22.5 15.5525 22.5 14C22.5 8.201 17.799 3.5 12 3.5C6.201 3.5 1.5 8.201 1.5 14C1.5 15.5525 1.8295 17.385 2.4885 18.6885C2.7625 19.23 3.3535 19.5 3.9615 19.5H7" stroke="#676872" stroke-linecap="round" stroke-linejoin="round"/>
<path d="M10.0681 17.9826C10.0001 18.2363 9.98283 18.5009 10.0171 18.7613C10.0514 19.0218 10.1367 19.2729 10.268 19.5003C10.3994 19.7278 10.5743 19.9271 10.7827 20.087C10.991 20.2469 11.2289 20.3641 11.4826 20.4321C11.7363 20.5001 12.0009 20.5174 12.2613 20.4831C12.5218 20.4488 12.7729 20.3635 13.0003 20.2322C13.2278 20.1008 13.4271 19.926 13.587 19.7176C13.7469 19.5092 13.8641 19.2713 13.9321 19.0176C14.0001 18.7639 14.0174 18.4993 13.9831 18.2389C13.9488 17.9785 13.8635 17.7274 13.7322 17.4999C13.6008 17.2724 13.426 17.0731 13.2176 16.9132C13.0092 16.7533 12.7713 16.6361 12.5176 16.5681C12.2639 16.5001 11.9993 16.4828 11.7389 16.5171C11.4785 16.5514 11.2274 16.6367 10.9999 16.768C10.7724 16.8994 10.5731 17.0743 10.4132 17.2827C10.2533 17.491 10.1361 17.7289 10.0681 17.9826Z" stroke="#676872" stroke-linecap="round" stroke-linejoin="round"/>
<path d="M12.5176 16.5681L14.3291 9.80664" stroke="#676872" stroke-linecap="round" stroke-linejoin="round"/>
</svg>
