<svg width="24" height="24" viewBox="0 0 24 24" fill="none" xmlns="http://www.w3.org/2000/svg">
<path d="M1.53862 7.68999C1.56962 6.51449 2.35212 5.54499 3.52762 5.50749C3.84254 5.4975 4.1577 5.4975 4.47262 5.50749C5.64812 5.54499 6.43062 6.51449 6.46112 7.68999C6.48262 8.50799 6.50012 9.60149 6.50012 11C6.50012 12.3985 6.48262 13.492 6.46112 14.31C6.43062 15.4855 5.64812 16.455 4.47262 16.4925C4.1577 16.5025 3.84254 16.5025 3.52762 16.4925C2.35212 16.455 1.56962 15.4855 1.53862 14.31C1.51143 13.2069 1.4986 12.1034 1.50012 11C1.50012 9.60149 1.51762 8.50799 1.53862 7.68999Z" fill="#05E4F2" fill-opacity="0.2"/>
<path d="M10.019 13.754C10.049 12.5095 10.929 11.522 12.1735 11.5025C12.3912 11.4992 12.6088 11.4992 12.8265 11.5025C14.071 11.5225 14.9515 12.5095 14.981 13.754C14.9925 14.2415 15 14.8215 15 15.5C15.0005 16.0821 14.9942 16.6641 14.981 17.246C14.951 18.4905 14.071 19.478 12.8265 19.4975C12.6088 19.5008 12.3912 19.5008 12.1735 19.4975C10.929 19.4775 10.0485 18.4905 10.019 17.2465C10.0075 16.7585 10 16.178 10 15.5C10 14.8215 10.0075 14.2415 10.019 13.754Z" fill="#05E4F2" fill-opacity="0.2"/>
<path d="M4 1.52148V5.49998" stroke="#5E35F2" stroke-linecap="round" stroke-linejoin="round"/>
<path d="M4 16.5V19.5" stroke="#5E35F2" stroke-linecap="round" stroke-linejoin="round"/>
<path d="M12.5 19.5215V22.5215" stroke="#5E35F2" stroke-linecap="round" stroke-linejoin="round"/>
<path d="M12.5 7.52148V11.5" stroke="#5E35F2" stroke-linecap="round" stroke-linejoin="round"/>
<path d="M1.53862 7.68999C1.56962 6.51449 2.35212 5.54499 3.52762 5.50749C3.84254 5.4975 4.1577 5.4975 4.47262 5.50749C5.64812 5.54499 6.43062 6.51449 6.46112 7.68999C6.48262 8.50799 6.50012 9.60149 6.50012 11C6.50012 12.3985 6.48262 13.492 6.46112 14.31C6.43062 15.4855 5.64812 16.455 4.47262 16.4925C4.1577 16.5025 3.84254 16.5025 3.52762 16.4925C2.35212 16.455 1.56962 15.4855 1.53862 14.31C1.51143 13.2069 1.4986 12.1034 1.50012 11C1.50012 9.60149 1.51762 8.50799 1.53862 7.68999Z" stroke="#5E35F2" stroke-linecap="round" stroke-linejoin="round"/>
<path d="M10.019 13.754C10.049 12.5095 10.929 11.522 12.1735 11.5025C12.3912 11.4992 12.6088 11.4992 12.8265 11.5025C14.071 11.5225 14.9515 12.5095 14.981 13.754C14.9925 14.2415 15 14.8215 15 15.5C15.0005 16.0821 14.9942 16.6641 14.981 17.246C14.951 18.4905 14.071 19.478 12.8265 19.4975C12.6088 19.5008 12.3912 19.5008 12.1735 19.4975C10.929 19.4775 10.0485 18.4905 10.019 17.2465C10.0075 16.7585 10 16.178 10 15.5C10 14.8215 10.0075 14.2415 10.019 13.754Z" stroke="#5E35F2" stroke-linecap="round" stroke-linejoin="round"/>
<path d="M22.5 3.8035C22.5 3.8035 21.5 3 20 3C18.75 3 17.5 3.8035 17.5 4.875C17.5 7.5535 22.5 5.9465 22.5 8.625C22.5 9.6965 21.25 10.5 20 10.5C18.5 10.5 17.5 9.6965 17.5 9.6965" stroke="#5E35F2" stroke-linecap="round" stroke-linejoin="round"/>
<path d="M20 3V1.5" stroke="#5E35F2" stroke-linecap="round" stroke-linejoin="round"/>
<path d="M20 12V10.5" stroke="#5E35F2" stroke-linecap="round" stroke-linejoin="round"/>
</svg>
