<svg width="21" height="25" viewBox="0 0 21 25" fill="none" xmlns="http://www.w3.org/2000/svg">
<path d="M13.1302 14.0706C14.0982 13.5615 14.9118 12.7814 15.4803 11.8174C16.0488 10.8534 16.3497 9.74336 16.3495 8.61111C16.3495 5.23611 13.7305 2.5 10.5 2.5C7.26948 2.5 4.65049 5.23611 4.65049 8.61111C4.65028 9.7433 4.95113 10.8533 5.51949 11.8173C6.08785 12.7813 6.90138 13.5614 7.86932 14.0706C5.20141 15.035 3.18014 17.425 2.65634 20.3583C2.48724 21.3061 3.01529 22.0811 3.93047 22.205C5.04507 22.3556 7.02061 22.5 10.5 22.5C13.9794 22.5 15.955 22.3556 17.069 22.2056C17.9842 22.0811 18.5128 21.3061 18.3437 20.3583C17.8199 17.425 15.7981 15.035 13.1302 14.0706Z" fill="#676872" fill-opacity="0.2"/>
<path d="M13.1302 14.0706C14.0982 13.5615 14.9118 12.7814 15.4803 11.8174C16.0488 10.8534 16.3497 9.74336 16.3495 8.61111C16.3495 5.23611 13.7305 2.5 10.5 2.5C7.26948 2.5 4.65049 5.23611 4.65049 8.61111C4.65028 9.7433 4.95113 10.8533 5.51949 11.8173C6.08785 12.7813 6.90138 13.5614 7.86932 14.0706C5.20141 15.035 3.18014 17.425 2.65634 20.3583C2.48724 21.3061 3.01529 22.0811 3.93047 22.205C5.04507 22.3556 7.02061 22.5 10.5 22.5C13.9794 22.5 15.955 22.3556 17.069 22.2056C17.9842 22.0811 18.5128 21.3061 18.3437 20.3583C17.8199 17.425 15.7981 15.035 13.1302 14.0706Z" stroke="#676872" stroke-linecap="round" stroke-linejoin="round"/>
</svg>
