<svg width="24" height="24" viewBox="0 0 24 24" fill="none" xmlns="http://www.w3.org/2000/svg">
<path d="M1.699 20.105C1.822 21.3525 2.828 22.249 4.0805 22.3175C5.691 22.406 8.281 22.5 12 22.5C15.719 22.5 18.309 22.406 19.92 22.3175C21.172 22.249 22.178 21.3525 22.301 20.105C22.407 19.0305 22.5 17.5135 22.5 15.5C22.5 13.4865 22.407 11.9695 22.301 10.895C22.178 9.6475 21.172 8.751 19.9195 8.6825C18.309 8.594 15.719 8.5 12 8.5C8.281 8.5 5.691 8.594 4.08 8.6825C2.828 8.751 1.822 9.6475 1.699 10.895C1.593 11.97 1.5 13.4865 1.5 15.5C1.5 17.5135 1.593 19.0305 1.699 20.105Z" fill="#05E4F2" fill-opacity="0.2"/>
<path d="M1.699 20.105C1.822 21.3525 2.828 22.249 4.0805 22.3175C5.691 22.406 8.281 22.5 12 22.5C15.719 22.5 18.309 22.406 19.92 22.3175C21.172 22.249 22.178 21.3525 22.301 20.105C22.407 19.0305 22.5 17.5135 22.5 15.5C22.5 13.4865 22.407 11.9695 22.301 10.895C22.178 9.6475 21.172 8.751 19.9195 8.6825C18.309 8.594 15.719 8.5 12 8.5C8.281 8.5 5.691 8.594 4.08 8.6825C2.828 8.751 1.822 9.6475 1.699 10.895C1.593 11.97 1.5 13.4865 1.5 15.5C1.5 17.5135 1.593 19.0305 1.699 20.105Z" stroke="#5E35F2" stroke-linecap="round" stroke-linejoin="round"/>
<path d="M12 4.5V1.5" stroke="#5E35F2" stroke-linecap="round" stroke-linejoin="round"/>
<path d="M16 6V3" stroke="#5E35F2" stroke-linecap="round" stroke-linejoin="round"/>
<path d="M8 6V3" stroke="#5E35F2" stroke-linecap="round" stroke-linejoin="round"/>
<path d="M14 13.143C14 13.143 13.2 12.5 12 12.5C11 12.5 10 13.143 10 14C10 16.143 14 14.857 14 17C14 17.857 13 18.5 12 18.5C10.8 18.5 10 17.857 10 17.857" stroke="#5E35F2" stroke-linecap="round" stroke-linejoin="round"/>
<path d="M12 12.5V11.5" stroke="#5E35F2" stroke-linecap="round" stroke-linejoin="round"/>
<path d="M12 19.5V18.5" stroke="#5E35F2" stroke-linecap="round" stroke-linejoin="round"/>
<path d="M18.5 15.5H18" stroke="#5E35F2" stroke-linecap="round" stroke-linejoin="round"/>
<path d="M5.5 15.5H6" stroke="#5E35F2" stroke-linecap="round" stroke-linejoin="round"/>
</svg>
