<svg width="24" height="25" viewBox="0 0 24 25" fill="none" xmlns="http://www.w3.org/2000/svg">
<path d="M9.57936 2.681C9.63686 2.561 9.71986 2.4555 9.83786 2.3935C10.1179 2.2465 10.7719 2 12.0009 2C13.2299 2 13.8834 2.2465 14.1634 2.3935C14.2814 2.4555 14.3644 2.561 14.4224 2.681C14.5899 3.031 14.9634 3.838 15.2439 4.641C15.9369 4.92741 16.5889 5.30436 17.1829 5.762C18.0189 5.6035 18.9064 5.5235 19.2939 5.4935C19.4264 5.4835 19.5594 5.5025 19.6719 5.5735C19.9394 5.743 20.4799 6.1855 21.0939 7.25C21.7089 8.3145 21.8219 9.0035 21.8349 9.32C21.8399 9.453 21.7904 9.5775 21.7149 9.6875C21.4954 10.008 20.9829 10.736 20.4279 11.3805C20.5257 12.1236 20.5257 12.8764 20.4279 13.6195C20.9829 14.2645 21.4954 14.992 21.7149 15.3125C21.7899 15.4225 21.8399 15.5475 21.8349 15.68C21.8219 15.9965 21.7084 16.6855 21.0939 17.75C20.4794 18.8145 19.9389 19.257 19.6719 19.4265C19.5594 19.4975 19.4269 19.5165 19.2934 19.5065C18.9059 19.4765 18.0189 19.3965 17.1834 19.238C16.5894 19.6958 15.9374 20.073 15.2444 20.3595C14.9634 21.162 14.5899 21.9685 14.4224 22.3195C14.3644 22.4395 14.2814 22.5445 14.1634 22.6065C13.8834 22.7535 13.2299 23 12.0009 23C10.7719 23 10.1184 22.7535 9.83786 22.6065C9.71986 22.5445 9.63686 22.4395 9.57936 22.319C9.41186 21.969 9.03786 21.162 8.75736 20.359C8.06437 20.0726 7.41237 19.6956 6.81836 19.238C5.98236 19.3965 5.09536 19.4765 4.70836 19.5065C4.57536 19.5165 4.44236 19.4975 4.32986 19.4265C4.06236 19.257 3.52186 18.8145 2.90736 17.75C2.29286 16.6855 2.17986 15.9965 2.16736 15.68C2.16136 15.547 2.21136 15.4225 2.28686 15.3125C2.50636 14.992 3.01886 14.264 3.57386 13.6195C3.47606 12.8764 3.47606 12.1236 3.57386 11.3805C3.01886 10.7355 2.50636 10.008 2.28636 9.6875C2.21136 9.5775 2.16136 9.4525 2.16636 9.32C2.17986 9.0035 2.29286 8.3145 2.90736 7.25C3.52236 6.1855 4.06236 5.743 4.32936 5.5735C4.44236 5.5025 4.57486 5.4835 4.70786 5.4935C5.09536 5.5235 5.98286 5.6035 6.81836 5.762C7.41232 5.30417 8.06433 4.92705 8.75736 4.6405C9.03786 3.838 9.41186 3.0315 9.57936 2.681Z" fill="#676872" fill-opacity="0.2"/>
<path d="M7 12.5C7 13.8261 7.52678 15.0979 8.46447 16.0355C9.40215 16.9732 10.6739 17.5 12 17.5C13.3261 17.5 14.5979 16.9732 15.5355 16.0355C16.4732 15.0979 17 13.8261 17 12.5C17 11.1739 16.4732 9.90215 15.5355 8.96447C14.5979 8.02678 13.3261 7.5 12 7.5C10.6739 7.5 9.40215 8.02678 8.46447 8.96447C7.52678 9.90215 7 11.1739 7 12.5Z" fill="white"/>
<path d="M9.57936 2.681C9.63686 2.561 9.71986 2.4555 9.83786 2.3935C10.1179 2.2465 10.7719 2 12.0009 2C13.2299 2 13.8834 2.2465 14.1634 2.3935C14.2814 2.4555 14.3644 2.561 14.4224 2.681C14.5899 3.031 14.9634 3.838 15.2439 4.641C15.9369 4.92741 16.5889 5.30436 17.1829 5.762C18.0189 5.6035 18.9064 5.5235 19.2939 5.4935C19.4264 5.4835 19.5594 5.5025 19.6719 5.5735C19.9394 5.743 20.4799 6.1855 21.0939 7.25C21.7089 8.3145 21.8219 9.0035 21.8349 9.32C21.8399 9.453 21.7904 9.5775 21.7149 9.6875C21.4954 10.008 20.9829 10.736 20.4279 11.3805C20.5257 12.1236 20.5257 12.8764 20.4279 13.6195C20.9829 14.2645 21.4954 14.992 21.7149 15.3125C21.7899 15.4225 21.8399 15.5475 21.8349 15.68C21.8219 15.9965 21.7084 16.6855 21.0939 17.75C20.4794 18.8145 19.9389 19.257 19.6719 19.4265C19.5594 19.4975 19.4269 19.5165 19.2934 19.5065C18.9059 19.4765 18.0189 19.3965 17.1834 19.238C16.5894 19.6958 15.9374 20.073 15.2444 20.3595C14.9634 21.162 14.5899 21.9685 14.4224 22.3195C14.3644 22.4395 14.2814 22.5445 14.1634 22.6065C13.8834 22.7535 13.2299 23 12.0009 23C10.7719 23 10.1184 22.7535 9.83786 22.6065C9.71986 22.5445 9.63686 22.4395 9.57936 22.319C9.41186 21.969 9.03786 21.162 8.75736 20.359C8.06437 20.0726 7.41237 19.6956 6.81836 19.238C5.98236 19.3965 5.09536 19.4765 4.70836 19.5065C4.57536 19.5165 4.44236 19.4975 4.32986 19.4265C4.06236 19.257 3.52186 18.8145 2.90736 17.75C2.29286 16.6855 2.17986 15.9965 2.16736 15.68C2.16136 15.547 2.21136 15.4225 2.28686 15.3125C2.50636 14.992 3.01886 14.264 3.57386 13.6195C3.47606 12.8764 3.47606 12.1236 3.57386 11.3805C3.01886 10.7355 2.50636 10.008 2.28636 9.6875C2.21136 9.5775 2.16136 9.4525 2.16636 9.32C2.17986 9.0035 2.29286 8.3145 2.90736 7.25C3.52236 6.1855 4.06236 5.743 4.32936 5.5735C4.44236 5.5025 4.57486 5.4835 4.70786 5.4935C5.09536 5.5235 5.98286 5.6035 6.81836 5.762C7.41232 5.30417 8.06433 4.92705 8.75736 4.6405C9.03786 3.838 9.41186 3.0315 9.57936 2.681Z" stroke="#676872" stroke-linecap="round" stroke-linejoin="round"/>
<path d="M7 12.5C7 13.8261 7.52678 15.0979 8.46447 16.0355C9.40215 16.9732 10.6739 17.5 12 17.5C13.3261 17.5 14.5979 16.9732 15.5355 16.0355C16.4732 15.0979 17 13.8261 17 12.5C17 11.1739 16.4732 9.90215 15.5355 8.96447C14.5979 8.02678 13.3261 7.5 12 7.5C10.6739 7.5 9.40215 8.02678 8.46447 8.96447C7.52678 9.90215 7 11.1739 7 12.5Z" stroke="#676872" stroke-linecap="round" stroke-linejoin="round"/>
</svg>
