<svg width="24" height="24" viewBox="0 0 24 24" fill="none" xmlns="http://www.w3.org/2000/svg">
<path d="M13.9856 12.5191L13.7786 4.8081C13.7611 4.1626 13.3291 3.5981 12.6866 3.5341C12.2299 3.48863 11.7698 3.48863 11.3131 3.5341C10.6701 3.5986 10.2381 4.1626 10.2206 4.8086L10.0136 12.5191C9.49286 12.5294 8.9723 12.5472 8.45209 12.5726C7.46409 12.6221 7.05859 13.5576 7.71409 14.2981C8.05109 14.6781 8.47359 15.1341 8.99909 15.6701C9.98809 16.6776 10.7321 17.2581 11.2321 17.5876C11.4586 17.7411 11.726 17.8232 11.9996 17.8232C12.2732 17.8232 12.5406 17.7411 12.7671 17.5876C13.2671 17.2581 14.0111 16.6776 14.9996 15.6701C15.4395 15.2239 15.868 14.7666 16.2846 14.2986C16.9401 13.5576 16.5346 12.6221 15.5461 12.5726C15.1176 12.5511 14.6026 12.5326 13.9856 12.5191Z" fill="#05E4F2" fill-opacity="0.2"/>
<path d="M16.5 9.57422C17.5313 9.60909 18.5619 9.66461 19.591 9.74072C20.7575 9.82972 21.682 10.6607 21.8065 11.8237C21.91 12.7922 22 14.1622 22 15.9987C22 17.8362 21.91 19.2062 21.8065 20.1747C21.6825 21.3377 20.759 22.1687 19.5925 22.2572C18.07 22.3732 15.591 22.4992 12 22.4992C8.409 22.4992 5.93 22.3732 4.4075 22.2572C3.241 22.1687 2.3175 21.3377 2.1935 20.1747C2.09 19.2062 2 17.8362 2 15.9992C2 14.1622 2.09 12.7922 2.1935 11.8242C2.3175 10.6607 3.2425 9.82922 4.4085 9.74072C5.43779 9.6646 6.46849 9.60909 7.5 9.57422" stroke="#5E35F2" stroke-linecap="round" stroke-linejoin="round"/>
<path d="M13.9856 12.5191L13.7786 4.8081C13.7611 4.1626 13.3291 3.5981 12.6866 3.5341C12.2299 3.48863 11.7698 3.48863 11.3131 3.5341C10.6701 3.5986 10.2381 4.1626 10.2206 4.8086L10.0136 12.5191C9.49286 12.5294 8.9723 12.5472 8.45209 12.5726C7.46409 12.6221 7.05859 13.5576 7.71409 14.2981C8.05109 14.6781 8.47359 15.1341 8.99909 15.6701C9.98809 16.6776 10.7321 17.2581 11.2321 17.5876C11.4586 17.7411 11.726 17.8232 11.9996 17.8232C12.2732 17.8232 12.5406 17.7411 12.7671 17.5876C13.2671 17.2581 14.0111 16.6776 14.9996 15.6701C15.4395 15.2239 15.868 14.7666 16.2846 14.2986C16.9401 13.5576 16.5346 12.6221 15.5461 12.5726C15.1176 12.5511 14.6026 12.5326 13.9856 12.5191Z" stroke="#5E35F2" stroke-linecap="round" stroke-linejoin="round"/>
</svg>
