<svg width="24" height="24" viewBox="0 0 24 24" fill="none" xmlns="http://www.w3.org/2000/svg">
<path d="M4.1135 19.7875C2.8445 19.706 1.8435 18.77 1.7275 17.503C1.61 16.225 1.5 14.335 1.5 11.75C1.5 9.165 1.61 7.275 1.7275 5.997C1.8435 4.73 2.8445 3.794 4.1135 3.7125C5.727 3.61 8.3065 3.5 12 3.5C15.6935 3.5 18.273 3.6095 19.8865 3.7125C21.1555 3.794 22.1565 4.73 22.2725 5.997C22.39 7.275 22.5 9.165 22.5 11.75C22.5 14.335 22.39 16.225 22.2725 17.503C22.1565 18.77 21.1555 19.706 19.8865 19.7875C18.3265 19.8875 15.864 19.9925 12.3655 19.9995L9.15 22.755C8.5025 23.311 7.5 22.85 7.5 21.996V19.939C6.37037 19.9082 5.24137 19.8577 4.1135 19.7875Z" fill="#05E4F2" fill-opacity="0.2"/>
<path d="M14 3.51172C16.6455 3.54222 18.582 3.62972 19.8865 3.71322C21.1555 3.79472 22.1565 4.73072 22.2725 5.99772C22.39 7.27572 22.5 9.16572 22.5 11.7507C22.5 14.3357 22.39 16.2257 22.2725 17.5037C22.1565 18.7707 21.1555 19.7067 19.8865 19.7882C18.3265 19.8882 15.864 19.9932 12.3655 20.0002L9.15 22.7557C8.5025 23.3117 7.5 22.8507 7.5 21.9967V19.9397C6.37037 19.9089 5.24137 19.8583 4.1135 19.7882C2.8445 19.7067 1.8435 18.7707 1.7275 17.5037C1.61 16.2257 1.5 14.3357 1.5 11.7507C1.5 9.16622 1.61 7.27572 1.7275 5.99772C1.8435 4.73072 2.8445 3.79472 4.1135 3.71322C4.9655 3.65872 6.087 3.60272 7.5 3.56172" stroke="#5E35F2" stroke-linecap="round" stroke-linejoin="round"/>
<path d="M13.9028 1.49794C13.8693 1.22094 13.6038 1.09194 13.3578 1.22394C13.0158 1.40794 12.4718 1.72594 11.6948 2.24994C11.0578 2.67994 10.6553 3.01744 10.4038 3.26244C10.1128 3.54594 10.1128 3.95444 10.4038 4.23744C10.6553 4.48244 11.0578 4.82044 11.6948 5.24994C12.4718 5.77394 13.0158 6.09194 13.3578 6.27644C13.6038 6.40844 13.8693 6.27894 13.9028 6.00194C13.9508 5.60044 14.0008 4.90644 14.0008 3.74994C14.0008 2.59394 13.9508 1.89994 13.9028 1.49794Z" stroke="#5E35F2" stroke-linecap="round" stroke-linejoin="round"/>
<path d="M8 12C8 12.3978 7.84196 12.7794 7.56066 13.0607C7.27936 13.342 6.89782 13.5 6.5 13.5C6.10218 13.5 5.72064 13.342 5.43934 13.0607C5.15804 12.7794 5 12.3978 5 12C5 11.6022 5.15804 11.2206 5.43934 10.9393C5.72064 10.658 6.10218 10.5 6.5 10.5C6.89782 10.5 7.27936 10.658 7.56066 10.9393C7.84196 11.2206 8 11.6022 8 12Z" stroke="#5E35F2" stroke-linecap="round" stroke-linejoin="round"/>
<path d="M13.5 12C13.5 12.3978 13.342 12.7794 13.0607 13.0607C12.7794 13.342 12.3978 13.5 12 13.5C11.6022 13.5 11.2206 13.342 10.9393 13.0607C10.658 12.7794 10.5 12.3978 10.5 12C10.5 11.6022 10.658 11.2206 10.9393 10.9393C11.2206 10.658 11.6022 10.5 12 10.5C12.3978 10.5 12.7794 10.658 13.0607 10.9393C13.342 11.2206 13.5 11.6022 13.5 12Z" stroke="#5E35F2" stroke-linecap="round" stroke-linejoin="round"/>
<path d="M19 12C19 12.3978 18.842 12.7794 18.5607 13.0607C18.2794 13.342 17.8978 13.5 17.5 13.5C17.1022 13.5 16.7206 13.342 16.4393 13.0607C16.158 12.7794 16 12.3978 16 12C16 11.6022 16.158 11.2206 16.4393 10.9393C16.7206 10.658 17.1022 10.5 17.5 10.5C17.8978 10.5 18.2794 10.658 18.5607 10.9393C18.842 11.2206 19 11.6022 19 12Z" stroke="#5E35F2" stroke-linecap="round" stroke-linejoin="round"/>
</svg>
