<svg width="24" height="25" viewBox="0 0 24 25" fill="none" xmlns="http://www.w3.org/2000/svg">
<path d="M1.6585 3.7285C1.686 3.32116 1.86024 2.93761 2.14892 2.64892C2.43761 2.36024 2.82116 2.186 3.2285 2.1585C4.233 2.08 5.796 2 8 2C10.2035 2 11.767 2.08 12.7715 2.1585C13.1788 2.186 13.5624 2.36024 13.8511 2.64892C14.1398 2.93761 14.314 3.32116 14.3415 3.7285C14.42 4.733 14.5 6.296 14.5 8.5C14.5 10.7035 14.42 12.267 14.3415 13.2715C14.314 13.6788 14.1398 14.0624 13.8511 14.3511C13.5624 14.6398 13.1788 14.814 12.7715 14.8415C11.767 14.92 10.2035 15 8 15C5.796 15 4.233 14.92 3.2285 14.8415C2.82116 14.814 2.43761 14.6398 2.14892 14.3511C1.86024 14.0624 1.686 13.6788 1.6585 13.2715C1.58 12.267 1.5 10.7035 1.5 8.5C1.5 6.296 1.58 4.733 1.6585 3.7285Z" fill="#676872" fill-opacity="0.2"/>
<path d="M1.6585 3.7285C1.686 3.32116 1.86024 2.93761 2.14892 2.64892C2.43761 2.36024 2.82116 2.186 3.2285 2.1585C4.233 2.08 5.796 2 8 2C10.2035 2 11.767 2.08 12.7715 2.1585C13.1788 2.186 13.5624 2.36024 13.8511 2.64892C14.1398 2.93761 14.314 3.32116 14.3415 3.7285C14.42 4.733 14.5 6.296 14.5 8.5C14.5 10.7035 14.42 12.267 14.3415 13.2715C14.314 13.6788 14.1398 14.0624 13.8511 14.3511C13.5624 14.6398 13.1788 14.814 12.7715 14.8415C11.767 14.92 10.2035 15 8 15C5.796 15 4.233 14.92 3.2285 14.8415C2.82116 14.814 2.43761 14.6398 2.14892 14.3511C1.86024 14.0624 1.686 13.6788 1.6585 13.2715C1.58 12.267 1.5 10.7035 1.5 8.5C1.5 6.296 1.58 4.733 1.6585 3.7285Z" stroke="#676872" stroke-linecap="round" stroke-linejoin="round"/>
<path d="M17.5145 11.543C17.542 10.689 18.189 10.042 19.043 10.0145C19.318 10.0055 19.6365 10 20 10C20.3635 10 20.6815 10.0055 20.957 10.0145C21.811 10.042 22.458 10.689 22.4855 11.543C22.4945 11.818 22.5 12.1365 22.5 12.5C22.5 12.8635 22.4945 13.1815 22.4855 13.457C22.458 14.311 21.811 14.958 20.957 14.9855C20.682 14.9945 20.3635 15 20 15C19.6365 15 19.3185 14.9945 19.043 14.9855C18.189 14.958 17.542 14.311 17.5145 13.457C17.5046 13.1381 17.4997 12.8191 17.5 12.5C17.5 12.1365 17.5055 11.8185 17.5145 11.543Z" fill="white"/>
<path d="M17.5145 11.543C17.542 10.689 18.189 10.042 19.043 10.0145C19.318 10.0055 19.6365 10 20 10C20.3635 10 20.6815 10.0055 20.957 10.0145C21.811 10.042 22.458 10.689 22.4855 11.543C22.4945 11.818 22.5 12.1365 22.5 12.5C22.5 12.8635 22.4945 13.1815 22.4855 13.457C22.458 14.311 21.811 14.958 20.957 14.9855C20.682 14.9945 20.3635 15 20 15C19.6365 15 19.3185 14.9945 19.043 14.9855C18.189 14.958 17.542 14.311 17.5145 13.457C17.5046 13.1381 17.4997 12.8191 17.5 12.5C17.5 12.1365 17.5055 11.8185 17.5145 11.543Z" stroke="#676872" stroke-linecap="round" stroke-linejoin="round"/>
<path d="M1.6515 19.042C1.7925 18.4335 2.364 18.1055 2.9885 18.0895C4.3775 18.0545 7.279 18 12 18C16.721 18 19.6225 18.054 21.0115 18.0895C21.636 18.1055 22.2075 18.4335 22.3485 19.042C22.4335 19.4085 22.5 19.8905 22.5 20.5C22.5 21.1095 22.433 21.5915 22.3485 21.958C22.2075 22.5665 21.636 22.8945 21.0115 22.9105C19.6225 22.9455 16.721 23 12 23C7.279 23 4.3775 22.946 2.9885 22.9105C2.364 22.8945 1.7925 22.5665 1.6515 21.958C1.5665 21.5915 1.5 21.1095 1.5 20.5C1.5 19.8905 1.567 19.4085 1.6515 19.042Z" fill="#676872" fill-opacity="0.2"/>
<path d="M1.6515 19.042C1.7925 18.4335 2.364 18.1055 2.9885 18.0895C4.3775 18.0545 7.279 18 12 18C16.721 18 19.6225 18.054 21.0115 18.0895C21.636 18.1055 22.2075 18.4335 22.3485 19.042C22.4335 19.4085 22.5 19.8905 22.5 20.5C22.5 21.1095 22.433 21.5915 22.3485 21.958C22.2075 22.5665 21.636 22.8945 21.0115 22.9105C19.6225 22.9455 16.721 23 12 23C7.279 23 4.3775 22.946 2.9885 22.9105C2.364 22.8945 1.7925 22.5665 1.6515 21.958C1.5665 21.5915 1.5 21.1095 1.5 20.5C1.5 19.8905 1.567 19.4085 1.6515 19.042Z" stroke="#676872" stroke-linecap="round" stroke-linejoin="round"/>
<path d="M17.5145 3.543C17.542 2.689 18.189 2.042 19.043 2.0145C19.318 2.0055 19.6365 2 20 2C20.3635 2 20.6815 2.0055 20.957 2.0145C21.811 2.042 22.458 2.689 22.4855 3.543C22.4945 3.818 22.5 4.1365 22.5 4.5C22.5 4.8635 22.4945 5.1815 22.4855 5.457C22.458 6.311 21.811 6.958 20.957 6.9855C20.682 6.9945 20.3635 7 20 7C19.6365 7 19.3185 6.9945 19.043 6.9855C18.189 6.958 17.542 6.311 17.5145 5.457C17.5046 5.1381 17.4997 4.81906 17.5 4.5C17.5 4.1365 17.5055 3.8185 17.5145 3.543Z" fill="white"/>
<path d="M17.5145 3.543C17.542 2.689 18.189 2.042 19.043 2.0145C19.318 2.0055 19.6365 2 20 2C20.3635 2 20.6815 2.0055 20.957 2.0145C21.811 2.042 22.458 2.689 22.4855 3.543C22.4945 3.818 22.5 4.1365 22.5 4.5C22.5 4.8635 22.4945 5.1815 22.4855 5.457C22.458 6.311 21.811 6.958 20.957 6.9855C20.682 6.9945 20.3635 7 20 7C19.6365 7 19.3185 6.9945 19.043 6.9855C18.189 6.958 17.542 6.311 17.5145 5.457C17.5046 5.1381 17.4997 4.81906 17.5 4.5C17.5 4.1365 17.5055 3.8185 17.5145 3.543Z" stroke="#676872" stroke-linecap="round" stroke-linejoin="round"/>
</svg>
