<svg width="24" height="25" viewBox="0 0 24 25" fill="none" xmlns="http://www.w3.org/2000/svg">
<path d="M1.53862 8.18999C1.56962 7.01449 2.35212 6.04499 3.52762 6.00749C3.84254 5.9975 4.1577 5.9975 4.47262 6.00749C5.64812 6.04499 6.43062 7.01449 6.46112 8.18999C6.48262 9.00799 6.50012 10.1015 6.50012 11.5C6.50012 12.8985 6.48262 13.992 6.46112 14.81C6.43062 15.9855 5.64812 16.955 4.47262 16.9925C4.1577 17.0025 3.84254 17.0025 3.52762 16.9925C2.35212 16.955 1.56962 15.9855 1.53862 14.81C1.51143 13.7069 1.4986 12.6034 1.50012 11.5C1.50012 10.1015 1.51762 9.00799 1.53862 8.18999Z" fill="#676872" fill-opacity="0.2"/>
<path d="M10.019 14.254C10.049 13.0095 10.929 12.022 12.1735 12.0025C12.3912 11.9992 12.6088 11.9992 12.8265 12.0025C14.071 12.0225 14.9515 13.0095 14.981 14.254C14.9925 14.7415 15 15.3215 15 16C15.0005 16.5821 14.9942 17.1641 14.981 17.746C14.951 18.9905 14.071 19.978 12.8265 19.9975C12.6088 20.0008 12.3912 20.0008 12.1735 19.9975C10.929 19.9775 10.0485 18.9905 10.019 17.7465C10.0075 17.2585 10 16.678 10 16C10 15.3215 10.0075 14.7415 10.019 14.254Z" fill="#676872" fill-opacity="0.2"/>
<path d="M4 2.02148V5.99998" stroke="#676872" stroke-linecap="round" stroke-linejoin="round"/>
<path d="M4 17V20" stroke="#676872" stroke-linecap="round" stroke-linejoin="round"/>
<path d="M12.5 20.0215V23.0215" stroke="#676872" stroke-linecap="round" stroke-linejoin="round"/>
<path d="M12.5 8.02148V12" stroke="#676872" stroke-linecap="round" stroke-linejoin="round"/>
<path d="M1.53862 8.18999C1.56962 7.01449 2.35212 6.04499 3.52762 6.00749C3.84254 5.9975 4.1577 5.9975 4.47262 6.00749C5.64812 6.04499 6.43062 7.01449 6.46112 8.18999C6.48262 9.00799 6.50012 10.1015 6.50012 11.5C6.50012 12.8985 6.48262 13.992 6.46112 14.81C6.43062 15.9855 5.64812 16.955 4.47262 16.9925C4.1577 17.0025 3.84254 17.0025 3.52762 16.9925C2.35212 16.955 1.56962 15.9855 1.53862 14.81C1.51143 13.7069 1.4986 12.6034 1.50012 11.5C1.50012 10.1015 1.51762 9.00799 1.53862 8.18999Z" stroke="#676872" stroke-linecap="round" stroke-linejoin="round"/>
<path d="M10.019 14.254C10.049 13.0095 10.929 12.022 12.1735 12.0025C12.3912 11.9992 12.6088 11.9992 12.8265 12.0025C14.071 12.0225 14.9515 13.0095 14.981 14.254C14.9925 14.7415 15 15.3215 15 16C15.0005 16.5821 14.9942 17.1641 14.981 17.746C14.951 18.9905 14.071 19.978 12.8265 19.9975C12.6088 20.0008 12.3912 20.0008 12.1735 19.9975C10.929 19.9775 10.0485 18.9905 10.019 17.7465C10.0075 17.2585 10 16.678 10 16C10 15.3215 10.0075 14.7415 10.019 14.254Z" stroke="#676872" stroke-linecap="round" stroke-linejoin="round"/>
<path d="M22.5 4.3035C22.5 4.3035 21.5 3.5 20 3.5C18.75 3.5 17.5 4.3035 17.5 5.375C17.5 8.0535 22.5 6.4465 22.5 9.125C22.5 10.1965 21.25 11 20 11C18.5 11 17.5 10.1965 17.5 10.1965" stroke="#676872" stroke-linecap="round" stroke-linejoin="round"/>
<path d="M20 3.5V2" stroke="#676872" stroke-linecap="round" stroke-linejoin="round"/>
<path d="M20 12.5V11" stroke="#676872" stroke-linecap="round" stroke-linejoin="round"/>
</svg>
