<svg width="24" height="25" viewBox="0 0 24 25" fill="none" xmlns="http://www.w3.org/2000/svg">
<path d="M3.5 18.6765C3.685 21.759 2.25 22.3825 1.5 22.3825C1.5 22.3825 4.75 23 9.5 23C11.7425 23 13.6505 22.8625 15.04 22.717C16.4735 22.567 17.505 21.3395 17.465 19.899C17.3455 15.597 16.952 11.905 16.771 7C16.715 5.47 16.771 2.5 19 2H6C4.343 2 3.0025 3.341 3.025 4.9975C3.0685 8.1655 3.185 13.421 3.5 18.6765Z" fill="#676872" fill-opacity="0.2"/>
<path d="M18.9986 2C16.7701 2.5 16.7136 5.469 16.7696 6.9995C18.9696 6.9885 20.4686 6.846 21.3796 6.718C22.0471 6.624 22.4986 6.0465 22.4986 5.373V5.049C22.4986 3.0975 20.9986 2 19.4986 2H18.9986Z" fill="white"/>
<path d="M3.5 18.6765C3.685 21.759 2.25 22.3825 1.5 22.3825C1.5 22.3825 4.75 23 9.5 23C11.7425 23 13.6505 22.8625 15.04 22.717C16.4735 22.567 17.505 21.3395 17.465 19.899C17.3455 15.597 16.952 11.905 16.771 7C16.715 5.47 16.771 2.5 19 2H6C4.343 2 3.0025 3.341 3.025 4.9975C3.0685 8.1655 3.185 13.421 3.5 18.6765Z" stroke="#676872" stroke-linecap="round" stroke-linejoin="round"/>
<path d="M19.0005 2H19.5005C21.0005 2 22.5005 3.0975 22.5005 5.049V5.373C22.5005 6.0465 22.0485 6.624 21.382 6.718C20.4705 6.846 18.971 6.988 16.7715 6.9995" stroke="#676872" stroke-linecap="round" stroke-linejoin="round"/>
<path d="M8.5 7H13.5" stroke="#676872" stroke-linecap="round" stroke-linejoin="round"/>
<path d="M6.5 10.5H13.5" stroke="#676872" stroke-linecap="round" stroke-linejoin="round"/>
<path d="M6.75 14H13.75" stroke="#676872" stroke-linecap="round" stroke-linejoin="round"/>
<path d="M7 17.5H14" stroke="#676872" stroke-linecap="round" stroke-linejoin="round"/>
</svg>
