<svg width="21" height="24" viewBox="0 0 21 24" fill="none" xmlns="http://www.w3.org/2000/svg">
<path d="M13.1302 13.5706C14.0982 13.0615 14.9118 12.2814 15.4803 11.3174C16.0488 10.3534 16.3497 9.24336 16.3495 8.11111C16.3495 4.73611 13.7305 2 10.5 2C7.26948 2 4.65049 4.73611 4.65049 8.11111C4.65028 9.2433 4.95113 10.3533 5.51949 11.3173C6.08785 12.2813 6.90138 13.0614 7.86932 13.5706C5.20141 14.535 3.18014 16.925 2.65634 19.8583C2.48724 20.8061 3.01529 21.5811 3.93047 21.705C5.04507 21.8556 7.02061 22 10.5 22C13.9794 22 15.955 21.8556 17.069 21.7056C17.9842 21.5811 18.5128 20.8061 18.3437 19.8583C17.8199 16.925 15.7981 14.535 13.1302 13.5706Z" fill="#05E4F2" fill-opacity="0.2"/>
<path d="M13.1302 13.5706C14.0982 13.0615 14.9118 12.2814 15.4803 11.3174C16.0488 10.3534 16.3497 9.24336 16.3495 8.11111C16.3495 4.73611 13.7305 2 10.5 2C7.26948 2 4.65049 4.73611 4.65049 8.11111C4.65028 9.2433 4.95113 10.3533 5.51949 11.3173C6.08785 12.2813 6.90138 13.0614 7.86932 13.5706C5.20141 14.535 3.18014 16.925 2.65634 19.8583C2.48724 20.8061 3.01529 21.5811 3.93047 21.705C5.04507 21.8556 7.02061 22 10.5 22C13.9794 22 15.955 21.8556 17.069 21.7056C17.9842 21.5811 18.5128 20.8061 18.3437 19.8583C17.8199 16.925 15.7981 14.535 13.1302 13.5706Z" stroke="#5E35F2" stroke-linecap="round" stroke-linejoin="round"/>
</svg>
