<svg width="25" height="24" viewBox="0 0 25 24" fill="none" xmlns="http://www.w3.org/2000/svg">
<g clip-path="url(#clip0_80_11884)">
<path d="M23.55 11.0388H22.374C21.7104 11.0388 21.174 11.4696 21.174 12C21.174 12.5292 21.7104 12.9588 22.374 12.9588H23.55C24.2124 12.9588 24.75 12.5304 24.75 12C24.75 11.4708 24.2112 11.0388 23.55 11.0388ZM12.75 5.4C11.8825 5.39731 11.0231 5.56618 10.2211 5.89691C9.41914 6.22764 8.69049 6.71368 8.07709 7.32709C7.46368 7.94049 6.97764 8.66914 6.64691 9.47111C6.31618 10.2731 6.14731 11.1325 6.15 12C6.15 15.6612 9.0888 18.6 12.75 18.6C16.41 18.6 19.35 15.6612 19.35 12C19.35 8.3388 16.4088 5.4 12.75 5.4ZM12.75 16.8C10.0968 16.8 7.95 14.6508 7.95 12C7.95 9.3468 10.0968 7.2 12.75 7.2C14.023 7.2 15.2439 7.70571 16.1441 8.60589C17.0443 9.50606 17.55 10.727 17.55 12C17.55 13.273 17.0443 14.4939 16.1441 15.3941C15.2439 16.2943 14.023 16.8 12.75 16.8ZM4.35 12C4.35 11.4708 3.8112 11.0388 3.15 11.0388H1.95C1.2864 11.0388 0.75 11.4696 0.75 12C0.75 12.5292 1.2864 12.9588 1.95 12.9588H3.15C3.8112 12.9588 4.35 12.5292 4.35 12ZM12.75 3.6C13.2792 3.6 13.7088 3.0636 13.7088 2.4V1.2C13.7088 0.5364 13.2792 0 12.75 0C12.2196 0 11.7888 0.5364 11.7888 1.2V2.4C11.7888 3.0636 12.2196 3.6 12.75 3.6ZM12.75 20.4C12.2196 20.4 11.7888 20.9364 11.7888 21.6V22.8C11.7888 23.4636 12.2196 24 12.75 24C13.2792 24 13.7088 23.4636 13.7088 22.8V21.6C13.7088 20.9364 13.2792 20.4 12.75 20.4ZM21.588 4.5192C22.0572 4.05 22.1328 3.366 21.7584 2.9916C21.384 2.6172 20.6988 2.694 20.232 3.1632L19.392 4.002C18.9228 4.4712 18.8472 5.1552 19.2216 5.5296C19.596 5.904 20.2812 5.8272 20.7492 5.358L21.588 4.5192ZM4.7508 18.6396L3.9108 19.4808C3.4416 19.95 3.366 20.6316 3.7404 21.006C4.1148 21.3804 4.8 21.306 5.2668 20.8368L6.1068 19.998C6.576 19.5288 6.6516 18.8448 6.2772 18.4692C5.9028 18.0936 5.2176 18.1728 4.7508 18.6396ZM5.268 3.162C4.8 2.6928 4.1148 2.616 3.7404 2.9904C3.366 3.3648 3.4428 4.05 3.9096 4.5192L4.7496 5.358C5.2188 5.8272 5.9016 5.904 6.276 5.5296C6.6504 5.1552 6.5748 4.47 6.1068 4.002L5.268 3.162ZM19.3908 19.9992L20.2308 20.838C20.7 21.3072 21.3828 21.3816 21.7572 21.0096C22.1316 20.6352 22.056 19.95 21.5868 19.482L20.748 18.6432C20.2788 18.174 19.5948 18.0972 19.2192 18.4716C18.8436 18.846 18.9216 19.53 19.3908 19.9992Z" fill="#000425"/>
</g>
<defs>
<clipPath id="clip0_80_11884">
<rect width="24" height="24" fill="white" transform="translate(0.75)"/>
</clipPath>
</defs>
</svg>
