<svg width="72" height="72" viewBox="0 0 72 72" fill="none" xmlns="http://www.w3.org/2000/svg">
<path d="M30 36H15C14.2044 36 13.4413 35.6839 12.8787 35.1213C12.3161 34.5587 12 33.7956 12 33V22.5C12 21.7044 12.3161 20.9413 12.8787 20.3787C13.4413 19.8161 14.2044 19.5 15 19.5H27C27.7956 19.5 28.5587 19.8161 29.1213 20.3787C29.6839 20.9413 30 21.7044 30 22.5V36ZM30 36C30 43.5 27 48 18 52.5M60 36H45C44.2044 36 43.4413 35.6839 42.8787 35.1213C42.3161 34.5587 42 33.7956 42 33V22.5C42 21.7044 42.3161 20.9413 42.8787 20.3787C43.4413 19.8161 44.2044 19.5 45 19.5H57C57.7956 19.5 58.5587 19.8161 59.1213 20.3787C59.6839 20.9413 60 21.7044 60 22.5V36ZM60 36C60 43.5 57 48 48 52.5" stroke="#000425" stroke-width="2" stroke-linecap="round"/>
</svg>
