<svg width="16" height="17" viewBox="0 0 16 17" fill="none" xmlns="http://www.w3.org/2000/svg">
<path d="M10.0039 9.54671C10.7415 9.20731 11.3614 8.68727 11.7945 8.04461C12.2276 7.40194 12.4569 6.66192 12.4568 5.90708C12.4568 3.65708 10.4614 1.83301 8.00001 1.83301C5.53865 1.83301 3.54323 3.65708 3.54323 5.90708C3.54307 6.66188 3.77229 7.40187 4.20533 8.04454C4.63836 8.6872 5.25819 9.20726 5.99568 9.54671C3.96298 10.1897 2.42296 11.783 2.02388 13.7386C1.89504 14.3704 2.29736 14.8871 2.99465 14.9697C3.84386 15.07 5.34904 15.1663 8.00001 15.1663C10.651 15.1663 12.1562 15.07 13.005 14.97C13.7022 14.8871 14.105 14.3704 13.9761 13.7386C13.5771 11.783 12.0366 10.1897 10.0039 9.54671Z" fill="#676872" fill-opacity="0.2"/>
<path d="M10.0039 9.54671C10.7415 9.20731 11.3614 8.68727 11.7945 8.04461C12.2276 7.40194 12.4569 6.66192 12.4568 5.90708C12.4568 3.65708 10.4614 1.83301 8.00001 1.83301C5.53865 1.83301 3.54323 3.65708 3.54323 5.90708C3.54307 6.66188 3.77229 7.40187 4.20533 8.04454C4.63836 8.6872 5.25819 9.20726 5.99568 9.54671C3.96298 10.1897 2.42296 11.783 2.02388 13.7386C1.89504 14.3704 2.29736 14.8871 2.99465 14.9697C3.84386 15.07 5.34904 15.1663 8.00001 15.1663C10.651 15.1663 12.1562 15.07 13.005 14.97C13.7022 14.8871 14.105 14.3704 13.9761 13.7386C13.5771 11.783 12.0366 10.1897 10.0039 9.54671Z" stroke="#676872" stroke-linecap="round" stroke-linejoin="round"/>
</svg>
