<svg width="17" height="16" viewBox="0 0 17 16" fill="none" xmlns="http://www.w3.org/2000/svg">
<g clip-path="url(#clip0_114_5981)">
<path d="M12.1786 4C12.1786 3.60603 12.0899 3.21593 11.9176 2.85195C11.7453 2.48797 11.4927 2.15726 11.1744 1.87868C10.856 1.6001 10.478 1.37913 10.0621 1.22836C9.64608 1.0776 9.20025 1 8.75 1C8.29975 1 7.85392 1.0776 7.43794 1.22836C7.02197 1.37913 6.64401 1.6001 6.32563 1.87868C6.00726 2.15726 5.75472 2.48797 5.58241 2.85195C5.41011 3.21593 5.32143 3.60603 5.32143 4C5.32143 4.39397 5.41011 4.78407 5.58241 5.14805C5.75472 5.51203 6.00726 5.84274 6.32563 6.12132C6.64401 6.3999 7.02197 6.62087 7.43794 6.77164C7.85392 6.9224 8.29975 7 8.75 7C9.20025 7 9.64608 6.9224 10.0621 6.77164C10.478 6.62087 10.856 6.3999 11.1744 6.12132C11.4927 5.84274 11.7453 5.51203 11.9176 5.14805C12.0899 4.78407 12.1786 4.39397 12.1786 4ZM4.17857 4C4.17857 2.93913 4.6602 1.92172 5.51751 1.17157C6.37482 0.421427 7.53758 0 8.75 0C9.96242 0 11.1252 0.421427 11.9825 1.17157C12.8398 1.92172 13.3214 2.93913 13.3214 4C13.3214 5.06087 12.8398 6.07828 11.9825 6.82843C11.1252 7.57857 9.96242 8 8.75 8C7.53758 8 6.37482 7.57857 5.51751 6.82843C4.6602 6.07828 4.17857 5.06087 4.17857 4ZM1.89286 15H15.6071C15.5643 12.5094 13.2429 10.5 10.3821 10.5H7.11786C4.26071 10.5 1.93929 12.5094 1.89286 15ZM0.75 15.0719C0.75 11.9937 3.6 9.5 7.11786 9.5H10.3821C13.9 9.5 16.75 11.9937 16.75 15.0719C16.75 15.5844 16.275 16 15.6893 16H1.81071C1.225 16 0.75 15.5844 0.75 15.0719Z" fill="white"/>
</g>
<defs>
<clipPath id="clip0_114_5981">
<rect width="16" height="16" fill="white" transform="translate(0.75)"/>
</clipPath>
</defs>
</svg>
